%TF.GenerationSoftware,KiCad,Pcbnew,10.0.6*%
%TF.CreationDate,2026-09-27T02:08:18-04:00*%
%TF.ProjectId,rtl8367-switch,72746c38-3336-4372-9d73-77697463682e,0.1*%
%TF.SameCoordinates,Original*%
%TF.FileFunction,Paste,Bot*%
%TF.FilePolarity,Positive*%
%FSLAX46Y46*%
G04 Gerber Fmt 4.6, Leading zero omitted, Abs format (unit mm)*
G04 Created by KiCad (PCBNEW 10.0.6) date 2026-09-27 02:08:18*
%MOMM*%
%LPD*%
G01*
G04 APERTURE LIST*
G04 Aperture macros list*
%AMRoundRect*
0 Rectangle with rounded corners*
0 $1 Rounding radius*
0 $2 $3 $4 $5 $6 $7 $8 $9 X,Y pos of 4 corners*
0 Add a 4 corners polygon primitive as box body*
4,1,4,$2,$3,$4,$5,$6,$7,$8,$9,$2,$3,0*
0 Add four circle primitives for the rounded corners*
1,1,$1+$1,$2,$3*
1,1,$1+$1,$4,$5*
1,1,$1+$1,$6,$7*
1,1,$1+$1,$8,$9*
0 Add four rect primitives between the rounded corners*
20,1,$1+$1,$2,$3,$4,$5,0*
20,1,$1+$1,$4,$5,$6,$7,0*
20,1,$1+$1,$6,$7,$8,$9,0*
20,1,$1+$1,$8,$9,$2,$3,0*%
G04 Aperture macros list end*
%ADD10RoundRect,0.140000X-0.170000X0.140000X-0.170000X-0.140000X0.170000X-0.140000X0.170000X0.140000X0*%
%ADD11RoundRect,0.135000X-0.185000X0.135000X-0.185000X-0.135000X0.185000X-0.135000X0.185000X0.135000X0*%
%ADD12RoundRect,0.200000X0.275000X-0.200000X0.275000X0.200000X-0.275000X0.200000X-0.275000X-0.200000X0*%
%ADD13RoundRect,0.140000X0.140000X0.170000X-0.140000X0.170000X-0.140000X-0.170000X0.140000X-0.170000X0*%
%ADD14RoundRect,0.135000X0.135000X0.185000X-0.135000X0.185000X-0.135000X-0.185000X0.135000X-0.185000X0*%
%ADD15RoundRect,0.140000X-0.140000X-0.170000X0.140000X-0.170000X0.140000X0.170000X-0.140000X0.170000X0*%
%ADD16RoundRect,0.200000X-0.200000X-0.275000X0.200000X-0.275000X0.200000X0.275000X-0.200000X0.275000X0*%
%ADD17RoundRect,0.135000X0.185000X-0.135000X0.185000X0.135000X-0.185000X0.135000X-0.185000X-0.135000X0*%
%ADD18RoundRect,0.250000X-0.325000X-0.650000X0.325000X-0.650000X0.325000X0.650000X-0.325000X0.650000X0*%
%ADD19RoundRect,0.140000X0.170000X-0.140000X0.170000X0.140000X-0.170000X0.140000X-0.170000X-0.140000X0*%
%ADD20RoundRect,0.250000X0.250000X0.475000X-0.250000X0.475000X-0.250000X-0.475000X0.250000X-0.475000X0*%
%ADD21RoundRect,0.200000X0.200000X0.275000X-0.200000X0.275000X-0.200000X-0.275000X0.200000X-0.275000X0*%
%ADD22RoundRect,0.225000X-0.225000X-0.250000X0.225000X-0.250000X0.225000X0.250000X-0.225000X0.250000X0*%
%ADD23RoundRect,0.225000X0.225000X0.250000X-0.225000X0.250000X-0.225000X-0.250000X0.225000X-0.250000X0*%
%ADD24RoundRect,0.250000X-0.250000X-0.475000X0.250000X-0.475000X0.250000X0.475000X-0.250000X0.475000X0*%
%ADD25RoundRect,0.135000X-0.135000X-0.185000X0.135000X-0.185000X0.135000X0.185000X-0.135000X0.185000X0*%
%ADD26RoundRect,0.200000X-0.275000X0.200000X-0.275000X-0.200000X0.275000X-0.200000X0.275000X0.200000X0*%
%ADD27RoundRect,0.182500X-0.182500X-0.182500X0.182500X-0.182500X0.182500X0.182500X-0.182500X0.182500X0*%
%ADD28RoundRect,0.062500X-0.350000X-0.062500X0.350000X-0.062500X0.350000X0.062500X-0.350000X0.062500X0*%
%ADD29RoundRect,0.062500X-0.062500X-0.350000X0.062500X-0.350000X0.062500X0.350000X-0.062500X0.350000X0*%
%ADD30RoundRect,0.150000X0.150000X-0.825000X0.150000X0.825000X-0.150000X0.825000X-0.150000X-0.825000X0*%
%ADD31RoundRect,0.150000X-0.512500X-0.150000X0.512500X-0.150000X0.512500X0.150000X-0.512500X0.150000X0*%
%ADD32RoundRect,0.250000X0.300000X1.600000X-0.300000X1.600000X-0.300000X-1.600000X0.300000X-1.600000X0*%
%ADD33RoundRect,0.250000X1.000000X0.900000X-1.000000X0.900000X-1.000000X-0.900000X1.000000X-0.900000X0*%
%ADD34RoundRect,0.225000X-0.250000X0.225000X-0.250000X-0.225000X0.250000X-0.225000X0.250000X0.225000X0*%
%ADD35RoundRect,0.250000X0.650000X-0.325000X0.650000X0.325000X-0.650000X0.325000X-0.650000X-0.325000X0*%
G04 APERTURE END LIST*
D10*
%TO.C,C601*%
X63480000Y-41545000D03*
X63480000Y-42505000D03*
%TD*%
D11*
%TO.C,R602*%
X68490000Y-41515000D03*
X68490000Y-42535000D03*
%TD*%
D12*
%TO.C,R708*%
X95010000Y-52450000D03*
X95010000Y-50800000D03*
%TD*%
D13*
%TO.C,C204*%
X27425000Y-6805000D03*
X26465000Y-6805000D03*
%TD*%
D14*
%TO.C,R261*%
X11635000Y-15025000D03*
X10615000Y-15025000D03*
%TD*%
D10*
%TO.C,C402*%
X28290000Y-41545000D03*
X28290000Y-42505000D03*
%TD*%
D15*
%TO.C,C216*%
X27425000Y-23445000D03*
X28385000Y-23445000D03*
%TD*%
D16*
%TO.C,R104*%
X59700000Y-1775000D03*
X61350000Y-1775000D03*
%TD*%
D17*
%TO.C,R268*%
X79125000Y-40135000D03*
X79125000Y-39115000D03*
%TD*%
D11*
%TO.C,R503*%
X52800000Y-41515000D03*
X52800000Y-42535000D03*
%TD*%
D18*
%TO.C,C605*%
X68350000Y-48825000D03*
X71300000Y-48825000D03*
%TD*%
D14*
%TO.C,R273*%
X11635000Y-8725000D03*
X10615000Y-8725000D03*
%TD*%
D12*
%TO.C,R607*%
X71700000Y-52450000D03*
X71700000Y-50800000D03*
%TD*%
D13*
%TO.C,C219*%
X33725000Y-15445000D03*
X32765000Y-15445000D03*
%TD*%
D12*
%TO.C,R408*%
X36510000Y-52450000D03*
X36510000Y-50800000D03*
%TD*%
D19*
%TO.C,C253*%
X14275000Y-26505000D03*
X14275000Y-25545000D03*
%TD*%
D14*
%TO.C,R254*%
X14635000Y-18525000D03*
X13615000Y-18525000D03*
%TD*%
D12*
%TO.C,R101*%
X68775000Y-6850000D03*
X68775000Y-5200000D03*
%TD*%
D14*
%TO.C,R270*%
X14635000Y-9425000D03*
X13615000Y-9425000D03*
%TD*%
D17*
%TO.C,R267*%
X77525000Y-40135000D03*
X77525000Y-39115000D03*
%TD*%
D13*
%TO.C,C112*%
X36755000Y-6825000D03*
X35795000Y-6825000D03*
%TD*%
D11*
%TO.C,R302*%
X9990000Y-41515000D03*
X9990000Y-42535000D03*
%TD*%
D10*
%TO.C,C403*%
X32100000Y-41545000D03*
X32100000Y-42505000D03*
%TD*%
D18*
%TO.C,C405*%
X29350000Y-48825000D03*
X32300000Y-48825000D03*
%TD*%
D14*
%TO.C,R262*%
X14635000Y-13625000D03*
X13615000Y-13625000D03*
%TD*%
D17*
%TO.C,R112*%
X85275000Y-9285000D03*
X85275000Y-8265000D03*
%TD*%
D12*
%TO.C,R305*%
X5580000Y-52450000D03*
X5580000Y-50800000D03*
%TD*%
D10*
%TO.C,C303*%
X12600000Y-41545000D03*
X12600000Y-42505000D03*
%TD*%
D11*
%TO.C,R404*%
X37110000Y-41515000D03*
X37110000Y-42535000D03*
%TD*%
%TO.C,R403*%
X33300000Y-41515000D03*
X33300000Y-42535000D03*
%TD*%
D16*
%TO.C,FB202*%
X26625000Y-20645000D03*
X28275000Y-20645000D03*
%TD*%
D10*
%TO.C,C502*%
X47790000Y-41545000D03*
X47790000Y-42505000D03*
%TD*%
D13*
%TO.C,C210*%
X36225000Y-15525000D03*
X35265000Y-15525000D03*
%TD*%
D10*
%TO.C,C221*%
X26325000Y-13845000D03*
X26325000Y-14805000D03*
%TD*%
D11*
%TO.C,R251*%
X39925000Y-14615000D03*
X39925000Y-15635000D03*
%TD*%
D19*
%TO.C,C209*%
X36845000Y-18825000D03*
X36845000Y-17865000D03*
%TD*%
D17*
%TO.C,R252*%
X13225000Y-26035000D03*
X13225000Y-25015000D03*
%TD*%
D10*
%TO.C,C401*%
X24480000Y-41545000D03*
X24480000Y-42505000D03*
%TD*%
D14*
%TO.C,R111*%
X10785000Y-25775000D03*
X9765000Y-25775000D03*
%TD*%
D18*
%TO.C,C305*%
X9850000Y-48825000D03*
X12800000Y-48825000D03*
%TD*%
D12*
%TO.C,R707*%
X91200000Y-52450000D03*
X91200000Y-50800000D03*
%TD*%
D14*
%TO.C,R269*%
X11635000Y-11525000D03*
X10615000Y-11525000D03*
%TD*%
D20*
%TO.C,C114*%
X28075000Y-2025000D03*
X26175000Y-2025000D03*
%TD*%
D12*
%TO.C,R507*%
X52200000Y-52450000D03*
X52200000Y-50800000D03*
%TD*%
%TO.C,R505*%
X44580000Y-52450000D03*
X44580000Y-50800000D03*
%TD*%
%TO.C,R706*%
X87390000Y-52450000D03*
X87390000Y-50800000D03*
%TD*%
%TO.C,R506*%
X48390000Y-52450000D03*
X48390000Y-50800000D03*
%TD*%
D17*
%TO.C,R259*%
X38525000Y-40135000D03*
X38525000Y-39115000D03*
%TD*%
D11*
%TO.C,R704*%
X95610000Y-41515000D03*
X95610000Y-42535000D03*
%TD*%
D12*
%TO.C,R608*%
X75510000Y-52450000D03*
X75510000Y-50800000D03*
%TD*%
D13*
%TO.C,C213*%
X35025000Y-9805000D03*
X34065000Y-9805000D03*
%TD*%
D10*
%TO.C,C603*%
X71100000Y-41545000D03*
X71100000Y-42505000D03*
%TD*%
D15*
%TO.C,C227*%
X25425000Y-22245000D03*
X26385000Y-22245000D03*
%TD*%
D17*
%TO.C,R263*%
X58025000Y-40135000D03*
X58025000Y-39115000D03*
%TD*%
D21*
%TO.C,R105*%
X59350000Y-3525000D03*
X57700000Y-3525000D03*
%TD*%
D17*
%TO.C,R264*%
X59625000Y-40135000D03*
X59625000Y-39115000D03*
%TD*%
D15*
%TO.C,C220*%
X28225000Y-13545000D03*
X29185000Y-13545000D03*
%TD*%
D22*
%TO.C,C113*%
X38800000Y-1025000D03*
X40350000Y-1025000D03*
%TD*%
D19*
%TO.C,C223*%
X35025000Y-20205000D03*
X35025000Y-19245000D03*
%TD*%
D10*
%TO.C,C701*%
X82980000Y-41545000D03*
X82980000Y-42505000D03*
%TD*%
D15*
%TO.C,C228*%
X29425000Y-22245000D03*
X30385000Y-22245000D03*
%TD*%
%TO.C,C214*%
X23825000Y-20245000D03*
X24785000Y-20245000D03*
%TD*%
D11*
%TO.C,R110*%
X11775000Y-20015000D03*
X11775000Y-21035000D03*
%TD*%
D10*
%TO.C,C702*%
X86790000Y-41545000D03*
X86790000Y-42505000D03*
%TD*%
D11*
%TO.C,R702*%
X87990000Y-41515000D03*
X87990000Y-42535000D03*
%TD*%
D23*
%TO.C,C109*%
X59300000Y-5275000D03*
X57750000Y-5275000D03*
%TD*%
D17*
%TO.C,R271*%
X97025000Y-40135000D03*
X97025000Y-39115000D03*
%TD*%
D15*
%TO.C,C202*%
X33825000Y-8045000D03*
X34785000Y-8045000D03*
%TD*%
D12*
%TO.C,R508*%
X56010000Y-52450000D03*
X56010000Y-50800000D03*
%TD*%
D24*
%TO.C,C111*%
X39075000Y-2925000D03*
X40975000Y-2925000D03*
%TD*%
D14*
%TO.C,R265*%
X11635000Y-12925000D03*
X10615000Y-12925000D03*
%TD*%
D12*
%TO.C,R605*%
X64080000Y-52450000D03*
X64080000Y-50800000D03*
%TD*%
%TO.C,R405*%
X25080000Y-52450000D03*
X25080000Y-50800000D03*
%TD*%
D11*
%TO.C,R253*%
X8775000Y-27015000D03*
X8775000Y-28035000D03*
%TD*%
D14*
%TO.C,R258*%
X14635000Y-15725000D03*
X13615000Y-15725000D03*
%TD*%
D11*
%TO.C,R703*%
X91800000Y-41515000D03*
X91800000Y-42535000D03*
%TD*%
D17*
%TO.C,R260*%
X40125000Y-40135000D03*
X40125000Y-39115000D03*
%TD*%
D11*
%TO.C,R401*%
X25680000Y-41515000D03*
X25680000Y-42535000D03*
%TD*%
D19*
%TO.C,C208*%
X36225000Y-21905000D03*
X36225000Y-20945000D03*
%TD*%
D14*
%TO.C,R289*%
X11635000Y-7125000D03*
X10615000Y-7125000D03*
%TD*%
D11*
%TO.C,R504*%
X56610000Y-41515000D03*
X56610000Y-42535000D03*
%TD*%
D13*
%TO.C,C224*%
X35025000Y-16725000D03*
X34065000Y-16725000D03*
%TD*%
D11*
%TO.C,R402*%
X29490000Y-41515000D03*
X29490000Y-42535000D03*
%TD*%
D18*
%TO.C,C505*%
X48850000Y-48825000D03*
X51800000Y-48825000D03*
%TD*%
D12*
%TO.C,R705*%
X83580000Y-52450000D03*
X83580000Y-50800000D03*
%TD*%
D25*
%TO.C,R201*%
X39845000Y-17775000D03*
X40865000Y-17775000D03*
%TD*%
D11*
%TO.C,R601*%
X64680000Y-41515000D03*
X64680000Y-42535000D03*
%TD*%
D15*
%TO.C,C201*%
X39225000Y-16645000D03*
X40185000Y-16645000D03*
%TD*%
D24*
%TO.C,C218*%
X23825000Y-24125000D03*
X25725000Y-24125000D03*
%TD*%
D26*
%TO.C,FB203*%
X33275000Y-18100000D03*
X33275000Y-19750000D03*
%TD*%
D18*
%TO.C,C705*%
X87850000Y-48825000D03*
X90800000Y-48825000D03*
%TD*%
D10*
%TO.C,C604*%
X74910000Y-41545000D03*
X74910000Y-42505000D03*
%TD*%
D27*
%TO.C,U102*%
X35405000Y-3005000D03*
X35405000Y-3845000D03*
X36245000Y-3005000D03*
X36245000Y-3845000D03*
D28*
X34362500Y-4175000D03*
X34362500Y-3675000D03*
X34362500Y-3175000D03*
X34362500Y-2675000D03*
D29*
X35075000Y-1962500D03*
X35575000Y-1962500D03*
X36075000Y-1962500D03*
X36575000Y-1962500D03*
D28*
X37287500Y-2675000D03*
X37287500Y-3175000D03*
X37287500Y-3675000D03*
X37287500Y-4175000D03*
D29*
X36575000Y-4887500D03*
X36075000Y-4887500D03*
X35575000Y-4887500D03*
X35075000Y-4887500D03*
%TD*%
D17*
%TO.C,R272*%
X98625000Y-40135000D03*
X98625000Y-39115000D03*
%TD*%
D10*
%TO.C,C703*%
X90600000Y-41545000D03*
X90600000Y-42505000D03*
%TD*%
D17*
%TO.C,R255*%
X19025000Y-40135000D03*
X19025000Y-39115000D03*
%TD*%
D26*
%TO.C,R106*%
X57625000Y-6820000D03*
X57625000Y-8470000D03*
%TD*%
D12*
%TO.C,R407*%
X32699999Y-52450000D03*
X32699999Y-50800000D03*
%TD*%
D20*
%TO.C,C115*%
X28075000Y-4825000D03*
X26175000Y-4825000D03*
%TD*%
D11*
%TO.C,R701*%
X84180000Y-41515000D03*
X84180000Y-42535000D03*
%TD*%
D30*
%TO.C,U251*%
X14230000Y-33375000D03*
X12960000Y-33375000D03*
X11690000Y-33375000D03*
X10420000Y-33375000D03*
X10420000Y-28425000D03*
X11690000Y-28425000D03*
X12960000Y-28425000D03*
X14230000Y-28425000D03*
%TD*%
D14*
%TO.C,R257*%
X14635000Y-17125000D03*
X13615000Y-17125000D03*
%TD*%
D13*
%TO.C,C226*%
X34105000Y-11625000D03*
X33145000Y-11625000D03*
%TD*%
D20*
%TO.C,C222*%
X32625000Y-13225000D03*
X30725000Y-13225000D03*
%TD*%
D16*
%TO.C,R102*%
X68700000Y-3525000D03*
X70350000Y-3525000D03*
%TD*%
D10*
%TO.C,C504*%
X55410000Y-41545000D03*
X55410000Y-42505000D03*
%TD*%
D21*
%TO.C,FB201*%
X39850000Y-7025000D03*
X38200000Y-7025000D03*
%TD*%
D13*
%TO.C,C206*%
X14505000Y-7925000D03*
X13545000Y-7925000D03*
%TD*%
D10*
%TO.C,C302*%
X8790000Y-41545000D03*
X8790000Y-42505000D03*
%TD*%
D13*
%TO.C,C225*%
X35025000Y-12895000D03*
X34065000Y-12895000D03*
%TD*%
D14*
%TO.C,R288*%
X14635000Y-6425000D03*
X13615000Y-6425000D03*
%TD*%
D11*
%TO.C,R304*%
X17610000Y-41515000D03*
X17610000Y-42535000D03*
%TD*%
D16*
%TO.C,R103*%
X56450000Y-1775000D03*
X58100000Y-1775000D03*
%TD*%
D11*
%TO.C,R603*%
X72300000Y-41515000D03*
X72300000Y-42535000D03*
%TD*%
D10*
%TO.C,C212*%
X36325000Y-11045000D03*
X36325000Y-12005000D03*
%TD*%
%TO.C,C501*%
X43980000Y-41545000D03*
X43980000Y-42505000D03*
%TD*%
D15*
%TO.C,C116*%
X38145000Y-5625000D03*
X39105000Y-5625000D03*
%TD*%
D13*
%TO.C,C217*%
X32624999Y-23725000D03*
X31664999Y-23725000D03*
%TD*%
D31*
%TO.C,U103*%
X9387500Y-24275000D03*
X9387500Y-23325000D03*
X9387500Y-22375000D03*
X11662500Y-22375000D03*
X11662500Y-23325000D03*
X11662500Y-24275000D03*
%TD*%
D14*
%TO.C,R286*%
X14635000Y-5025000D03*
X13615000Y-5025000D03*
%TD*%
D12*
%TO.C,R606*%
X67890000Y-52450000D03*
X67890000Y-50800000D03*
%TD*%
D10*
%TO.C,C503*%
X51600000Y-41545000D03*
X51600000Y-42505000D03*
%TD*%
D32*
%TO.C,L102*%
X32725000Y-3425000D03*
X29725000Y-3425000D03*
%TD*%
D24*
%TO.C,C230*%
X25125000Y-11225000D03*
X27025000Y-11225000D03*
%TD*%
D11*
%TO.C,R501*%
X45180000Y-41515000D03*
X45180000Y-42535000D03*
%TD*%
D33*
%TO.C,D102*%
X74475000Y-11325000D03*
X70175000Y-11325000D03*
%TD*%
D10*
%TO.C,C602*%
X67290000Y-41545000D03*
X67290000Y-42505000D03*
%TD*%
D34*
%TO.C,C232*%
X31525000Y-27500000D03*
X31525000Y-29050000D03*
%TD*%
D14*
%TO.C,R266*%
X14635000Y-12225000D03*
X13615000Y-12225000D03*
%TD*%
D11*
%TO.C,R301*%
X6180000Y-41515000D03*
X6180000Y-42535000D03*
%TD*%
%TO.C,R604*%
X76110000Y-41515000D03*
X76110000Y-42535000D03*
%TD*%
D13*
%TO.C,C229*%
X34625000Y-22245000D03*
X33665000Y-22245000D03*
%TD*%
D12*
%TO.C,R306*%
X9390000Y-52450000D03*
X9390000Y-50800000D03*
%TD*%
D35*
%TO.C,C117*%
X1925000Y-48500000D03*
X1925000Y-45550000D03*
%TD*%
D14*
%TO.C,R109*%
X10535000Y-20775000D03*
X9515000Y-20775000D03*
%TD*%
D20*
%TO.C,C207*%
X39625000Y-9125000D03*
X37725000Y-9125000D03*
%TD*%
D13*
%TO.C,C203*%
X27425000Y-8045000D03*
X26465000Y-8045000D03*
%TD*%
D10*
%TO.C,C301*%
X4980000Y-41545000D03*
X4980000Y-42505000D03*
%TD*%
D34*
%TO.C,C110*%
X59275000Y-7000000D03*
X59275000Y-8550000D03*
%TD*%
D10*
%TO.C,C404*%
X35910000Y-41545000D03*
X35910000Y-42505000D03*
%TD*%
%TO.C,C304*%
X16410000Y-41545000D03*
X16410000Y-42505000D03*
%TD*%
D12*
%TO.C,R406*%
X28890000Y-52450000D03*
X28890000Y-50800000D03*
%TD*%
D19*
%TO.C,C231*%
X31425000Y-22205000D03*
X31425000Y-21245000D03*
%TD*%
D14*
%TO.C,R287*%
X11635000Y-5725000D03*
X10615000Y-5725000D03*
%TD*%
D13*
%TO.C,C211*%
X35605000Y-14025000D03*
X34645000Y-14025000D03*
%TD*%
D10*
%TO.C,C704*%
X94410000Y-41545000D03*
X94410000Y-42505000D03*
%TD*%
D12*
%TO.C,R308*%
X17010000Y-52450000D03*
X17010000Y-50800000D03*
%TD*%
D11*
%TO.C,R502*%
X48990000Y-41515000D03*
X48990000Y-42535000D03*
%TD*%
%TO.C,R303*%
X13800000Y-41515000D03*
X13800000Y-42535000D03*
%TD*%
D19*
%TO.C,C215*%
X23205000Y-22525000D03*
X23205000Y-21565000D03*
%TD*%
D12*
%TO.C,R113*%
X4025000Y-47850000D03*
X4025000Y-46200000D03*
%TD*%
%TO.C,R307*%
X13200000Y-52450000D03*
X13200000Y-50800000D03*
%TD*%
D17*
%TO.C,R256*%
X20625000Y-40135000D03*
X20625000Y-39115000D03*
%TD*%
M02*
