%TF.GenerationSoftware,KiCad,Pcbnew,10.0.6*%
%TF.CreationDate,2026-09-27T02:08:18-04:00*%
%TF.ProjectId,rtl8367-switch,72746c38-3336-4372-9d73-77697463682e,0.1*%
%TF.SameCoordinates,Original*%
%TF.FileFunction,Copper,L2,Inr*%
%TF.FilePolarity,Positive*%
%FSLAX46Y46*%
G04 Gerber Fmt 4.6, Leading zero omitted, Abs format (unit mm)*
G04 Created by KiCad (PCBNEW 10.0.6) date 2026-09-27 02:08:18*
%MOMM*%
%LPD*%
G01*
G04 APERTURE LIST*
G04 Aperture macros list*
%AMRoundRect*
0 Rectangle with rounded corners*
0 $1 Rounding radius*
0 $2 $3 $4 $5 $6 $7 $8 $9 X,Y pos of 4 corners*
0 Add a 4 corners polygon primitive as box body*
4,1,4,$2,$3,$4,$5,$6,$7,$8,$9,$2,$3,0*
0 Add four circle primitives for the rounded corners*
1,1,$1+$1,$2,$3*
1,1,$1+$1,$4,$5*
1,1,$1+$1,$6,$7*
1,1,$1+$1,$8,$9*
0 Add four rect primitives between the rounded corners*
20,1,$1+$1,$2,$3,$4,$5,0*
20,1,$1+$1,$4,$5,$6,$7,0*
20,1,$1+$1,$6,$7,$8,$9,0*
20,1,$1+$1,$8,$9,$2,$3,0*%
G04 Aperture macros list end*
%TA.AperFunction,ComponentPad*%
%ADD10RoundRect,0.250000X-0.500000X-0.500000X0.500000X-0.500000X0.500000X0.500000X-0.500000X0.500000X0*%
%TD*%
%TA.AperFunction,ComponentPad*%
%ADD11C,1.500000*%
%TD*%
%TA.AperFunction,ComponentPad*%
%ADD12C,2.700000*%
%TD*%
%TA.AperFunction,ComponentPad*%
%ADD13R,2.600000X2.600000*%
%TD*%
%TA.AperFunction,ComponentPad*%
%ADD14C,2.600000*%
%TD*%
%TA.AperFunction,ComponentPad*%
%ADD15C,0.600000*%
%TD*%
%TA.AperFunction,ComponentPad*%
%ADD16R,1.700000X1.700000*%
%TD*%
%TA.AperFunction,ComponentPad*%
%ADD17C,1.700000*%
%TD*%
%TA.AperFunction,HeatsinkPad*%
%ADD18C,0.500000*%
%TD*%
%TA.AperFunction,ViaPad*%
%ADD19C,0.450000*%
%TD*%
%TA.AperFunction,ViaPad*%
%ADD20C,0.600000*%
%TD*%
%TA.AperFunction,Conductor*%
%ADD21C,0.226000*%
%TD*%
G04 APERTURE END LIST*
D10*
%TO.N,/PORT3/A-*%
%TO.C,J601*%
X72095000Y-64085000D03*
D11*
%TO.N,/PORT3/A+*%
X71075000Y-62305000D03*
%TO.N,/PORT3/B-*%
X70055000Y-64085000D03*
%TO.N,/PORT3/C-*%
X69035000Y-62305000D03*
%TO.N,/PORT3/C+*%
X68015000Y-64085000D03*
%TO.N,/PORT3/B+*%
X66995000Y-62305000D03*
%TO.N,/PORT3/D-*%
X65975000Y-64085000D03*
%TO.N,/PORT3/D+*%
X64955000Y-62305000D03*
D12*
%TO.N,CHASSIS*%
X76655000Y-63065000D03*
X60395000Y-63065000D03*
%TD*%
D13*
%TO.N,/POWER/VIN_JACK*%
%TO.C,J101*%
X94925000Y-14025000D03*
D14*
%TO.N,GND*%
X94925000Y-8025000D03*
%TO.N,N/C*%
X90225000Y-11025000D03*
%TD*%
D10*
%TO.N,/PORT1/A-*%
%TO.C,J401*%
X33095000Y-64085000D03*
D11*
%TO.N,/PORT1/A+*%
X32075000Y-62305000D03*
%TO.N,/PORT1/B-*%
X31055000Y-64085000D03*
%TO.N,/PORT1/C-*%
X30035000Y-62305000D03*
%TO.N,/PORT1/C+*%
X29015000Y-64085000D03*
%TO.N,/PORT1/B+*%
X27995000Y-62305000D03*
%TO.N,/PORT1/D-*%
X26975000Y-64085000D03*
%TO.N,/PORT1/D+*%
X25955000Y-62305000D03*
D12*
%TO.N,CHASSIS*%
X37655000Y-63065000D03*
X21395000Y-63065000D03*
%TD*%
D10*
%TO.N,/PORT0/A-*%
%TO.C,J301*%
X13595000Y-64085000D03*
D11*
%TO.N,/PORT0/A+*%
X12575000Y-62305000D03*
%TO.N,/PORT0/B-*%
X11555000Y-64085000D03*
%TO.N,/PORT0/C-*%
X10535000Y-62305000D03*
%TO.N,/PORT0/C+*%
X9515000Y-64085000D03*
%TO.N,/PORT0/B+*%
X8495000Y-62305000D03*
%TO.N,/PORT0/D-*%
X7475000Y-64085000D03*
%TO.N,/PORT0/D+*%
X6455000Y-62305000D03*
D12*
%TO.N,CHASSIS*%
X18155000Y-63065000D03*
X1895000Y-63065000D03*
%TD*%
D10*
%TO.N,/PORT4/A-*%
%TO.C,J701*%
X91595000Y-64085000D03*
D11*
%TO.N,/PORT4/A+*%
X90575000Y-62305000D03*
%TO.N,/PORT4/B-*%
X89555000Y-64085000D03*
%TO.N,/PORT4/C-*%
X88535000Y-62305000D03*
%TO.N,/PORT4/C+*%
X87515000Y-64085000D03*
%TO.N,/PORT4/B+*%
X86495000Y-62305000D03*
%TO.N,/PORT4/D-*%
X85475000Y-64085000D03*
%TO.N,/PORT4/D+*%
X84455000Y-62305000D03*
D12*
%TO.N,CHASSIS*%
X96155000Y-63065000D03*
X79895000Y-63065000D03*
%TD*%
D15*
%TO.N,GND*%
%TO.C,U201*%
X31825000Y-18425000D03*
X31825000Y-17225000D03*
X31825000Y-16025000D03*
X31825000Y-14825000D03*
X30625000Y-18425000D03*
X30625000Y-17225000D03*
X30625000Y-16025000D03*
X30625000Y-14825000D03*
X29425000Y-18425000D03*
X29425000Y-17225000D03*
X29425000Y-16025000D03*
X29425000Y-14825000D03*
X28225000Y-18425000D03*
X28225000Y-17225000D03*
X28225000Y-16025000D03*
X28225000Y-14825000D03*
%TD*%
D16*
%TO.N,+3V3*%
%TO.C,J251*%
X16545000Y-2325000D03*
D17*
%TO.N,GND*%
X14005000Y-2325000D03*
%TO.N,/CORE_CTRL/SMI_SCK*%
X11465000Y-2325000D03*
%TO.N,/CORE_CTRL/SMI_SDA*%
X8925000Y-2325000D03*
%TD*%
D10*
%TO.N,/PORT2/A-*%
%TO.C,J501*%
X52595000Y-64085000D03*
D11*
%TO.N,/PORT2/A+*%
X51575000Y-62305000D03*
%TO.N,/PORT2/B-*%
X50555000Y-64085000D03*
%TO.N,/PORT2/C-*%
X49535000Y-62305000D03*
%TO.N,/PORT2/C+*%
X48515000Y-64085000D03*
%TO.N,/PORT2/B+*%
X47495000Y-62305000D03*
%TO.N,/PORT2/D-*%
X46475000Y-64085000D03*
%TO.N,/PORT2/D+*%
X45455000Y-62305000D03*
D12*
%TO.N,CHASSIS*%
X57155000Y-63065000D03*
X40895000Y-63065000D03*
%TD*%
D15*
%TO.N,GND*%
%TO.C,U101*%
X64675000Y-7475000D03*
X64675000Y-6175000D03*
X64675000Y-4875000D03*
X64675000Y-3575000D03*
X63375000Y-7475000D03*
X63375000Y-6175000D03*
X63375000Y-4875000D03*
X63375000Y-3575000D03*
%TD*%
D18*
%TO.N,GND*%
%TO.C,U102*%
X35235000Y-2835000D03*
X35235000Y-4015000D03*
X36415000Y-2835000D03*
X36415000Y-4015000D03*
%TD*%
D19*
%TO.N,/POWER/VIN*%
X67875000Y-6175000D03*
X75325000Y-9525000D03*
X76325000Y-9525000D03*
%TO.N,GND*%
X71625000Y-2425000D03*
X51600000Y-43405000D03*
D20*
X86245000Y-6245000D03*
X73745000Y-28755000D03*
X83745000Y-1255000D03*
X1255000Y-16255000D03*
X1255000Y-21255000D03*
D19*
X25646100Y-7656100D03*
X31665000Y-25475000D03*
D20*
X43755000Y-8745000D03*
X98745000Y-41255000D03*
D19*
X74910000Y-43405000D03*
D20*
X53755000Y-8745000D03*
D19*
X9995000Y-5725000D03*
D20*
X51255000Y-11245000D03*
X98745000Y-23755000D03*
D19*
X47790000Y-43405000D03*
X86790000Y-43405000D03*
X9025000Y-34375000D03*
X5800000Y-8075000D03*
D20*
X73745000Y-36255000D03*
X83745000Y-3755000D03*
X81245000Y-23755000D03*
D19*
X12995000Y-5025000D03*
X32175000Y-29050000D03*
D20*
X6245000Y-18755000D03*
X78745000Y-21255000D03*
D19*
X67290000Y-43405000D03*
X12925000Y-7925000D03*
D20*
X63755000Y-11245000D03*
X53755000Y-11245000D03*
D19*
X43980000Y-43405000D03*
D20*
X81245000Y-36255000D03*
X78745000Y-26255000D03*
X98745000Y-43755000D03*
D19*
X35910000Y-43405000D03*
D20*
X93745000Y-23755000D03*
D19*
X56775000Y-4124999D03*
X37175000Y-9125000D03*
D20*
X73745000Y-33755000D03*
D19*
X9995000Y-7125000D03*
X81275000Y-3425000D03*
X44325000Y-6825000D03*
X12995000Y-12225000D03*
D20*
X78745000Y-23755000D03*
D19*
X68425000Y-11925000D03*
X1925000Y-44550000D03*
D20*
X81245000Y-33755000D03*
D19*
X13325000Y-19325000D03*
D20*
X8745000Y-36255000D03*
D19*
X90600000Y-43405000D03*
D20*
X53755000Y-1255000D03*
D19*
X44575000Y-37225000D03*
X94410000Y-43405000D03*
X69625000Y-2425000D03*
X79275000Y-3425000D03*
X70900000Y-3525000D03*
X64225000Y-1525000D03*
D20*
X36255000Y-36255000D03*
X1255000Y-36255000D03*
D19*
X39925000Y-5625000D03*
X21825000Y-2025000D03*
D20*
X61255000Y-11245000D03*
D19*
X44325000Y-3025000D03*
D20*
X78745000Y-28755000D03*
D19*
X5575000Y-37225000D03*
X34785000Y-7495000D03*
X83187500Y-8224999D03*
X32695000Y-37225000D03*
D20*
X66245000Y-11245000D03*
D19*
X16410000Y-43405000D03*
X25075000Y-37225000D03*
X64075000Y-37225000D03*
X5800000Y-15175000D03*
D20*
X41255000Y-8745000D03*
D19*
X41415000Y-17775000D03*
X8790000Y-43405000D03*
X55410000Y-43405000D03*
D20*
X18755000Y-1255000D03*
D19*
X12995000Y-6425000D03*
X78225000Y-38225000D03*
X12995000Y-15725000D03*
D20*
X76245000Y-26255000D03*
D19*
X71695000Y-37225000D03*
D20*
X93745000Y-36255000D03*
X21255000Y-6245000D03*
D19*
X39225000Y-38225000D03*
D20*
X98745000Y-33755000D03*
X11245000Y-16255000D03*
X6245000Y-21255000D03*
D19*
X91195000Y-37225000D03*
D20*
X73745000Y-26255000D03*
D19*
X83575000Y-37225000D03*
D20*
X73745000Y-23755000D03*
D19*
X13195000Y-37225000D03*
X37225000Y-1275000D03*
X8837500Y-23325000D03*
X40735000Y-16645000D03*
X68425000Y-10725000D03*
X4025000Y-45200000D03*
D20*
X3755000Y-31255000D03*
D19*
X71025000Y-9225000D03*
X68625000Y-2425000D03*
X26175000Y-3425000D03*
D20*
X58755000Y-11245000D03*
X76245000Y-28755000D03*
X48755000Y-11245000D03*
X83745000Y-6245000D03*
X1255000Y-31255000D03*
D19*
X59825000Y-8550000D03*
D20*
X86245000Y-3755000D03*
D19*
X41925000Y-2925000D03*
X24480000Y-43405000D03*
X14275000Y-24995000D03*
X4980000Y-43405000D03*
D20*
X41255000Y-6245000D03*
D19*
X70625000Y-2425000D03*
X45545000Y-4925000D03*
D20*
X11245000Y-36255000D03*
X46255000Y-11245000D03*
D19*
X25025000Y-2025000D03*
X32100000Y-43405000D03*
D20*
X76245000Y-21255000D03*
D19*
X56975000Y-8470000D03*
D20*
X81245000Y-21255000D03*
X13745000Y-21255000D03*
D19*
X15025000Y-23775000D03*
D20*
X43755000Y-1255000D03*
D19*
X12600000Y-43405000D03*
X52195000Y-37225000D03*
D20*
X93745000Y-33755000D03*
X73745000Y-21255000D03*
X56255000Y-11245000D03*
X78745000Y-33755000D03*
D19*
X82980000Y-43405000D03*
D20*
X1255000Y-33755000D03*
D19*
X80275000Y-3425000D03*
X21925000Y-3965000D03*
D20*
X96245000Y-23755000D03*
X86245000Y-1255000D03*
D19*
X71100000Y-43405000D03*
X20025000Y-25485000D03*
X56775000Y-3025000D03*
X57150000Y-3525000D03*
X63480000Y-43405000D03*
D20*
X76245000Y-23755000D03*
D19*
X39225000Y-18425000D03*
D20*
X18755000Y-6245000D03*
D19*
X28290000Y-43405000D03*
D20*
X1255000Y-18755000D03*
X58755000Y-43755000D03*
X81245000Y-26255000D03*
X81245000Y-28755000D03*
D19*
X32225000Y-25825000D03*
D20*
X71245000Y-1255000D03*
D19*
%TO.N,/PORT3/B-*%
X66620000Y-55975000D03*
%TO.N,/PORT3/C-*%
X70430000Y-55975000D03*
%TO.N,/PORT3/C+*%
X69160000Y-55975000D03*
%TO.N,/PORT3/B+*%
X65350000Y-55975000D03*
%TO.N,/PORT3/D-*%
X74240000Y-55975000D03*
%TO.N,/PORT3/D+*%
X72970000Y-55975000D03*
%TO.N,/POWER/LED_PWR*%
X86325000Y-8224999D03*
%TO.N,/PORT2/CT4*%
X56010000Y-38125000D03*
%TO.N,/PORT2/CT3*%
X52200000Y-38125000D03*
%TO.N,/PORT2/CT2*%
X48390000Y-38125000D03*
%TO.N,/PORT2/CT1*%
X44580000Y-38125000D03*
%TO.N,/PORT2/MCT1*%
X44580000Y-52877500D03*
%TO.N,/PORT2/B+*%
X45850000Y-55975000D03*
%TO.N,/PORT2/B-*%
X47120000Y-55975000D03*
%TO.N,/PORT2/MCT2*%
X48390000Y-52877500D03*
%TO.N,/PORT2/C+*%
X49660000Y-55975000D03*
%TO.N,/PORT2/C-*%
X50930000Y-55975000D03*
%TO.N,/PORT2/MCT3*%
X52200000Y-52877500D03*
%TO.N,/PORT2/D+*%
X53470000Y-55975000D03*
%TO.N,/PORT2/D-*%
X54740000Y-55975000D03*
%TO.N,/PORT2/MCT4*%
X56010000Y-52877500D03*
%TO.N,/POWER/PG_MR*%
X2950000Y-14625000D03*
%TO.N,/PORT1/B-*%
X27620000Y-55975000D03*
%TO.N,/PORT1/C-*%
X31430000Y-55975000D03*
%TO.N,/PORT1/C+*%
X30160000Y-55975000D03*
%TO.N,/PORT1/B+*%
X26350000Y-55975000D03*
%TO.N,/PORT1/D-*%
X35240000Y-55975000D03*
%TO.N,/PORT1/D+*%
X33970000Y-55975000D03*
%TO.N,/POWER/FB2*%
X34475000Y-1275000D03*
%TO.N,/PORT4/CT4*%
X95010000Y-38125000D03*
%TO.N,/PORT4/CT3*%
X91200000Y-38125000D03*
%TO.N,/PORT4/CT2*%
X87390000Y-38125000D03*
%TO.N,/PORT4/CT1*%
X83580000Y-38125000D03*
%TO.N,/PORT4/MCT1*%
X83580000Y-52877500D03*
%TO.N,/PORT4/B+*%
X84850000Y-55975000D03*
%TO.N,/PORT4/B-*%
X86120000Y-55975000D03*
%TO.N,/PORT4/MCT2*%
X87390000Y-52877500D03*
%TO.N,/PORT4/C+*%
X88660000Y-55975000D03*
%TO.N,/PORT4/C-*%
X89930000Y-55975000D03*
%TO.N,/PORT4/MCT3*%
X91200000Y-52877500D03*
%TO.N,/PORT4/D+*%
X92470000Y-55975000D03*
%TO.N,/PORT4/D-*%
X93740000Y-55975000D03*
%TO.N,/PORT4/MCT4*%
X95010000Y-52877500D03*
%TO.N,/PORT0/B-*%
X8120000Y-55975000D03*
%TO.N,/PORT0/C-*%
X11930000Y-55975000D03*
%TO.N,/PORT0/C+*%
X10660000Y-55975000D03*
%TO.N,/PORT0/B+*%
X6850000Y-55975000D03*
%TO.N,/PORT0/D-*%
X15740000Y-55975000D03*
%TO.N,/PORT0/D+*%
X14470000Y-55975000D03*
%TO.N,+3V3*%
X39625000Y-8325000D03*
X19775000Y-40135000D03*
X9995000Y-11525000D03*
X11775000Y-19465000D03*
X15130000Y-28425000D03*
X39125000Y-3975000D03*
X15225000Y-7925000D03*
X49625000Y-4925000D03*
X48925000Y-4925000D03*
X99375000Y-40135000D03*
X57000000Y-1775000D03*
X8775000Y-28585000D03*
X9995000Y-12925000D03*
X21375000Y-40135000D03*
X9995000Y-8725000D03*
X10535000Y-21325000D03*
X9995000Y-15025000D03*
X11112500Y-24275000D03*
X33825000Y-7425000D03*
X12995000Y-9425000D03*
X46575000Y-3025000D03*
X40875000Y-40135000D03*
X60375000Y-40135000D03*
X12995000Y-18525000D03*
X48225000Y-4925000D03*
X97775000Y-40135000D03*
X12995000Y-13625000D03*
X37875000Y-4775000D03*
X12212500Y-23325000D03*
X38125000Y-3725000D03*
X79875000Y-40135000D03*
X12995000Y-17125000D03*
X58775000Y-40135000D03*
X13225000Y-24465000D03*
X49525000Y-8825000D03*
X39225000Y-16025000D03*
X27425000Y-7425000D03*
X48525000Y-8825000D03*
X85275000Y-9835000D03*
%TO.N,/PORT1/CT4*%
X36510000Y-38125000D03*
%TO.N,/PORT1/CT3*%
X32699999Y-38125000D03*
%TO.N,/PORT1/CT2*%
X28890000Y-38125000D03*
%TO.N,/PORT1/CT1*%
X25080000Y-38125000D03*
%TO.N,/PORT1/MCT1*%
X25080000Y-52877500D03*
%TO.N,/PORT1/MCT2*%
X28890000Y-52877500D03*
%TO.N,/PORT1/MCT3*%
X32699999Y-52877500D03*
%TO.N,/PORT1/MCT4*%
X36510000Y-52877500D03*
%TO.N,+3V3A*%
X36225000Y-18825000D03*
X27425000Y-22825000D03*
X95610000Y-43405000D03*
X17610000Y-43405000D03*
X56610000Y-43405000D03*
X84180000Y-43405000D03*
X25680000Y-43405000D03*
X36225000Y-22525000D03*
X87990000Y-43405000D03*
X48990000Y-43405000D03*
X76110000Y-43405000D03*
X37110000Y-43405000D03*
X32625000Y-22825000D03*
X29490000Y-43405000D03*
X36225000Y-14025000D03*
X6180000Y-43405000D03*
X35025000Y-10425000D03*
X72300000Y-43405000D03*
X33300000Y-43405000D03*
X45180000Y-43405000D03*
X91800000Y-43405000D03*
X9990000Y-43405000D03*
X36225000Y-16424999D03*
X13800000Y-43405000D03*
X23825000Y-19625000D03*
X64680000Y-43405000D03*
X68490000Y-43405000D03*
X23825000Y-22525000D03*
X52800000Y-43405000D03*
X36325000Y-10425000D03*
%TO.N,+1V1A*%
X34725000Y-11625000D03*
X28275000Y-21445000D03*
X34625000Y-21625000D03*
X35025000Y-17625000D03*
X35025000Y-20825000D03*
X29425000Y-21625000D03*
X25125000Y-12025000D03*
X35025000Y-12275000D03*
X25425000Y-21625000D03*
%TO.N,Net-(U201MDI-MDIREF)*%
X39225000Y-17775000D03*
%TO.N,/CORE_CTRL/DIS_LPD*%
X38887500Y-15225000D03*
%TO.N,+1V1*%
X33725000Y-14825000D03*
X33425000Y-13225000D03*
X30675000Y-2225000D03*
X30675000Y-3325000D03*
X36075000Y-5775000D03*
X33275000Y-17150000D03*
X28225000Y-12925000D03*
X30675000Y-1525000D03*
X26325000Y-13225000D03*
X26625000Y-20025000D03*
%TO.N,/CORE_CTRL/RG1_RXD0*%
X15225000Y-5025000D03*
%TO.N,/CORE_CTRL/RG1_RXD1*%
X15225000Y-5725000D03*
%TO.N,/CORE_CTRL/RG1_RXD2*%
X15225000Y-6425000D03*
%TO.N,/CORE_CTRL/RG1_RXD3*%
X15225000Y-7125000D03*
%TO.N,/CORE_CTRL/LED_P4_2*%
X15225000Y-8725000D03*
%TO.N,/CORE_CTRL/LED_P4_0*%
X96425000Y-38575000D03*
X15225000Y-9425000D03*
%TO.N,/CORE_CTRL/LED_P4_1*%
X95925000Y-39125000D03*
X15225000Y-10125000D03*
%TO.N,/CORE_CTRL/LED_P3_1*%
X79925000Y-37413000D03*
X15225000Y-10825000D03*
%TO.N,/CORE_CTRL/LED_P3_2*%
X15225000Y-11525000D03*
%TO.N,/CORE_CTRL/LED_P3_0*%
X15225000Y-12225000D03*
%TO.N,/CORE_CTRL/LED_P2_2*%
X15225000Y-12925000D03*
%TO.N,/CORE_CTRL/LED_P2_0*%
X15225000Y-13625000D03*
X57425000Y-38575000D03*
%TO.N,/CORE_CTRL/LED_P2_1*%
X15225000Y-14325000D03*
X56925000Y-39125000D03*
%TO.N,/CORE_CTRL/LED_P1_2*%
X15225000Y-15025000D03*
%TO.N,/CORE_CTRL/LED_P1_0*%
X15225000Y-15725000D03*
%TO.N,/CORE_CTRL/LED_P1_1*%
X15225000Y-16424999D03*
X37425000Y-39125000D03*
%TO.N,/CORE_CTRL/LED_P0_2*%
X15225000Y-17125000D03*
%TO.N,/CORE_CTRL/LED_P0_1*%
X21425000Y-37413000D03*
X15225000Y-17825000D03*
%TO.N,/CORE_CTRL/LED_P0_0*%
X15225000Y-18525000D03*
X18225000Y-37413000D03*
%TO.N,nRESET*%
X9387500Y-26025000D03*
%TO.N,/CORE_CTRL/SMI_SCK*%
X11690000Y-26625000D03*
%TO.N,/CORE_CTRL/SMI_SDA*%
X10420000Y-27225000D03*
%TO.N,+1V1P*%
X31425000Y-22825000D03*
%TO.N,Net-(D254-A)*%
X40125000Y-34975000D03*
%TO.N,Net-(D251-A)*%
X19025000Y-34975000D03*
%TO.N,Net-(D259-A)*%
X97025000Y-34975000D03*
%TO.N,Net-(D257-A)*%
X77525000Y-34975000D03*
%TO.N,Net-(D253-A)*%
X38525000Y-34975000D03*
%TO.N,Net-(D256-A)*%
X59625000Y-34975000D03*
%TO.N,Net-(D255-A)*%
X58025000Y-34975000D03*
%TO.N,/PORT0/CT4*%
X17010000Y-38125000D03*
%TO.N,/PORT0/CT3*%
X13200000Y-38125000D03*
%TO.N,/PORT0/CT2*%
X9390000Y-38125000D03*
%TO.N,/PORT0/CT1*%
X5580000Y-38125000D03*
%TO.N,/PORT0/MCT1*%
X5580000Y-52877500D03*
%TO.N,/PORT0/MCT2*%
X9390000Y-52877500D03*
%TO.N,/PORT0/MCT3*%
X13200000Y-52877500D03*
%TO.N,/PORT0/MCT4*%
X17010000Y-52877500D03*
%TO.N,/PORT3/CT4*%
X75510000Y-38125000D03*
%TO.N,/PORT3/CT3*%
X71700000Y-38125000D03*
%TO.N,/PORT3/CT2*%
X67890000Y-38125000D03*
%TO.N,/PORT3/CT1*%
X64080000Y-38125000D03*
%TO.N,/PORT3/MCT1*%
X64080000Y-52877500D03*
%TO.N,/PORT3/MCT2*%
X67890000Y-52877500D03*
%TO.N,/PORT3/MCT3*%
X71700000Y-52877500D03*
%TO.N,/PORT3/MCT4*%
X75510000Y-52877500D03*
%TO.N,/POWER/EN1*%
X67925000Y-4890000D03*
%TO.N,/POWER/FB1*%
X60025000Y-3620000D03*
%TO.N,/POWER/COMP1*%
X60025000Y-4890000D03*
%TO.N,Net-(D260-A)*%
X98625000Y-34975000D03*
%TO.N,Net-(D258-A)*%
X79125000Y-34975000D03*
%TO.N,Net-(D252-A)*%
X20625000Y-34975000D03*
%TD*%
%TO.N,/PORT3/B-*%
D21*
X67073800Y-57510500D02*
X67613800Y-57510500D01*
X68739500Y-60025000D02*
X70055000Y-61340500D01*
X67613800Y-57510500D02*
X68739500Y-58636200D01*
X70055000Y-61340500D02*
X70055000Y-64085000D01*
X68739500Y-58636200D02*
X68739500Y-60025000D01*
X66620000Y-55975000D02*
X66620000Y-57056700D01*
X66620000Y-57056700D02*
X67073800Y-57510500D01*
%TO.N,/PORT3/B+*%
X68310500Y-60025000D02*
X66995000Y-61340500D01*
X66896200Y-57939500D02*
X67436200Y-57939500D01*
X65350000Y-55975000D02*
X65350000Y-56393300D01*
X66995000Y-61340500D02*
X66995000Y-62305000D01*
X68310500Y-58813800D02*
X68310500Y-60025000D01*
X65350000Y-56393300D02*
X66896200Y-57939500D01*
X67436200Y-57939500D02*
X68310500Y-58813800D01*
%TO.N,/PORT2/B+*%
X45850000Y-56393300D02*
X47396200Y-57939500D01*
X47936200Y-57939500D02*
X48810500Y-58813800D01*
X45850000Y-55975000D02*
X45850000Y-56393300D01*
X47495000Y-61340500D02*
X47495000Y-62305000D01*
X48810500Y-58813800D02*
X48810500Y-60025000D01*
X47396200Y-57939500D02*
X47936200Y-57939500D01*
X48810500Y-60025000D02*
X47495000Y-61340500D01*
%TO.N,/PORT2/B-*%
X47120000Y-57056700D02*
X47573800Y-57510500D01*
X48113800Y-57510500D02*
X49239500Y-58636200D01*
X47120000Y-55975000D02*
X47120000Y-57056700D01*
X47573800Y-57510500D02*
X48113800Y-57510500D01*
X50555000Y-61340500D02*
X50555000Y-64085000D01*
X49239500Y-58636200D02*
X49239500Y-60025000D01*
X49239500Y-60025000D02*
X50555000Y-61340500D01*
%TO.N,/PORT1/B-*%
X31055000Y-61340500D02*
X31055000Y-64085000D01*
X29739500Y-60025000D02*
X31055000Y-61340500D01*
X27620000Y-57056700D02*
X28073800Y-57510500D01*
X27620000Y-55975000D02*
X27620000Y-57056700D01*
X29739500Y-58636200D02*
X29739500Y-60025000D01*
X28613800Y-57510500D02*
X29739500Y-58636200D01*
X28073800Y-57510500D02*
X28613800Y-57510500D01*
%TO.N,/PORT1/B+*%
X28436200Y-57939500D02*
X29310500Y-58813800D01*
X27896200Y-57939500D02*
X28436200Y-57939500D01*
X29310500Y-60025000D02*
X27995000Y-61340500D01*
X29310500Y-58813800D02*
X29310500Y-60025000D01*
X26350000Y-55975000D02*
X26350000Y-56393300D01*
X26350000Y-56393300D02*
X27896200Y-57939500D01*
X27995000Y-61340500D02*
X27995000Y-62305000D01*
%TO.N,/PORT4/B+*%
X86495000Y-61340500D02*
X86495000Y-62305000D01*
X87810500Y-60025000D02*
X86495000Y-61340500D01*
X86396200Y-57939500D02*
X86936200Y-57939500D01*
X84850000Y-55975000D02*
X84850000Y-56393300D01*
X86936200Y-57939500D02*
X87810500Y-58813800D01*
X84850000Y-56393300D02*
X86396200Y-57939500D01*
X87810500Y-58813800D02*
X87810500Y-60025000D01*
%TO.N,/PORT4/B-*%
X88239500Y-58636200D02*
X88239500Y-60025000D01*
X86120000Y-55975000D02*
X86120000Y-57056700D01*
X88239500Y-60025000D02*
X89555000Y-61340500D01*
X89555000Y-61340500D02*
X89555000Y-64085000D01*
X86573800Y-57510500D02*
X87113800Y-57510500D01*
X87113800Y-57510500D02*
X88239500Y-58636200D01*
X86120000Y-57056700D02*
X86573800Y-57510500D01*
%TO.N,/PORT0/B-*%
X8120000Y-57056700D02*
X8573800Y-57510500D01*
X10239500Y-60025000D02*
X11555000Y-61340500D01*
X8573800Y-57510500D02*
X9113800Y-57510500D01*
X10239500Y-58636200D02*
X10239500Y-60025000D01*
X11555000Y-61340500D02*
X11555000Y-64085000D01*
X8120000Y-55975000D02*
X8120000Y-57056700D01*
X9113800Y-57510500D02*
X10239500Y-58636200D01*
%TO.N,/PORT0/B+*%
X8396200Y-57939500D02*
X8936200Y-57939500D01*
X8936200Y-57939500D02*
X9810500Y-58813800D01*
X8495000Y-61340500D02*
X8495000Y-62305000D01*
X9810500Y-60025000D02*
X8495000Y-61340500D01*
X6850000Y-56393300D02*
X8396200Y-57939500D01*
X9810500Y-58813800D02*
X9810500Y-60025000D01*
X6850000Y-55975000D02*
X6850000Y-56393300D01*
%TD*%
%TA.AperFunction,Conductor*%
%TO.N,GND*%
G36*
X34154096Y-644685D02*
G01*
X34199851Y-697489D01*
X34209795Y-766647D01*
X34180770Y-830203D01*
X34158226Y-848816D01*
X34158786Y-849545D01*
X34152333Y-854496D01*
X34054496Y-952333D01*
X34054492Y-952338D01*
X33985313Y-1072161D01*
X33985312Y-1072164D01*
X33949500Y-1205817D01*
X33949500Y-1344183D01*
X33977170Y-1447447D01*
X33985312Y-1477835D01*
X33985313Y-1477838D01*
X34054492Y-1597661D01*
X34054494Y-1597664D01*
X34054495Y-1597665D01*
X34152335Y-1695505D01*
X34272164Y-1764688D01*
X34405817Y-1800500D01*
X34405819Y-1800500D01*
X34544181Y-1800500D01*
X34544183Y-1800500D01*
X34677836Y-1764688D01*
X34779804Y-1705817D01*
X56474500Y-1705817D01*
X56474500Y-1844183D01*
X56491257Y-1906719D01*
X56510312Y-1977835D01*
X56510313Y-1977838D01*
X56579492Y-2097661D01*
X56579494Y-2097664D01*
X56579495Y-2097665D01*
X56677335Y-2195505D01*
X56797164Y-2264688D01*
X56930817Y-2300500D01*
X56930819Y-2300500D01*
X57069181Y-2300500D01*
X57069183Y-2300500D01*
X57202836Y-2264688D01*
X57322665Y-2195505D01*
X57420505Y-2097665D01*
X57489688Y-1977836D01*
X57525500Y-1844183D01*
X57525500Y-1705817D01*
X57489688Y-1572164D01*
X57435228Y-1477836D01*
X57420507Y-1452338D01*
X57420503Y-1452333D01*
X57322666Y-1354496D01*
X57322661Y-1354492D01*
X57202838Y-1285313D01*
X57202837Y-1285312D01*
X57202836Y-1285312D01*
X57069183Y-1249500D01*
X56930817Y-1249500D01*
X56797164Y-1285312D01*
X56797161Y-1285313D01*
X56677338Y-1354492D01*
X56677333Y-1354496D01*
X56579496Y-1452333D01*
X56579492Y-1452338D01*
X56510313Y-1572161D01*
X56510312Y-1572164D01*
X56474500Y-1705817D01*
X34779804Y-1705817D01*
X34797665Y-1695505D01*
X34895505Y-1597665D01*
X34964688Y-1477836D01*
X35000500Y-1344183D01*
X35000500Y-1205817D01*
X34964688Y-1072164D01*
X34895505Y-952335D01*
X34797665Y-854495D01*
X34797663Y-854494D01*
X34791214Y-849545D01*
X34792642Y-847682D01*
X34752726Y-805817D01*
X34739505Y-737209D01*
X34765475Y-672345D01*
X34822390Y-631819D01*
X34862943Y-625000D01*
X98942236Y-625000D01*
X99009275Y-644685D01*
X99016546Y-649733D01*
X99130836Y-735289D01*
X99144207Y-746875D01*
X99303124Y-905792D01*
X99314706Y-919157D01*
X99400268Y-1033455D01*
X99424684Y-1098917D01*
X99425000Y-1107763D01*
X99425000Y-39485500D01*
X99405315Y-39552539D01*
X99352511Y-39598294D01*
X99313654Y-39606747D01*
X99313877Y-39608439D01*
X99305817Y-39609500D01*
X99172164Y-39645312D01*
X99172161Y-39645313D01*
X99052338Y-39714492D01*
X99052333Y-39714496D01*
X98954496Y-39812333D01*
X98954492Y-39812338D01*
X98885313Y-39932161D01*
X98885312Y-39932164D01*
X98849500Y-40065817D01*
X98849500Y-40204182D01*
X98885312Y-40337835D01*
X98885313Y-40337838D01*
X98954492Y-40457661D01*
X98954494Y-40457664D01*
X98954495Y-40457665D01*
X99052335Y-40555505D01*
X99172164Y-40624688D01*
X99305817Y-40660500D01*
X99305825Y-40660500D01*
X99313877Y-40661561D01*
X99313532Y-40664179D01*
X99368039Y-40680185D01*
X99413794Y-40732989D01*
X99425000Y-40784500D01*
X99425000Y-45401000D01*
X99405315Y-45468039D01*
X99352511Y-45513794D01*
X99301000Y-45525000D01*
X749000Y-45525000D01*
X681961Y-45505315D01*
X636206Y-45452511D01*
X625000Y-45401000D01*
X625000Y-43335817D01*
X5654500Y-43335817D01*
X5654500Y-43474182D01*
X5690312Y-43607835D01*
X5690313Y-43607838D01*
X5759492Y-43727661D01*
X5759494Y-43727664D01*
X5759495Y-43727665D01*
X5857335Y-43825505D01*
X5977164Y-43894688D01*
X6110817Y-43930500D01*
X6110819Y-43930500D01*
X6249181Y-43930500D01*
X6249183Y-43930500D01*
X6382836Y-43894688D01*
X6502665Y-43825505D01*
X6600505Y-43727665D01*
X6669688Y-43607836D01*
X6705500Y-43474183D01*
X6705500Y-43335817D01*
X9464500Y-43335817D01*
X9464500Y-43474182D01*
X9500312Y-43607835D01*
X9500313Y-43607838D01*
X9569492Y-43727661D01*
X9569494Y-43727664D01*
X9569495Y-43727665D01*
X9667335Y-43825505D01*
X9787164Y-43894688D01*
X9920817Y-43930500D01*
X9920819Y-43930500D01*
X10059181Y-43930500D01*
X10059183Y-43930500D01*
X10192836Y-43894688D01*
X10312665Y-43825505D01*
X10410505Y-43727665D01*
X10479688Y-43607836D01*
X10515500Y-43474183D01*
X10515500Y-43335817D01*
X13274500Y-43335817D01*
X13274500Y-43474182D01*
X13310312Y-43607835D01*
X13310313Y-43607838D01*
X13379492Y-43727661D01*
X13379494Y-43727664D01*
X13379495Y-43727665D01*
X13477335Y-43825505D01*
X13597164Y-43894688D01*
X13730817Y-43930500D01*
X13730819Y-43930500D01*
X13869181Y-43930500D01*
X13869183Y-43930500D01*
X14002836Y-43894688D01*
X14122665Y-43825505D01*
X14220505Y-43727665D01*
X14289688Y-43607836D01*
X14325500Y-43474183D01*
X14325500Y-43335817D01*
X17084500Y-43335817D01*
X17084500Y-43474182D01*
X17120312Y-43607835D01*
X17120313Y-43607838D01*
X17189492Y-43727661D01*
X17189494Y-43727664D01*
X17189495Y-43727665D01*
X17287335Y-43825505D01*
X17407164Y-43894688D01*
X17540817Y-43930500D01*
X17540819Y-43930500D01*
X17679181Y-43930500D01*
X17679183Y-43930500D01*
X17812836Y-43894688D01*
X17932665Y-43825505D01*
X18030505Y-43727665D01*
X18099688Y-43607836D01*
X18135500Y-43474183D01*
X18135500Y-43335817D01*
X25154500Y-43335817D01*
X25154500Y-43474182D01*
X25190312Y-43607835D01*
X25190313Y-43607838D01*
X25259492Y-43727661D01*
X25259494Y-43727664D01*
X25259495Y-43727665D01*
X25357335Y-43825505D01*
X25477164Y-43894688D01*
X25610817Y-43930500D01*
X25610819Y-43930500D01*
X25749181Y-43930500D01*
X25749183Y-43930500D01*
X25882836Y-43894688D01*
X26002665Y-43825505D01*
X26100505Y-43727665D01*
X26169688Y-43607836D01*
X26205500Y-43474183D01*
X26205500Y-43335817D01*
X28964500Y-43335817D01*
X28964500Y-43474182D01*
X29000312Y-43607835D01*
X29000313Y-43607838D01*
X29069492Y-43727661D01*
X29069494Y-43727664D01*
X29069495Y-43727665D01*
X29167335Y-43825505D01*
X29287164Y-43894688D01*
X29420817Y-43930500D01*
X29420819Y-43930500D01*
X29559181Y-43930500D01*
X29559183Y-43930500D01*
X29692836Y-43894688D01*
X29812665Y-43825505D01*
X29910505Y-43727665D01*
X29979688Y-43607836D01*
X30015500Y-43474183D01*
X30015500Y-43335817D01*
X32774500Y-43335817D01*
X32774500Y-43474182D01*
X32810312Y-43607835D01*
X32810313Y-43607838D01*
X32879492Y-43727661D01*
X32879494Y-43727664D01*
X32879495Y-43727665D01*
X32977335Y-43825505D01*
X33097164Y-43894688D01*
X33230817Y-43930500D01*
X33230819Y-43930500D01*
X33369181Y-43930500D01*
X33369183Y-43930500D01*
X33502836Y-43894688D01*
X33622665Y-43825505D01*
X33720505Y-43727665D01*
X33789688Y-43607836D01*
X33825500Y-43474183D01*
X33825500Y-43335817D01*
X36584500Y-43335817D01*
X36584500Y-43474182D01*
X36620312Y-43607835D01*
X36620313Y-43607838D01*
X36689492Y-43727661D01*
X36689494Y-43727664D01*
X36689495Y-43727665D01*
X36787335Y-43825505D01*
X36907164Y-43894688D01*
X37040817Y-43930500D01*
X37040819Y-43930500D01*
X37179181Y-43930500D01*
X37179183Y-43930500D01*
X37312836Y-43894688D01*
X37432665Y-43825505D01*
X37530505Y-43727665D01*
X37599688Y-43607836D01*
X37635500Y-43474183D01*
X37635500Y-43335817D01*
X44654500Y-43335817D01*
X44654500Y-43474182D01*
X44690312Y-43607835D01*
X44690313Y-43607838D01*
X44759492Y-43727661D01*
X44759494Y-43727664D01*
X44759495Y-43727665D01*
X44857335Y-43825505D01*
X44977164Y-43894688D01*
X45110817Y-43930500D01*
X45110819Y-43930500D01*
X45249181Y-43930500D01*
X45249183Y-43930500D01*
X45382836Y-43894688D01*
X45502665Y-43825505D01*
X45600505Y-43727665D01*
X45669688Y-43607836D01*
X45705500Y-43474183D01*
X45705500Y-43335817D01*
X48464500Y-43335817D01*
X48464500Y-43474182D01*
X48500312Y-43607835D01*
X48500313Y-43607838D01*
X48569492Y-43727661D01*
X48569494Y-43727664D01*
X48569495Y-43727665D01*
X48667335Y-43825505D01*
X48787164Y-43894688D01*
X48920817Y-43930500D01*
X48920819Y-43930500D01*
X49059181Y-43930500D01*
X49059183Y-43930500D01*
X49192836Y-43894688D01*
X49312665Y-43825505D01*
X49410505Y-43727665D01*
X49479688Y-43607836D01*
X49515500Y-43474183D01*
X49515500Y-43335817D01*
X52274500Y-43335817D01*
X52274500Y-43474182D01*
X52310312Y-43607835D01*
X52310313Y-43607838D01*
X52379492Y-43727661D01*
X52379494Y-43727664D01*
X52379495Y-43727665D01*
X52477335Y-43825505D01*
X52597164Y-43894688D01*
X52730817Y-43930500D01*
X52730819Y-43930500D01*
X52869181Y-43930500D01*
X52869183Y-43930500D01*
X53002836Y-43894688D01*
X53122665Y-43825505D01*
X53220505Y-43727665D01*
X53289688Y-43607836D01*
X53325500Y-43474183D01*
X53325500Y-43335817D01*
X56084500Y-43335817D01*
X56084500Y-43474182D01*
X56120312Y-43607835D01*
X56120313Y-43607838D01*
X56189492Y-43727661D01*
X56189494Y-43727664D01*
X56189495Y-43727665D01*
X56287335Y-43825505D01*
X56407164Y-43894688D01*
X56540817Y-43930500D01*
X56540819Y-43930500D01*
X56679181Y-43930500D01*
X56679183Y-43930500D01*
X56812836Y-43894688D01*
X56932665Y-43825505D01*
X57030505Y-43727665D01*
X57099688Y-43607836D01*
X57135500Y-43474183D01*
X57135500Y-43335817D01*
X64154500Y-43335817D01*
X64154500Y-43474182D01*
X64190312Y-43607835D01*
X64190313Y-43607838D01*
X64259492Y-43727661D01*
X64259494Y-43727664D01*
X64259495Y-43727665D01*
X64357335Y-43825505D01*
X64477164Y-43894688D01*
X64610817Y-43930500D01*
X64610819Y-43930500D01*
X64749181Y-43930500D01*
X64749183Y-43930500D01*
X64882836Y-43894688D01*
X65002665Y-43825505D01*
X65100505Y-43727665D01*
X65169688Y-43607836D01*
X65205500Y-43474183D01*
X65205500Y-43335817D01*
X67964500Y-43335817D01*
X67964500Y-43474182D01*
X68000312Y-43607835D01*
X68000313Y-43607838D01*
X68069492Y-43727661D01*
X68069494Y-43727664D01*
X68069495Y-43727665D01*
X68167335Y-43825505D01*
X68287164Y-43894688D01*
X68420817Y-43930500D01*
X68420819Y-43930500D01*
X68559181Y-43930500D01*
X68559183Y-43930500D01*
X68692836Y-43894688D01*
X68812665Y-43825505D01*
X68910505Y-43727665D01*
X68979688Y-43607836D01*
X69015500Y-43474183D01*
X69015500Y-43335817D01*
X71774500Y-43335817D01*
X71774500Y-43474182D01*
X71810312Y-43607835D01*
X71810313Y-43607838D01*
X71879492Y-43727661D01*
X71879494Y-43727664D01*
X71879495Y-43727665D01*
X71977335Y-43825505D01*
X72097164Y-43894688D01*
X72230817Y-43930500D01*
X72230819Y-43930500D01*
X72369181Y-43930500D01*
X72369183Y-43930500D01*
X72502836Y-43894688D01*
X72622665Y-43825505D01*
X72720505Y-43727665D01*
X72789688Y-43607836D01*
X72825500Y-43474183D01*
X72825500Y-43335817D01*
X75584500Y-43335817D01*
X75584500Y-43474182D01*
X75620312Y-43607835D01*
X75620313Y-43607838D01*
X75689492Y-43727661D01*
X75689494Y-43727664D01*
X75689495Y-43727665D01*
X75787335Y-43825505D01*
X75907164Y-43894688D01*
X76040817Y-43930500D01*
X76040819Y-43930500D01*
X76179181Y-43930500D01*
X76179183Y-43930500D01*
X76312836Y-43894688D01*
X76432665Y-43825505D01*
X76530505Y-43727665D01*
X76599688Y-43607836D01*
X76635500Y-43474183D01*
X76635500Y-43335817D01*
X83654500Y-43335817D01*
X83654500Y-43474182D01*
X83690312Y-43607835D01*
X83690313Y-43607838D01*
X83759492Y-43727661D01*
X83759494Y-43727664D01*
X83759495Y-43727665D01*
X83857335Y-43825505D01*
X83977164Y-43894688D01*
X84110817Y-43930500D01*
X84110819Y-43930500D01*
X84249181Y-43930500D01*
X84249183Y-43930500D01*
X84382836Y-43894688D01*
X84502665Y-43825505D01*
X84600505Y-43727665D01*
X84669688Y-43607836D01*
X84705500Y-43474183D01*
X84705500Y-43335817D01*
X87464500Y-43335817D01*
X87464500Y-43474182D01*
X87500312Y-43607835D01*
X87500313Y-43607838D01*
X87569492Y-43727661D01*
X87569494Y-43727664D01*
X87569495Y-43727665D01*
X87667335Y-43825505D01*
X87787164Y-43894688D01*
X87920817Y-43930500D01*
X87920819Y-43930500D01*
X88059181Y-43930500D01*
X88059183Y-43930500D01*
X88192836Y-43894688D01*
X88312665Y-43825505D01*
X88410505Y-43727665D01*
X88479688Y-43607836D01*
X88515500Y-43474183D01*
X88515500Y-43335817D01*
X91274500Y-43335817D01*
X91274500Y-43474182D01*
X91310312Y-43607835D01*
X91310313Y-43607838D01*
X91379492Y-43727661D01*
X91379494Y-43727664D01*
X91379495Y-43727665D01*
X91477335Y-43825505D01*
X91597164Y-43894688D01*
X91730817Y-43930500D01*
X91730819Y-43930500D01*
X91869181Y-43930500D01*
X91869183Y-43930500D01*
X92002836Y-43894688D01*
X92122665Y-43825505D01*
X92220505Y-43727665D01*
X92289688Y-43607836D01*
X92325500Y-43474183D01*
X92325500Y-43335817D01*
X95084500Y-43335817D01*
X95084500Y-43474182D01*
X95120312Y-43607835D01*
X95120313Y-43607838D01*
X95189492Y-43727661D01*
X95189494Y-43727664D01*
X95189495Y-43727665D01*
X95287335Y-43825505D01*
X95407164Y-43894688D01*
X95540817Y-43930500D01*
X95540819Y-43930500D01*
X95679181Y-43930500D01*
X95679183Y-43930500D01*
X95812836Y-43894688D01*
X95932665Y-43825505D01*
X96030505Y-43727665D01*
X96099688Y-43607836D01*
X96135500Y-43474183D01*
X96135500Y-43335817D01*
X96099688Y-43202164D01*
X96030505Y-43082335D01*
X95932665Y-42984495D01*
X95932664Y-42984494D01*
X95932661Y-42984492D01*
X95812838Y-42915313D01*
X95812837Y-42915312D01*
X95812836Y-42915312D01*
X95679183Y-42879500D01*
X95540817Y-42879500D01*
X95407164Y-42915312D01*
X95407161Y-42915313D01*
X95287338Y-42984492D01*
X95287333Y-42984496D01*
X95189496Y-43082333D01*
X95189492Y-43082338D01*
X95120313Y-43202161D01*
X95120312Y-43202164D01*
X95084500Y-43335817D01*
X92325500Y-43335817D01*
X92289688Y-43202164D01*
X92220505Y-43082335D01*
X92122665Y-42984495D01*
X92122664Y-42984494D01*
X92122661Y-42984492D01*
X92002838Y-42915313D01*
X92002837Y-42915312D01*
X92002836Y-42915312D01*
X91869183Y-42879500D01*
X91730817Y-42879500D01*
X91597164Y-42915312D01*
X91597161Y-42915313D01*
X91477338Y-42984492D01*
X91477333Y-42984496D01*
X91379496Y-43082333D01*
X91379492Y-43082338D01*
X91310313Y-43202161D01*
X91310312Y-43202164D01*
X91274500Y-43335817D01*
X88515500Y-43335817D01*
X88479688Y-43202164D01*
X88410505Y-43082335D01*
X88312665Y-42984495D01*
X88312664Y-42984494D01*
X88312661Y-42984492D01*
X88192838Y-42915313D01*
X88192837Y-42915312D01*
X88192836Y-42915312D01*
X88059183Y-42879500D01*
X87920817Y-42879500D01*
X87787164Y-42915312D01*
X87787161Y-42915313D01*
X87667338Y-42984492D01*
X87667333Y-42984496D01*
X87569496Y-43082333D01*
X87569492Y-43082338D01*
X87500313Y-43202161D01*
X87500312Y-43202164D01*
X87464500Y-43335817D01*
X84705500Y-43335817D01*
X84669688Y-43202164D01*
X84600505Y-43082335D01*
X84502665Y-42984495D01*
X84502664Y-42984494D01*
X84502661Y-42984492D01*
X84382838Y-42915313D01*
X84382837Y-42915312D01*
X84382836Y-42915312D01*
X84249183Y-42879500D01*
X84110817Y-42879500D01*
X83977164Y-42915312D01*
X83977161Y-42915313D01*
X83857338Y-42984492D01*
X83857333Y-42984496D01*
X83759496Y-43082333D01*
X83759492Y-43082338D01*
X83690313Y-43202161D01*
X83690312Y-43202164D01*
X83654500Y-43335817D01*
X76635500Y-43335817D01*
X76599688Y-43202164D01*
X76530505Y-43082335D01*
X76432665Y-42984495D01*
X76432664Y-42984494D01*
X76432661Y-42984492D01*
X76312838Y-42915313D01*
X76312837Y-42915312D01*
X76312836Y-42915312D01*
X76179183Y-42879500D01*
X76040817Y-42879500D01*
X75907164Y-42915312D01*
X75907161Y-42915313D01*
X75787338Y-42984492D01*
X75787333Y-42984496D01*
X75689496Y-43082333D01*
X75689492Y-43082338D01*
X75620313Y-43202161D01*
X75620312Y-43202164D01*
X75584500Y-43335817D01*
X72825500Y-43335817D01*
X72789688Y-43202164D01*
X72720505Y-43082335D01*
X72622665Y-42984495D01*
X72622664Y-42984494D01*
X72622661Y-42984492D01*
X72502838Y-42915313D01*
X72502837Y-42915312D01*
X72502836Y-42915312D01*
X72369183Y-42879500D01*
X72230817Y-42879500D01*
X72097164Y-42915312D01*
X72097161Y-42915313D01*
X71977338Y-42984492D01*
X71977333Y-42984496D01*
X71879496Y-43082333D01*
X71879492Y-43082338D01*
X71810313Y-43202161D01*
X71810312Y-43202164D01*
X71774500Y-43335817D01*
X69015500Y-43335817D01*
X68979688Y-43202164D01*
X68910505Y-43082335D01*
X68812665Y-42984495D01*
X68812664Y-42984494D01*
X68812661Y-42984492D01*
X68692838Y-42915313D01*
X68692837Y-42915312D01*
X68692836Y-42915312D01*
X68559183Y-42879500D01*
X68420817Y-42879500D01*
X68287164Y-42915312D01*
X68287161Y-42915313D01*
X68167338Y-42984492D01*
X68167333Y-42984496D01*
X68069496Y-43082333D01*
X68069492Y-43082338D01*
X68000313Y-43202161D01*
X68000312Y-43202164D01*
X67964500Y-43335817D01*
X65205500Y-43335817D01*
X65169688Y-43202164D01*
X65100505Y-43082335D01*
X65002665Y-42984495D01*
X65002664Y-42984494D01*
X65002661Y-42984492D01*
X64882838Y-42915313D01*
X64882837Y-42915312D01*
X64882836Y-42915312D01*
X64749183Y-42879500D01*
X64610817Y-42879500D01*
X64477164Y-42915312D01*
X64477161Y-42915313D01*
X64357338Y-42984492D01*
X64357333Y-42984496D01*
X64259496Y-43082333D01*
X64259492Y-43082338D01*
X64190313Y-43202161D01*
X64190312Y-43202164D01*
X64154500Y-43335817D01*
X57135500Y-43335817D01*
X57099688Y-43202164D01*
X57030505Y-43082335D01*
X56932665Y-42984495D01*
X56932664Y-42984494D01*
X56932661Y-42984492D01*
X56812838Y-42915313D01*
X56812837Y-42915312D01*
X56812836Y-42915312D01*
X56679183Y-42879500D01*
X56540817Y-42879500D01*
X56407164Y-42915312D01*
X56407161Y-42915313D01*
X56287338Y-42984492D01*
X56287333Y-42984496D01*
X56189496Y-43082333D01*
X56189492Y-43082338D01*
X56120313Y-43202161D01*
X56120312Y-43202164D01*
X56084500Y-43335817D01*
X53325500Y-43335817D01*
X53289688Y-43202164D01*
X53220505Y-43082335D01*
X53122665Y-42984495D01*
X53122664Y-42984494D01*
X53122661Y-42984492D01*
X53002838Y-42915313D01*
X53002837Y-42915312D01*
X53002836Y-42915312D01*
X52869183Y-42879500D01*
X52730817Y-42879500D01*
X52597164Y-42915312D01*
X52597161Y-42915313D01*
X52477338Y-42984492D01*
X52477333Y-42984496D01*
X52379496Y-43082333D01*
X52379492Y-43082338D01*
X52310313Y-43202161D01*
X52310312Y-43202164D01*
X52274500Y-43335817D01*
X49515500Y-43335817D01*
X49479688Y-43202164D01*
X49410505Y-43082335D01*
X49312665Y-42984495D01*
X49312664Y-42984494D01*
X49312661Y-42984492D01*
X49192838Y-42915313D01*
X49192837Y-42915312D01*
X49192836Y-42915312D01*
X49059183Y-42879500D01*
X48920817Y-42879500D01*
X48787164Y-42915312D01*
X48787161Y-42915313D01*
X48667338Y-42984492D01*
X48667333Y-42984496D01*
X48569496Y-43082333D01*
X48569492Y-43082338D01*
X48500313Y-43202161D01*
X48500312Y-43202164D01*
X48464500Y-43335817D01*
X45705500Y-43335817D01*
X45669688Y-43202164D01*
X45600505Y-43082335D01*
X45502665Y-42984495D01*
X45502664Y-42984494D01*
X45502661Y-42984492D01*
X45382838Y-42915313D01*
X45382837Y-42915312D01*
X45382836Y-42915312D01*
X45249183Y-42879500D01*
X45110817Y-42879500D01*
X44977164Y-42915312D01*
X44977161Y-42915313D01*
X44857338Y-42984492D01*
X44857333Y-42984496D01*
X44759496Y-43082333D01*
X44759492Y-43082338D01*
X44690313Y-43202161D01*
X44690312Y-43202164D01*
X44654500Y-43335817D01*
X37635500Y-43335817D01*
X37599688Y-43202164D01*
X37530505Y-43082335D01*
X37432665Y-42984495D01*
X37432664Y-42984494D01*
X37432661Y-42984492D01*
X37312838Y-42915313D01*
X37312837Y-42915312D01*
X37312836Y-42915312D01*
X37179183Y-42879500D01*
X37040817Y-42879500D01*
X36907164Y-42915312D01*
X36907161Y-42915313D01*
X36787338Y-42984492D01*
X36787333Y-42984496D01*
X36689496Y-43082333D01*
X36689492Y-43082338D01*
X36620313Y-43202161D01*
X36620312Y-43202164D01*
X36584500Y-43335817D01*
X33825500Y-43335817D01*
X33789688Y-43202164D01*
X33720505Y-43082335D01*
X33622665Y-42984495D01*
X33622664Y-42984494D01*
X33622661Y-42984492D01*
X33502838Y-42915313D01*
X33502837Y-42915312D01*
X33502836Y-42915312D01*
X33369183Y-42879500D01*
X33230817Y-42879500D01*
X33097164Y-42915312D01*
X33097161Y-42915313D01*
X32977338Y-42984492D01*
X32977333Y-42984496D01*
X32879496Y-43082333D01*
X32879492Y-43082338D01*
X32810313Y-43202161D01*
X32810312Y-43202164D01*
X32774500Y-43335817D01*
X30015500Y-43335817D01*
X29979688Y-43202164D01*
X29910505Y-43082335D01*
X29812665Y-42984495D01*
X29812664Y-42984494D01*
X29812661Y-42984492D01*
X29692838Y-42915313D01*
X29692837Y-42915312D01*
X29692836Y-42915312D01*
X29559183Y-42879500D01*
X29420817Y-42879500D01*
X29287164Y-42915312D01*
X29287161Y-42915313D01*
X29167338Y-42984492D01*
X29167333Y-42984496D01*
X29069496Y-43082333D01*
X29069492Y-43082338D01*
X29000313Y-43202161D01*
X29000312Y-43202164D01*
X28964500Y-43335817D01*
X26205500Y-43335817D01*
X26169688Y-43202164D01*
X26100505Y-43082335D01*
X26002665Y-42984495D01*
X26002664Y-42984494D01*
X26002661Y-42984492D01*
X25882838Y-42915313D01*
X25882837Y-42915312D01*
X25882836Y-42915312D01*
X25749183Y-42879500D01*
X25610817Y-42879500D01*
X25477164Y-42915312D01*
X25477161Y-42915313D01*
X25357338Y-42984492D01*
X25357333Y-42984496D01*
X25259496Y-43082333D01*
X25259492Y-43082338D01*
X25190313Y-43202161D01*
X25190312Y-43202164D01*
X25154500Y-43335817D01*
X18135500Y-43335817D01*
X18099688Y-43202164D01*
X18030505Y-43082335D01*
X17932665Y-42984495D01*
X17932664Y-42984494D01*
X17932661Y-42984492D01*
X17812838Y-42915313D01*
X17812837Y-42915312D01*
X17812836Y-42915312D01*
X17679183Y-42879500D01*
X17540817Y-42879500D01*
X17407164Y-42915312D01*
X17407161Y-42915313D01*
X17287338Y-42984492D01*
X17287333Y-42984496D01*
X17189496Y-43082333D01*
X17189492Y-43082338D01*
X17120313Y-43202161D01*
X17120312Y-43202164D01*
X17084500Y-43335817D01*
X14325500Y-43335817D01*
X14289688Y-43202164D01*
X14220505Y-43082335D01*
X14122665Y-42984495D01*
X14122664Y-42984494D01*
X14122661Y-42984492D01*
X14002838Y-42915313D01*
X14002837Y-42915312D01*
X14002836Y-42915312D01*
X13869183Y-42879500D01*
X13730817Y-42879500D01*
X13597164Y-42915312D01*
X13597161Y-42915313D01*
X13477338Y-42984492D01*
X13477333Y-42984496D01*
X13379496Y-43082333D01*
X13379492Y-43082338D01*
X13310313Y-43202161D01*
X13310312Y-43202164D01*
X13274500Y-43335817D01*
X10515500Y-43335817D01*
X10479688Y-43202164D01*
X10410505Y-43082335D01*
X10312665Y-42984495D01*
X10312664Y-42984494D01*
X10312661Y-42984492D01*
X10192838Y-42915313D01*
X10192837Y-42915312D01*
X10192836Y-42915312D01*
X10059183Y-42879500D01*
X9920817Y-42879500D01*
X9787164Y-42915312D01*
X9787161Y-42915313D01*
X9667338Y-42984492D01*
X9667333Y-42984496D01*
X9569496Y-43082333D01*
X9569492Y-43082338D01*
X9500313Y-43202161D01*
X9500312Y-43202164D01*
X9464500Y-43335817D01*
X6705500Y-43335817D01*
X6669688Y-43202164D01*
X6600505Y-43082335D01*
X6502665Y-42984495D01*
X6502664Y-42984494D01*
X6502661Y-42984492D01*
X6382838Y-42915313D01*
X6382837Y-42915312D01*
X6382836Y-42915312D01*
X6249183Y-42879500D01*
X6110817Y-42879500D01*
X5977164Y-42915312D01*
X5977161Y-42915313D01*
X5857338Y-42984492D01*
X5857333Y-42984496D01*
X5759496Y-43082333D01*
X5759492Y-43082338D01*
X5690313Y-43202161D01*
X5690312Y-43202164D01*
X5654500Y-43335817D01*
X625000Y-43335817D01*
X625000Y-40065817D01*
X19249500Y-40065817D01*
X19249500Y-40204182D01*
X19285312Y-40337835D01*
X19285313Y-40337838D01*
X19354492Y-40457661D01*
X19354494Y-40457664D01*
X19354495Y-40457665D01*
X19452335Y-40555505D01*
X19572164Y-40624688D01*
X19705817Y-40660500D01*
X19705819Y-40660500D01*
X19844181Y-40660500D01*
X19844183Y-40660500D01*
X19977836Y-40624688D01*
X20097665Y-40555505D01*
X20195505Y-40457665D01*
X20264688Y-40337836D01*
X20300500Y-40204183D01*
X20300500Y-40065817D01*
X20849500Y-40065817D01*
X20849500Y-40204182D01*
X20885312Y-40337835D01*
X20885313Y-40337838D01*
X20954492Y-40457661D01*
X20954494Y-40457664D01*
X20954495Y-40457665D01*
X21052335Y-40555505D01*
X21172164Y-40624688D01*
X21305817Y-40660500D01*
X21305819Y-40660500D01*
X21444181Y-40660500D01*
X21444183Y-40660500D01*
X21577836Y-40624688D01*
X21697665Y-40555505D01*
X21795505Y-40457665D01*
X21864688Y-40337836D01*
X21900500Y-40204183D01*
X21900500Y-40065817D01*
X40349500Y-40065817D01*
X40349500Y-40204182D01*
X40385312Y-40337835D01*
X40385313Y-40337838D01*
X40454492Y-40457661D01*
X40454494Y-40457664D01*
X40454495Y-40457665D01*
X40552335Y-40555505D01*
X40672164Y-40624688D01*
X40805817Y-40660500D01*
X40805819Y-40660500D01*
X40944181Y-40660500D01*
X40944183Y-40660500D01*
X41077836Y-40624688D01*
X41197665Y-40555505D01*
X41295505Y-40457665D01*
X41364688Y-40337836D01*
X41400500Y-40204183D01*
X41400500Y-40065817D01*
X58249500Y-40065817D01*
X58249500Y-40204182D01*
X58285312Y-40337835D01*
X58285313Y-40337838D01*
X58354492Y-40457661D01*
X58354494Y-40457664D01*
X58354495Y-40457665D01*
X58452335Y-40555505D01*
X58572164Y-40624688D01*
X58705817Y-40660500D01*
X58705819Y-40660500D01*
X58844181Y-40660500D01*
X58844183Y-40660500D01*
X58977836Y-40624688D01*
X59097665Y-40555505D01*
X59195505Y-40457665D01*
X59264688Y-40337836D01*
X59300500Y-40204183D01*
X59300500Y-40065817D01*
X59849500Y-40065817D01*
X59849500Y-40204182D01*
X59885312Y-40337835D01*
X59885313Y-40337838D01*
X59954492Y-40457661D01*
X59954494Y-40457664D01*
X59954495Y-40457665D01*
X60052335Y-40555505D01*
X60172164Y-40624688D01*
X60305817Y-40660500D01*
X60305819Y-40660500D01*
X60444181Y-40660500D01*
X60444183Y-40660500D01*
X60577836Y-40624688D01*
X60697665Y-40555505D01*
X60795505Y-40457665D01*
X60864688Y-40337836D01*
X60900500Y-40204183D01*
X60900500Y-40065817D01*
X79349500Y-40065817D01*
X79349500Y-40204182D01*
X79385312Y-40337835D01*
X79385313Y-40337838D01*
X79454492Y-40457661D01*
X79454494Y-40457664D01*
X79454495Y-40457665D01*
X79552335Y-40555505D01*
X79672164Y-40624688D01*
X79805817Y-40660500D01*
X79805819Y-40660500D01*
X79944181Y-40660500D01*
X79944183Y-40660500D01*
X80077836Y-40624688D01*
X80197665Y-40555505D01*
X80295505Y-40457665D01*
X80364688Y-40337836D01*
X80400500Y-40204183D01*
X80400500Y-40065817D01*
X97249500Y-40065817D01*
X97249500Y-40204182D01*
X97285312Y-40337835D01*
X97285313Y-40337838D01*
X97354492Y-40457661D01*
X97354494Y-40457664D01*
X97354495Y-40457665D01*
X97452335Y-40555505D01*
X97572164Y-40624688D01*
X97705817Y-40660500D01*
X97705819Y-40660500D01*
X97844181Y-40660500D01*
X97844183Y-40660500D01*
X97977836Y-40624688D01*
X98097665Y-40555505D01*
X98195505Y-40457665D01*
X98264688Y-40337836D01*
X98300500Y-40204183D01*
X98300500Y-40065817D01*
X98264688Y-39932164D01*
X98195505Y-39812335D01*
X98097665Y-39714495D01*
X98097664Y-39714494D01*
X98097661Y-39714492D01*
X97977838Y-39645313D01*
X97977837Y-39645312D01*
X97977836Y-39645312D01*
X97844183Y-39609500D01*
X97705817Y-39609500D01*
X97572164Y-39645312D01*
X97572161Y-39645313D01*
X97452338Y-39714492D01*
X97452333Y-39714496D01*
X97354496Y-39812333D01*
X97354492Y-39812338D01*
X97285313Y-39932161D01*
X97285312Y-39932164D01*
X97249500Y-40065817D01*
X80400500Y-40065817D01*
X80364688Y-39932164D01*
X80295505Y-39812335D01*
X80197665Y-39714495D01*
X80197664Y-39714494D01*
X80197661Y-39714492D01*
X80077838Y-39645313D01*
X80077837Y-39645312D01*
X80077836Y-39645312D01*
X79944183Y-39609500D01*
X79805817Y-39609500D01*
X79672164Y-39645312D01*
X79672161Y-39645313D01*
X79552338Y-39714492D01*
X79552333Y-39714496D01*
X79454496Y-39812333D01*
X79454492Y-39812338D01*
X79385313Y-39932161D01*
X79385312Y-39932164D01*
X79349500Y-40065817D01*
X60900500Y-40065817D01*
X60864688Y-39932164D01*
X60795505Y-39812335D01*
X60697665Y-39714495D01*
X60697664Y-39714494D01*
X60697661Y-39714492D01*
X60577838Y-39645313D01*
X60577837Y-39645312D01*
X60577836Y-39645312D01*
X60444183Y-39609500D01*
X60305817Y-39609500D01*
X60172164Y-39645312D01*
X60172161Y-39645313D01*
X60052338Y-39714492D01*
X60052333Y-39714496D01*
X59954496Y-39812333D01*
X59954492Y-39812338D01*
X59885313Y-39932161D01*
X59885312Y-39932164D01*
X59849500Y-40065817D01*
X59300500Y-40065817D01*
X59264688Y-39932164D01*
X59195505Y-39812335D01*
X59097665Y-39714495D01*
X59097664Y-39714494D01*
X59097661Y-39714492D01*
X58977838Y-39645313D01*
X58977837Y-39645312D01*
X58977836Y-39645312D01*
X58844183Y-39609500D01*
X58705817Y-39609500D01*
X58572164Y-39645312D01*
X58572161Y-39645313D01*
X58452338Y-39714492D01*
X58452333Y-39714496D01*
X58354496Y-39812333D01*
X58354492Y-39812338D01*
X58285313Y-39932161D01*
X58285312Y-39932164D01*
X58249500Y-40065817D01*
X41400500Y-40065817D01*
X41364688Y-39932164D01*
X41295505Y-39812335D01*
X41197665Y-39714495D01*
X41197664Y-39714494D01*
X41197661Y-39714492D01*
X41077838Y-39645313D01*
X41077837Y-39645312D01*
X41077836Y-39645312D01*
X40944183Y-39609500D01*
X40805817Y-39609500D01*
X40672164Y-39645312D01*
X40672161Y-39645313D01*
X40552338Y-39714492D01*
X40552333Y-39714496D01*
X40454496Y-39812333D01*
X40454492Y-39812338D01*
X40385313Y-39932161D01*
X40385312Y-39932164D01*
X40349500Y-40065817D01*
X21900500Y-40065817D01*
X21864688Y-39932164D01*
X21795505Y-39812335D01*
X21697665Y-39714495D01*
X21697664Y-39714494D01*
X21697661Y-39714492D01*
X21577838Y-39645313D01*
X21577837Y-39645312D01*
X21577836Y-39645312D01*
X21444183Y-39609500D01*
X21305817Y-39609500D01*
X21172164Y-39645312D01*
X21172161Y-39645313D01*
X21052338Y-39714492D01*
X21052333Y-39714496D01*
X20954496Y-39812333D01*
X20954492Y-39812338D01*
X20885313Y-39932161D01*
X20885312Y-39932164D01*
X20849500Y-40065817D01*
X20300500Y-40065817D01*
X20264688Y-39932164D01*
X20195505Y-39812335D01*
X20097665Y-39714495D01*
X20097664Y-39714494D01*
X20097661Y-39714492D01*
X19977838Y-39645313D01*
X19977837Y-39645312D01*
X19977836Y-39645312D01*
X19844183Y-39609500D01*
X19705817Y-39609500D01*
X19572164Y-39645312D01*
X19572161Y-39645313D01*
X19452338Y-39714492D01*
X19452333Y-39714496D01*
X19354496Y-39812333D01*
X19354492Y-39812338D01*
X19285313Y-39932161D01*
X19285312Y-39932164D01*
X19249500Y-40065817D01*
X625000Y-40065817D01*
X625000Y-39055817D01*
X36899500Y-39055817D01*
X36899500Y-39194182D01*
X36935312Y-39327835D01*
X36935313Y-39327838D01*
X37004492Y-39447661D01*
X37004494Y-39447664D01*
X37004495Y-39447665D01*
X37102335Y-39545505D01*
X37222164Y-39614688D01*
X37355817Y-39650500D01*
X37355819Y-39650500D01*
X37494181Y-39650500D01*
X37494183Y-39650500D01*
X37627836Y-39614688D01*
X37747665Y-39545505D01*
X37845505Y-39447665D01*
X37914688Y-39327836D01*
X37950500Y-39194183D01*
X37950500Y-39055817D01*
X56399500Y-39055817D01*
X56399500Y-39194182D01*
X56435312Y-39327835D01*
X56435313Y-39327838D01*
X56504492Y-39447661D01*
X56504494Y-39447664D01*
X56504495Y-39447665D01*
X56602335Y-39545505D01*
X56722164Y-39614688D01*
X56855817Y-39650500D01*
X56855819Y-39650500D01*
X56994181Y-39650500D01*
X56994183Y-39650500D01*
X57127836Y-39614688D01*
X57247665Y-39545505D01*
X57345505Y-39447665D01*
X57414688Y-39327836D01*
X57450500Y-39194183D01*
X57450500Y-39194169D01*
X57450871Y-39191358D01*
X57451849Y-39189146D01*
X57452603Y-39186333D01*
X57453041Y-39186450D01*
X57479134Y-39127460D01*
X57537457Y-39088986D01*
X57541675Y-39087774D01*
X57627836Y-39064688D01*
X57643201Y-39055817D01*
X95399500Y-39055817D01*
X95399500Y-39194182D01*
X95435312Y-39327835D01*
X95435313Y-39327838D01*
X95504492Y-39447661D01*
X95504494Y-39447664D01*
X95504495Y-39447665D01*
X95602335Y-39545505D01*
X95722164Y-39614688D01*
X95855817Y-39650500D01*
X95855819Y-39650500D01*
X95994181Y-39650500D01*
X95994183Y-39650500D01*
X96127836Y-39614688D01*
X96247665Y-39545505D01*
X96345505Y-39447665D01*
X96414688Y-39327836D01*
X96450500Y-39194183D01*
X96450500Y-39194169D01*
X96450871Y-39191358D01*
X96451849Y-39189146D01*
X96452603Y-39186333D01*
X96453041Y-39186450D01*
X96479134Y-39127460D01*
X96537457Y-39088986D01*
X96541675Y-39087774D01*
X96627836Y-39064688D01*
X96747665Y-38995505D01*
X96845505Y-38897665D01*
X96914688Y-38777836D01*
X96950500Y-38644183D01*
X96950500Y-38505817D01*
X96914688Y-38372164D01*
X96845505Y-38252335D01*
X96747665Y-38154495D01*
X96747664Y-38154494D01*
X96747661Y-38154492D01*
X96627838Y-38085313D01*
X96627837Y-38085312D01*
X96627836Y-38085312D01*
X96494183Y-38049500D01*
X96355817Y-38049500D01*
X96222164Y-38085312D01*
X96222161Y-38085313D01*
X96102338Y-38154492D01*
X96102333Y-38154496D01*
X96004496Y-38252333D01*
X96004492Y-38252338D01*
X95935313Y-38372161D01*
X95935312Y-38372164D01*
X95899498Y-38505822D01*
X95899126Y-38508654D01*
X95898147Y-38510864D01*
X95897397Y-38513667D01*
X95896959Y-38513549D01*
X95870856Y-38572549D01*
X95812530Y-38611017D01*
X95808282Y-38612237D01*
X95722162Y-38635312D01*
X95722161Y-38635313D01*
X95602338Y-38704492D01*
X95602333Y-38704496D01*
X95504496Y-38802333D01*
X95504492Y-38802338D01*
X95435313Y-38922161D01*
X95435312Y-38922164D01*
X95399500Y-39055817D01*
X57643201Y-39055817D01*
X57747665Y-38995505D01*
X57845505Y-38897665D01*
X57914688Y-38777836D01*
X57950500Y-38644183D01*
X57950500Y-38505817D01*
X57914688Y-38372164D01*
X57845505Y-38252335D01*
X57747665Y-38154495D01*
X57747663Y-38154494D01*
X57747657Y-38154489D01*
X57627842Y-38085315D01*
X57627838Y-38085313D01*
X57627836Y-38085312D01*
X57517759Y-38055817D01*
X63554500Y-38055817D01*
X63554500Y-38194183D01*
X63570083Y-38252338D01*
X63590312Y-38327835D01*
X63590313Y-38327838D01*
X63659492Y-38447661D01*
X63659494Y-38447664D01*
X63659495Y-38447665D01*
X63757335Y-38545505D01*
X63877164Y-38614688D01*
X64010817Y-38650500D01*
X64010819Y-38650500D01*
X64149181Y-38650500D01*
X64149183Y-38650500D01*
X64282836Y-38614688D01*
X64402665Y-38545505D01*
X64500505Y-38447665D01*
X64569688Y-38327836D01*
X64605500Y-38194183D01*
X64605500Y-38055817D01*
X67364500Y-38055817D01*
X67364500Y-38194183D01*
X67380083Y-38252338D01*
X67400312Y-38327835D01*
X67400313Y-38327838D01*
X67469492Y-38447661D01*
X67469494Y-38447664D01*
X67469495Y-38447665D01*
X67567335Y-38545505D01*
X67687164Y-38614688D01*
X67820817Y-38650500D01*
X67820819Y-38650500D01*
X67959181Y-38650500D01*
X67959183Y-38650500D01*
X68092836Y-38614688D01*
X68212665Y-38545505D01*
X68310505Y-38447665D01*
X68379688Y-38327836D01*
X68415500Y-38194183D01*
X68415500Y-38055817D01*
X71174500Y-38055817D01*
X71174500Y-38194183D01*
X71190083Y-38252338D01*
X71210312Y-38327835D01*
X71210313Y-38327838D01*
X71279492Y-38447661D01*
X71279494Y-38447664D01*
X71279495Y-38447665D01*
X71377335Y-38545505D01*
X71497164Y-38614688D01*
X71630817Y-38650500D01*
X71630819Y-38650500D01*
X71769181Y-38650500D01*
X71769183Y-38650500D01*
X71902836Y-38614688D01*
X72022665Y-38545505D01*
X72120505Y-38447665D01*
X72189688Y-38327836D01*
X72225500Y-38194183D01*
X72225500Y-38055817D01*
X74984500Y-38055817D01*
X74984500Y-38194183D01*
X75000083Y-38252338D01*
X75020312Y-38327835D01*
X75020313Y-38327838D01*
X75089492Y-38447661D01*
X75089494Y-38447664D01*
X75089495Y-38447665D01*
X75187335Y-38545505D01*
X75307164Y-38614688D01*
X75440817Y-38650500D01*
X75440819Y-38650500D01*
X75579181Y-38650500D01*
X75579183Y-38650500D01*
X75712836Y-38614688D01*
X75832665Y-38545505D01*
X75930505Y-38447665D01*
X75999688Y-38327836D01*
X76035500Y-38194183D01*
X76035500Y-38055817D01*
X83054500Y-38055817D01*
X83054500Y-38194183D01*
X83070083Y-38252338D01*
X83090312Y-38327835D01*
X83090313Y-38327838D01*
X83159492Y-38447661D01*
X83159494Y-38447664D01*
X83159495Y-38447665D01*
X83257335Y-38545505D01*
X83377164Y-38614688D01*
X83510817Y-38650500D01*
X83510819Y-38650500D01*
X83649181Y-38650500D01*
X83649183Y-38650500D01*
X83782836Y-38614688D01*
X83902665Y-38545505D01*
X84000505Y-38447665D01*
X84069688Y-38327836D01*
X84105500Y-38194183D01*
X84105500Y-38055817D01*
X86864500Y-38055817D01*
X86864500Y-38194183D01*
X86880083Y-38252338D01*
X86900312Y-38327835D01*
X86900313Y-38327838D01*
X86969492Y-38447661D01*
X86969494Y-38447664D01*
X86969495Y-38447665D01*
X87067335Y-38545505D01*
X87187164Y-38614688D01*
X87320817Y-38650500D01*
X87320819Y-38650500D01*
X87459181Y-38650500D01*
X87459183Y-38650500D01*
X87592836Y-38614688D01*
X87712665Y-38545505D01*
X87810505Y-38447665D01*
X87879688Y-38327836D01*
X87915500Y-38194183D01*
X87915500Y-38055817D01*
X90674500Y-38055817D01*
X90674500Y-38194183D01*
X90690083Y-38252338D01*
X90710312Y-38327835D01*
X90710313Y-38327838D01*
X90779492Y-38447661D01*
X90779494Y-38447664D01*
X90779495Y-38447665D01*
X90877335Y-38545505D01*
X90997164Y-38614688D01*
X91130817Y-38650500D01*
X91130819Y-38650500D01*
X91269181Y-38650500D01*
X91269183Y-38650500D01*
X91402836Y-38614688D01*
X91522665Y-38545505D01*
X91620505Y-38447665D01*
X91689688Y-38327836D01*
X91725500Y-38194183D01*
X91725500Y-38055817D01*
X94484500Y-38055817D01*
X94484500Y-38194183D01*
X94500083Y-38252338D01*
X94520312Y-38327835D01*
X94520313Y-38327838D01*
X94589492Y-38447661D01*
X94589494Y-38447664D01*
X94589495Y-38447665D01*
X94687335Y-38545505D01*
X94807164Y-38614688D01*
X94940817Y-38650500D01*
X94940819Y-38650500D01*
X95079181Y-38650500D01*
X95079183Y-38650500D01*
X95212836Y-38614688D01*
X95332665Y-38545505D01*
X95430505Y-38447665D01*
X95499688Y-38327836D01*
X95535500Y-38194183D01*
X95535500Y-38055817D01*
X95499688Y-37922164D01*
X95430505Y-37802335D01*
X95332665Y-37704495D01*
X95332664Y-37704494D01*
X95332661Y-37704492D01*
X95212838Y-37635313D01*
X95212837Y-37635312D01*
X95212836Y-37635312D01*
X95079183Y-37599500D01*
X94940817Y-37599500D01*
X94807164Y-37635312D01*
X94807161Y-37635313D01*
X94687338Y-37704492D01*
X94687333Y-37704496D01*
X94589496Y-37802333D01*
X94589492Y-37802338D01*
X94520313Y-37922161D01*
X94520312Y-37922164D01*
X94484500Y-38055817D01*
X91725500Y-38055817D01*
X91689688Y-37922164D01*
X91620505Y-37802335D01*
X91522665Y-37704495D01*
X91522664Y-37704494D01*
X91522661Y-37704492D01*
X91402838Y-37635313D01*
X91402837Y-37635312D01*
X91402836Y-37635312D01*
X91269183Y-37599500D01*
X91130817Y-37599500D01*
X90997164Y-37635312D01*
X90997161Y-37635313D01*
X90877338Y-37704492D01*
X90877333Y-37704496D01*
X90779496Y-37802333D01*
X90779492Y-37802338D01*
X90710313Y-37922161D01*
X90710312Y-37922164D01*
X90674500Y-38055817D01*
X87915500Y-38055817D01*
X87879688Y-37922164D01*
X87810505Y-37802335D01*
X87712665Y-37704495D01*
X87712664Y-37704494D01*
X87712661Y-37704492D01*
X87592838Y-37635313D01*
X87592837Y-37635312D01*
X87592836Y-37635312D01*
X87459183Y-37599500D01*
X87320817Y-37599500D01*
X87187164Y-37635312D01*
X87187161Y-37635313D01*
X87067338Y-37704492D01*
X87067333Y-37704496D01*
X86969496Y-37802333D01*
X86969492Y-37802338D01*
X86900313Y-37922161D01*
X86900312Y-37922164D01*
X86864500Y-38055817D01*
X84105500Y-38055817D01*
X84069688Y-37922164D01*
X84000505Y-37802335D01*
X83902665Y-37704495D01*
X83902664Y-37704494D01*
X83902661Y-37704492D01*
X83782838Y-37635313D01*
X83782837Y-37635312D01*
X83782836Y-37635312D01*
X83649183Y-37599500D01*
X83510817Y-37599500D01*
X83377164Y-37635312D01*
X83377161Y-37635313D01*
X83257338Y-37704492D01*
X83257333Y-37704496D01*
X83159496Y-37802333D01*
X83159492Y-37802338D01*
X83090313Y-37922161D01*
X83090312Y-37922164D01*
X83054500Y-38055817D01*
X76035500Y-38055817D01*
X75999688Y-37922164D01*
X75930505Y-37802335D01*
X75832665Y-37704495D01*
X75832664Y-37704494D01*
X75832661Y-37704492D01*
X75712838Y-37635313D01*
X75712837Y-37635312D01*
X75712836Y-37635312D01*
X75579183Y-37599500D01*
X75440817Y-37599500D01*
X75307164Y-37635312D01*
X75307161Y-37635313D01*
X75187338Y-37704492D01*
X75187333Y-37704496D01*
X75089496Y-37802333D01*
X75089492Y-37802338D01*
X75020313Y-37922161D01*
X75020312Y-37922164D01*
X74984500Y-38055817D01*
X72225500Y-38055817D01*
X72189688Y-37922164D01*
X72120505Y-37802335D01*
X72022665Y-37704495D01*
X72022664Y-37704494D01*
X72022661Y-37704492D01*
X71902838Y-37635313D01*
X71902837Y-37635312D01*
X71902836Y-37635312D01*
X71769183Y-37599500D01*
X71630817Y-37599500D01*
X71497164Y-37635312D01*
X71497161Y-37635313D01*
X71377338Y-37704492D01*
X71377333Y-37704496D01*
X71279496Y-37802333D01*
X71279492Y-37802338D01*
X71210313Y-37922161D01*
X71210312Y-37922164D01*
X71174500Y-38055817D01*
X68415500Y-38055817D01*
X68379688Y-37922164D01*
X68310505Y-37802335D01*
X68212665Y-37704495D01*
X68212664Y-37704494D01*
X68212661Y-37704492D01*
X68092838Y-37635313D01*
X68092837Y-37635312D01*
X68092836Y-37635312D01*
X67959183Y-37599500D01*
X67820817Y-37599500D01*
X67687164Y-37635312D01*
X67687161Y-37635313D01*
X67567338Y-37704492D01*
X67567333Y-37704496D01*
X67469496Y-37802333D01*
X67469492Y-37802338D01*
X67400313Y-37922161D01*
X67400312Y-37922164D01*
X67364500Y-38055817D01*
X64605500Y-38055817D01*
X64569688Y-37922164D01*
X64500505Y-37802335D01*
X64402665Y-37704495D01*
X64402664Y-37704494D01*
X64402661Y-37704492D01*
X64282838Y-37635313D01*
X64282837Y-37635312D01*
X64282836Y-37635312D01*
X64149183Y-37599500D01*
X64010817Y-37599500D01*
X63877164Y-37635312D01*
X63877161Y-37635313D01*
X63757338Y-37704492D01*
X63757333Y-37704496D01*
X63659496Y-37802333D01*
X63659492Y-37802338D01*
X63590313Y-37922161D01*
X63590312Y-37922164D01*
X63554500Y-38055817D01*
X57517759Y-38055817D01*
X57494183Y-38049500D01*
X57355817Y-38049500D01*
X57222164Y-38085312D01*
X57222161Y-38085313D01*
X57102338Y-38154492D01*
X57102333Y-38154496D01*
X57004496Y-38252333D01*
X57004492Y-38252338D01*
X56935313Y-38372161D01*
X56935312Y-38372164D01*
X56899498Y-38505822D01*
X56899126Y-38508654D01*
X56898147Y-38510864D01*
X56897397Y-38513667D01*
X56896959Y-38513549D01*
X56870856Y-38572549D01*
X56812530Y-38611017D01*
X56808282Y-38612237D01*
X56722162Y-38635312D01*
X56722161Y-38635313D01*
X56602338Y-38704492D01*
X56602333Y-38704496D01*
X56504496Y-38802333D01*
X56504492Y-38802338D01*
X56435313Y-38922161D01*
X56435312Y-38922164D01*
X56399500Y-39055817D01*
X37950500Y-39055817D01*
X37914688Y-38922164D01*
X37845505Y-38802335D01*
X37747665Y-38704495D01*
X37747664Y-38704494D01*
X37747661Y-38704492D01*
X37627838Y-38635313D01*
X37627837Y-38635312D01*
X37627836Y-38635312D01*
X37494183Y-38599500D01*
X37355817Y-38599500D01*
X37222164Y-38635312D01*
X37222161Y-38635313D01*
X37102338Y-38704492D01*
X37102333Y-38704496D01*
X37004496Y-38802333D01*
X37004492Y-38802338D01*
X36935313Y-38922161D01*
X36935312Y-38922164D01*
X36899500Y-39055817D01*
X625000Y-39055817D01*
X625000Y-38055817D01*
X5054500Y-38055817D01*
X5054500Y-38194183D01*
X5070083Y-38252338D01*
X5090312Y-38327835D01*
X5090313Y-38327838D01*
X5159492Y-38447661D01*
X5159494Y-38447664D01*
X5159495Y-38447665D01*
X5257335Y-38545505D01*
X5377164Y-38614688D01*
X5510817Y-38650500D01*
X5510819Y-38650500D01*
X5649181Y-38650500D01*
X5649183Y-38650500D01*
X5782836Y-38614688D01*
X5902665Y-38545505D01*
X6000505Y-38447665D01*
X6069688Y-38327836D01*
X6105500Y-38194183D01*
X6105500Y-38055817D01*
X8864500Y-38055817D01*
X8864500Y-38194183D01*
X8880083Y-38252338D01*
X8900312Y-38327835D01*
X8900313Y-38327838D01*
X8969492Y-38447661D01*
X8969494Y-38447664D01*
X8969495Y-38447665D01*
X9067335Y-38545505D01*
X9187164Y-38614688D01*
X9320817Y-38650500D01*
X9320819Y-38650500D01*
X9459181Y-38650500D01*
X9459183Y-38650500D01*
X9592836Y-38614688D01*
X9712665Y-38545505D01*
X9810505Y-38447665D01*
X9879688Y-38327836D01*
X9915500Y-38194183D01*
X9915500Y-38055817D01*
X12674500Y-38055817D01*
X12674500Y-38194183D01*
X12690083Y-38252338D01*
X12710312Y-38327835D01*
X12710313Y-38327838D01*
X12779492Y-38447661D01*
X12779494Y-38447664D01*
X12779495Y-38447665D01*
X12877335Y-38545505D01*
X12997164Y-38614688D01*
X13130817Y-38650500D01*
X13130819Y-38650500D01*
X13269181Y-38650500D01*
X13269183Y-38650500D01*
X13402836Y-38614688D01*
X13522665Y-38545505D01*
X13620505Y-38447665D01*
X13689688Y-38327836D01*
X13725500Y-38194183D01*
X13725500Y-38055817D01*
X16484500Y-38055817D01*
X16484500Y-38194183D01*
X16500083Y-38252338D01*
X16520312Y-38327835D01*
X16520313Y-38327838D01*
X16589492Y-38447661D01*
X16589494Y-38447664D01*
X16589495Y-38447665D01*
X16687335Y-38545505D01*
X16807164Y-38614688D01*
X16940817Y-38650500D01*
X16940819Y-38650500D01*
X17079181Y-38650500D01*
X17079183Y-38650500D01*
X17212836Y-38614688D01*
X17332665Y-38545505D01*
X17430505Y-38447665D01*
X17499688Y-38327836D01*
X17535500Y-38194183D01*
X17535500Y-38055817D01*
X24554500Y-38055817D01*
X24554500Y-38194183D01*
X24570083Y-38252338D01*
X24590312Y-38327835D01*
X24590313Y-38327838D01*
X24659492Y-38447661D01*
X24659494Y-38447664D01*
X24659495Y-38447665D01*
X24757335Y-38545505D01*
X24877164Y-38614688D01*
X25010817Y-38650500D01*
X25010819Y-38650500D01*
X25149181Y-38650500D01*
X25149183Y-38650500D01*
X25282836Y-38614688D01*
X25402665Y-38545505D01*
X25500505Y-38447665D01*
X25569688Y-38327836D01*
X25605500Y-38194183D01*
X25605500Y-38055817D01*
X28364500Y-38055817D01*
X28364500Y-38194183D01*
X28380083Y-38252338D01*
X28400312Y-38327835D01*
X28400313Y-38327838D01*
X28469492Y-38447661D01*
X28469494Y-38447664D01*
X28469495Y-38447665D01*
X28567335Y-38545505D01*
X28687164Y-38614688D01*
X28820817Y-38650500D01*
X28820819Y-38650500D01*
X28959181Y-38650500D01*
X28959183Y-38650500D01*
X29092836Y-38614688D01*
X29212665Y-38545505D01*
X29310505Y-38447665D01*
X29379688Y-38327836D01*
X29415500Y-38194183D01*
X29415500Y-38055817D01*
X32174499Y-38055817D01*
X32174499Y-38194183D01*
X32190082Y-38252338D01*
X32210311Y-38327835D01*
X32210312Y-38327838D01*
X32279491Y-38447661D01*
X32279493Y-38447664D01*
X32279494Y-38447665D01*
X32377334Y-38545505D01*
X32497163Y-38614688D01*
X32630816Y-38650500D01*
X32630818Y-38650500D01*
X32769180Y-38650500D01*
X32769182Y-38650500D01*
X32902835Y-38614688D01*
X33022664Y-38545505D01*
X33120504Y-38447665D01*
X33189687Y-38327836D01*
X33225499Y-38194183D01*
X33225499Y-38055817D01*
X35984500Y-38055817D01*
X35984500Y-38194183D01*
X36000083Y-38252338D01*
X36020312Y-38327835D01*
X36020313Y-38327838D01*
X36089492Y-38447661D01*
X36089494Y-38447664D01*
X36089495Y-38447665D01*
X36187335Y-38545505D01*
X36307164Y-38614688D01*
X36440817Y-38650500D01*
X36440819Y-38650500D01*
X36579181Y-38650500D01*
X36579183Y-38650500D01*
X36712836Y-38614688D01*
X36832665Y-38545505D01*
X36930505Y-38447665D01*
X36999688Y-38327836D01*
X37035500Y-38194183D01*
X37035500Y-38055817D01*
X44054500Y-38055817D01*
X44054500Y-38194183D01*
X44070083Y-38252338D01*
X44090312Y-38327835D01*
X44090313Y-38327838D01*
X44159492Y-38447661D01*
X44159494Y-38447664D01*
X44159495Y-38447665D01*
X44257335Y-38545505D01*
X44377164Y-38614688D01*
X44510817Y-38650500D01*
X44510819Y-38650500D01*
X44649181Y-38650500D01*
X44649183Y-38650500D01*
X44782836Y-38614688D01*
X44902665Y-38545505D01*
X45000505Y-38447665D01*
X45069688Y-38327836D01*
X45105500Y-38194183D01*
X45105500Y-38055817D01*
X47864500Y-38055817D01*
X47864500Y-38194183D01*
X47880083Y-38252338D01*
X47900312Y-38327835D01*
X47900313Y-38327838D01*
X47969492Y-38447661D01*
X47969494Y-38447664D01*
X47969495Y-38447665D01*
X48067335Y-38545505D01*
X48187164Y-38614688D01*
X48320817Y-38650500D01*
X48320819Y-38650500D01*
X48459181Y-38650500D01*
X48459183Y-38650500D01*
X48592836Y-38614688D01*
X48712665Y-38545505D01*
X48810505Y-38447665D01*
X48879688Y-38327836D01*
X48915500Y-38194183D01*
X48915500Y-38055817D01*
X51674500Y-38055817D01*
X51674500Y-38194183D01*
X51690083Y-38252338D01*
X51710312Y-38327835D01*
X51710313Y-38327838D01*
X51779492Y-38447661D01*
X51779494Y-38447664D01*
X51779495Y-38447665D01*
X51877335Y-38545505D01*
X51997164Y-38614688D01*
X52130817Y-38650500D01*
X52130819Y-38650500D01*
X52269181Y-38650500D01*
X52269183Y-38650500D01*
X52402836Y-38614688D01*
X52522665Y-38545505D01*
X52620505Y-38447665D01*
X52689688Y-38327836D01*
X52725500Y-38194183D01*
X52725500Y-38055817D01*
X55484500Y-38055817D01*
X55484500Y-38194183D01*
X55500083Y-38252338D01*
X55520312Y-38327835D01*
X55520313Y-38327838D01*
X55589492Y-38447661D01*
X55589494Y-38447664D01*
X55589495Y-38447665D01*
X55687335Y-38545505D01*
X55807164Y-38614688D01*
X55940817Y-38650500D01*
X55940819Y-38650500D01*
X56079181Y-38650500D01*
X56079183Y-38650500D01*
X56212836Y-38614688D01*
X56332665Y-38545505D01*
X56430505Y-38447665D01*
X56499688Y-38327836D01*
X56535500Y-38194183D01*
X56535500Y-38055817D01*
X56499688Y-37922164D01*
X56430505Y-37802335D01*
X56332665Y-37704495D01*
X56332664Y-37704494D01*
X56332661Y-37704492D01*
X56212838Y-37635313D01*
X56212837Y-37635312D01*
X56212836Y-37635312D01*
X56079183Y-37599500D01*
X55940817Y-37599500D01*
X55807164Y-37635312D01*
X55807161Y-37635313D01*
X55687338Y-37704492D01*
X55687333Y-37704496D01*
X55589496Y-37802333D01*
X55589492Y-37802338D01*
X55520313Y-37922161D01*
X55520312Y-37922164D01*
X55484500Y-38055817D01*
X52725500Y-38055817D01*
X52689688Y-37922164D01*
X52620505Y-37802335D01*
X52522665Y-37704495D01*
X52522664Y-37704494D01*
X52522661Y-37704492D01*
X52402838Y-37635313D01*
X52402837Y-37635312D01*
X52402836Y-37635312D01*
X52269183Y-37599500D01*
X52130817Y-37599500D01*
X51997164Y-37635312D01*
X51997161Y-37635313D01*
X51877338Y-37704492D01*
X51877333Y-37704496D01*
X51779496Y-37802333D01*
X51779492Y-37802338D01*
X51710313Y-37922161D01*
X51710312Y-37922164D01*
X51674500Y-38055817D01*
X48915500Y-38055817D01*
X48879688Y-37922164D01*
X48810505Y-37802335D01*
X48712665Y-37704495D01*
X48712664Y-37704494D01*
X48712661Y-37704492D01*
X48592838Y-37635313D01*
X48592837Y-37635312D01*
X48592836Y-37635312D01*
X48459183Y-37599500D01*
X48320817Y-37599500D01*
X48187164Y-37635312D01*
X48187161Y-37635313D01*
X48067338Y-37704492D01*
X48067333Y-37704496D01*
X47969496Y-37802333D01*
X47969492Y-37802338D01*
X47900313Y-37922161D01*
X47900312Y-37922164D01*
X47864500Y-38055817D01*
X45105500Y-38055817D01*
X45069688Y-37922164D01*
X45000505Y-37802335D01*
X44902665Y-37704495D01*
X44902664Y-37704494D01*
X44902661Y-37704492D01*
X44782838Y-37635313D01*
X44782837Y-37635312D01*
X44782836Y-37635312D01*
X44649183Y-37599500D01*
X44510817Y-37599500D01*
X44377164Y-37635312D01*
X44377161Y-37635313D01*
X44257338Y-37704492D01*
X44257333Y-37704496D01*
X44159496Y-37802333D01*
X44159492Y-37802338D01*
X44090313Y-37922161D01*
X44090312Y-37922164D01*
X44054500Y-38055817D01*
X37035500Y-38055817D01*
X36999688Y-37922164D01*
X36930505Y-37802335D01*
X36832665Y-37704495D01*
X36832664Y-37704494D01*
X36832661Y-37704492D01*
X36712838Y-37635313D01*
X36712837Y-37635312D01*
X36712836Y-37635312D01*
X36579183Y-37599500D01*
X36440817Y-37599500D01*
X36307164Y-37635312D01*
X36307161Y-37635313D01*
X36187338Y-37704492D01*
X36187333Y-37704496D01*
X36089496Y-37802333D01*
X36089492Y-37802338D01*
X36020313Y-37922161D01*
X36020312Y-37922164D01*
X35984500Y-38055817D01*
X33225499Y-38055817D01*
X33189687Y-37922164D01*
X33120504Y-37802335D01*
X33022664Y-37704495D01*
X33022663Y-37704494D01*
X33022660Y-37704492D01*
X32902837Y-37635313D01*
X32902836Y-37635312D01*
X32902835Y-37635312D01*
X32769182Y-37599500D01*
X32630816Y-37599500D01*
X32497163Y-37635312D01*
X32497160Y-37635313D01*
X32377337Y-37704492D01*
X32377332Y-37704496D01*
X32279495Y-37802333D01*
X32279491Y-37802338D01*
X32210312Y-37922161D01*
X32210311Y-37922164D01*
X32174499Y-38055817D01*
X29415500Y-38055817D01*
X29379688Y-37922164D01*
X29310505Y-37802335D01*
X29212665Y-37704495D01*
X29212664Y-37704494D01*
X29212661Y-37704492D01*
X29092838Y-37635313D01*
X29092837Y-37635312D01*
X29092836Y-37635312D01*
X28959183Y-37599500D01*
X28820817Y-37599500D01*
X28687164Y-37635312D01*
X28687161Y-37635313D01*
X28567338Y-37704492D01*
X28567333Y-37704496D01*
X28469496Y-37802333D01*
X28469492Y-37802338D01*
X28400313Y-37922161D01*
X28400312Y-37922164D01*
X28364500Y-38055817D01*
X25605500Y-38055817D01*
X25569688Y-37922164D01*
X25500505Y-37802335D01*
X25402665Y-37704495D01*
X25402664Y-37704494D01*
X25402661Y-37704492D01*
X25282838Y-37635313D01*
X25282837Y-37635312D01*
X25282836Y-37635312D01*
X25149183Y-37599500D01*
X25010817Y-37599500D01*
X24877164Y-37635312D01*
X24877161Y-37635313D01*
X24757338Y-37704492D01*
X24757333Y-37704496D01*
X24659496Y-37802333D01*
X24659492Y-37802338D01*
X24590313Y-37922161D01*
X24590312Y-37922164D01*
X24554500Y-38055817D01*
X17535500Y-38055817D01*
X17499688Y-37922164D01*
X17430505Y-37802335D01*
X17332665Y-37704495D01*
X17332664Y-37704494D01*
X17332661Y-37704492D01*
X17212838Y-37635313D01*
X17212837Y-37635312D01*
X17212836Y-37635312D01*
X17079183Y-37599500D01*
X16940817Y-37599500D01*
X16807164Y-37635312D01*
X16807161Y-37635313D01*
X16687338Y-37704492D01*
X16687333Y-37704496D01*
X16589496Y-37802333D01*
X16589492Y-37802338D01*
X16520313Y-37922161D01*
X16520312Y-37922164D01*
X16484500Y-38055817D01*
X13725500Y-38055817D01*
X13689688Y-37922164D01*
X13620505Y-37802335D01*
X13522665Y-37704495D01*
X13522664Y-37704494D01*
X13522661Y-37704492D01*
X13402838Y-37635313D01*
X13402837Y-37635312D01*
X13402836Y-37635312D01*
X13269183Y-37599500D01*
X13130817Y-37599500D01*
X12997164Y-37635312D01*
X12997161Y-37635313D01*
X12877338Y-37704492D01*
X12877333Y-37704496D01*
X12779496Y-37802333D01*
X12779492Y-37802338D01*
X12710313Y-37922161D01*
X12710312Y-37922164D01*
X12674500Y-38055817D01*
X9915500Y-38055817D01*
X9879688Y-37922164D01*
X9810505Y-37802335D01*
X9712665Y-37704495D01*
X9712664Y-37704494D01*
X9712661Y-37704492D01*
X9592838Y-37635313D01*
X9592837Y-37635312D01*
X9592836Y-37635312D01*
X9459183Y-37599500D01*
X9320817Y-37599500D01*
X9187164Y-37635312D01*
X9187161Y-37635313D01*
X9067338Y-37704492D01*
X9067333Y-37704496D01*
X8969496Y-37802333D01*
X8969492Y-37802338D01*
X8900313Y-37922161D01*
X8900312Y-37922164D01*
X8864500Y-38055817D01*
X6105500Y-38055817D01*
X6069688Y-37922164D01*
X6000505Y-37802335D01*
X5902665Y-37704495D01*
X5902664Y-37704494D01*
X5902661Y-37704492D01*
X5782838Y-37635313D01*
X5782837Y-37635312D01*
X5782836Y-37635312D01*
X5649183Y-37599500D01*
X5510817Y-37599500D01*
X5377164Y-37635312D01*
X5377161Y-37635313D01*
X5257338Y-37704492D01*
X5257333Y-37704496D01*
X5159496Y-37802333D01*
X5159492Y-37802338D01*
X5090313Y-37922161D01*
X5090312Y-37922164D01*
X5054500Y-38055817D01*
X625000Y-38055817D01*
X625000Y-37343817D01*
X17699500Y-37343817D01*
X17699500Y-37482182D01*
X17735312Y-37615835D01*
X17735313Y-37615838D01*
X17804492Y-37735661D01*
X17804494Y-37735664D01*
X17804495Y-37735665D01*
X17902335Y-37833505D01*
X18022164Y-37902688D01*
X18155817Y-37938500D01*
X18155819Y-37938500D01*
X18294181Y-37938500D01*
X18294183Y-37938500D01*
X18427836Y-37902688D01*
X18547665Y-37833505D01*
X18645505Y-37735665D01*
X18714688Y-37615836D01*
X18750500Y-37482183D01*
X18750500Y-37343817D01*
X20899500Y-37343817D01*
X20899500Y-37482182D01*
X20935312Y-37615835D01*
X20935313Y-37615838D01*
X21004492Y-37735661D01*
X21004494Y-37735664D01*
X21004495Y-37735665D01*
X21102335Y-37833505D01*
X21222164Y-37902688D01*
X21355817Y-37938500D01*
X21355819Y-37938500D01*
X21494181Y-37938500D01*
X21494183Y-37938500D01*
X21627836Y-37902688D01*
X21747665Y-37833505D01*
X21845505Y-37735665D01*
X21914688Y-37615836D01*
X21950500Y-37482183D01*
X21950500Y-37343817D01*
X79399500Y-37343817D01*
X79399500Y-37482182D01*
X79435312Y-37615835D01*
X79435313Y-37615838D01*
X79504492Y-37735661D01*
X79504494Y-37735664D01*
X79504495Y-37735665D01*
X79602335Y-37833505D01*
X79722164Y-37902688D01*
X79855817Y-37938500D01*
X79855819Y-37938500D01*
X79994181Y-37938500D01*
X79994183Y-37938500D01*
X80127836Y-37902688D01*
X80247665Y-37833505D01*
X80345505Y-37735665D01*
X80414688Y-37615836D01*
X80450500Y-37482183D01*
X80450500Y-37343817D01*
X80414688Y-37210164D01*
X80345505Y-37090335D01*
X80247665Y-36992495D01*
X80247664Y-36992494D01*
X80247661Y-36992492D01*
X80127838Y-36923313D01*
X80127837Y-36923312D01*
X80127836Y-36923312D01*
X79994183Y-36887500D01*
X79855817Y-36887500D01*
X79722164Y-36923312D01*
X79722161Y-36923313D01*
X79602338Y-36992492D01*
X79602333Y-36992496D01*
X79504496Y-37090333D01*
X79504492Y-37090338D01*
X79435313Y-37210161D01*
X79435312Y-37210164D01*
X79399500Y-37343817D01*
X21950500Y-37343817D01*
X21914688Y-37210164D01*
X21845505Y-37090335D01*
X21747665Y-36992495D01*
X21747664Y-36992494D01*
X21747661Y-36992492D01*
X21627838Y-36923313D01*
X21627837Y-36923312D01*
X21627836Y-36923312D01*
X21494183Y-36887500D01*
X21355817Y-36887500D01*
X21222164Y-36923312D01*
X21222161Y-36923313D01*
X21102338Y-36992492D01*
X21102333Y-36992496D01*
X21004496Y-37090333D01*
X21004492Y-37090338D01*
X20935313Y-37210161D01*
X20935312Y-37210164D01*
X20899500Y-37343817D01*
X18750500Y-37343817D01*
X18714688Y-37210164D01*
X18645505Y-37090335D01*
X18547665Y-36992495D01*
X18547664Y-36992494D01*
X18547661Y-36992492D01*
X18427838Y-36923313D01*
X18427837Y-36923312D01*
X18427836Y-36923312D01*
X18294183Y-36887500D01*
X18155817Y-36887500D01*
X18022164Y-36923312D01*
X18022161Y-36923313D01*
X17902338Y-36992492D01*
X17902333Y-36992496D01*
X17804496Y-37090333D01*
X17804492Y-37090338D01*
X17735313Y-37210161D01*
X17735312Y-37210164D01*
X17699500Y-37343817D01*
X625000Y-37343817D01*
X625000Y-34905817D01*
X18499500Y-34905817D01*
X18499500Y-35044182D01*
X18535312Y-35177835D01*
X18535313Y-35177838D01*
X18604492Y-35297661D01*
X18604494Y-35297664D01*
X18604495Y-35297665D01*
X18702335Y-35395505D01*
X18822164Y-35464688D01*
X18955817Y-35500500D01*
X18955819Y-35500500D01*
X19094181Y-35500500D01*
X19094183Y-35500500D01*
X19227836Y-35464688D01*
X19347665Y-35395505D01*
X19445505Y-35297665D01*
X19514688Y-35177836D01*
X19550500Y-35044183D01*
X19550500Y-34905817D01*
X20099500Y-34905817D01*
X20099500Y-35044182D01*
X20135312Y-35177835D01*
X20135313Y-35177838D01*
X20204492Y-35297661D01*
X20204494Y-35297664D01*
X20204495Y-35297665D01*
X20302335Y-35395505D01*
X20422164Y-35464688D01*
X20555817Y-35500500D01*
X20555819Y-35500500D01*
X20694181Y-35500500D01*
X20694183Y-35500500D01*
X20827836Y-35464688D01*
X20947665Y-35395505D01*
X21045505Y-35297665D01*
X21114688Y-35177836D01*
X21150500Y-35044183D01*
X21150500Y-34905817D01*
X37999500Y-34905817D01*
X37999500Y-35044182D01*
X38035312Y-35177835D01*
X38035313Y-35177838D01*
X38104492Y-35297661D01*
X38104494Y-35297664D01*
X38104495Y-35297665D01*
X38202335Y-35395505D01*
X38322164Y-35464688D01*
X38455817Y-35500500D01*
X38455819Y-35500500D01*
X38594181Y-35500500D01*
X38594183Y-35500500D01*
X38727836Y-35464688D01*
X38847665Y-35395505D01*
X38945505Y-35297665D01*
X39014688Y-35177836D01*
X39050500Y-35044183D01*
X39050500Y-34905817D01*
X39599500Y-34905817D01*
X39599500Y-35044182D01*
X39635312Y-35177835D01*
X39635313Y-35177838D01*
X39704492Y-35297661D01*
X39704494Y-35297664D01*
X39704495Y-35297665D01*
X39802335Y-35395505D01*
X39922164Y-35464688D01*
X40055817Y-35500500D01*
X40055819Y-35500500D01*
X40194181Y-35500500D01*
X40194183Y-35500500D01*
X40327836Y-35464688D01*
X40447665Y-35395505D01*
X40545505Y-35297665D01*
X40614688Y-35177836D01*
X40650500Y-35044183D01*
X40650500Y-34905817D01*
X57499500Y-34905817D01*
X57499500Y-35044182D01*
X57535312Y-35177835D01*
X57535313Y-35177838D01*
X57604492Y-35297661D01*
X57604494Y-35297664D01*
X57604495Y-35297665D01*
X57702335Y-35395505D01*
X57822164Y-35464688D01*
X57955817Y-35500500D01*
X57955819Y-35500500D01*
X58094181Y-35500500D01*
X58094183Y-35500500D01*
X58227836Y-35464688D01*
X58347665Y-35395505D01*
X58445505Y-35297665D01*
X58514688Y-35177836D01*
X58550500Y-35044183D01*
X58550500Y-34905817D01*
X59099500Y-34905817D01*
X59099500Y-35044182D01*
X59135312Y-35177835D01*
X59135313Y-35177838D01*
X59204492Y-35297661D01*
X59204494Y-35297664D01*
X59204495Y-35297665D01*
X59302335Y-35395505D01*
X59422164Y-35464688D01*
X59555817Y-35500500D01*
X59555819Y-35500500D01*
X59694181Y-35500500D01*
X59694183Y-35500500D01*
X59827836Y-35464688D01*
X59947665Y-35395505D01*
X60045505Y-35297665D01*
X60114688Y-35177836D01*
X60150500Y-35044183D01*
X60150500Y-34905817D01*
X76999500Y-34905817D01*
X76999500Y-35044182D01*
X77035312Y-35177835D01*
X77035313Y-35177838D01*
X77104492Y-35297661D01*
X77104494Y-35297664D01*
X77104495Y-35297665D01*
X77202335Y-35395505D01*
X77322164Y-35464688D01*
X77455817Y-35500500D01*
X77455819Y-35500500D01*
X77594181Y-35500500D01*
X77594183Y-35500500D01*
X77727836Y-35464688D01*
X77847665Y-35395505D01*
X77945505Y-35297665D01*
X78014688Y-35177836D01*
X78050500Y-35044183D01*
X78050500Y-34905817D01*
X78599500Y-34905817D01*
X78599500Y-35044182D01*
X78635312Y-35177835D01*
X78635313Y-35177838D01*
X78704492Y-35297661D01*
X78704494Y-35297664D01*
X78704495Y-35297665D01*
X78802335Y-35395505D01*
X78922164Y-35464688D01*
X79055817Y-35500500D01*
X79055819Y-35500500D01*
X79194181Y-35500500D01*
X79194183Y-35500500D01*
X79327836Y-35464688D01*
X79447665Y-35395505D01*
X79545505Y-35297665D01*
X79614688Y-35177836D01*
X79650500Y-35044183D01*
X79650500Y-34905817D01*
X96499500Y-34905817D01*
X96499500Y-35044182D01*
X96535312Y-35177835D01*
X96535313Y-35177838D01*
X96604492Y-35297661D01*
X96604494Y-35297664D01*
X96604495Y-35297665D01*
X96702335Y-35395505D01*
X96822164Y-35464688D01*
X96955817Y-35500500D01*
X96955819Y-35500500D01*
X97094181Y-35500500D01*
X97094183Y-35500500D01*
X97227836Y-35464688D01*
X97347665Y-35395505D01*
X97445505Y-35297665D01*
X97514688Y-35177836D01*
X97550500Y-35044183D01*
X97550500Y-34905817D01*
X98099500Y-34905817D01*
X98099500Y-35044182D01*
X98135312Y-35177835D01*
X98135313Y-35177838D01*
X98204492Y-35297661D01*
X98204494Y-35297664D01*
X98204495Y-35297665D01*
X98302335Y-35395505D01*
X98422164Y-35464688D01*
X98555817Y-35500500D01*
X98555819Y-35500500D01*
X98694181Y-35500500D01*
X98694183Y-35500500D01*
X98827836Y-35464688D01*
X98947665Y-35395505D01*
X99045505Y-35297665D01*
X99114688Y-35177836D01*
X99150500Y-35044183D01*
X99150500Y-34905817D01*
X99114688Y-34772164D01*
X99045505Y-34652335D01*
X98947665Y-34554495D01*
X98947664Y-34554494D01*
X98947661Y-34554492D01*
X98827838Y-34485313D01*
X98827837Y-34485312D01*
X98827836Y-34485312D01*
X98694183Y-34449500D01*
X98555817Y-34449500D01*
X98422164Y-34485312D01*
X98422161Y-34485313D01*
X98302338Y-34554492D01*
X98302333Y-34554496D01*
X98204496Y-34652333D01*
X98204492Y-34652338D01*
X98135313Y-34772161D01*
X98135312Y-34772164D01*
X98099500Y-34905817D01*
X97550500Y-34905817D01*
X97514688Y-34772164D01*
X97445505Y-34652335D01*
X97347665Y-34554495D01*
X97347664Y-34554494D01*
X97347661Y-34554492D01*
X97227838Y-34485313D01*
X97227837Y-34485312D01*
X97227836Y-34485312D01*
X97094183Y-34449500D01*
X96955817Y-34449500D01*
X96822164Y-34485312D01*
X96822161Y-34485313D01*
X96702338Y-34554492D01*
X96702333Y-34554496D01*
X96604496Y-34652333D01*
X96604492Y-34652338D01*
X96535313Y-34772161D01*
X96535312Y-34772164D01*
X96499500Y-34905817D01*
X79650500Y-34905817D01*
X79614688Y-34772164D01*
X79545505Y-34652335D01*
X79447665Y-34554495D01*
X79447664Y-34554494D01*
X79447661Y-34554492D01*
X79327838Y-34485313D01*
X79327837Y-34485312D01*
X79327836Y-34485312D01*
X79194183Y-34449500D01*
X79055817Y-34449500D01*
X78922164Y-34485312D01*
X78922161Y-34485313D01*
X78802338Y-34554492D01*
X78802333Y-34554496D01*
X78704496Y-34652333D01*
X78704492Y-34652338D01*
X78635313Y-34772161D01*
X78635312Y-34772164D01*
X78599500Y-34905817D01*
X78050500Y-34905817D01*
X78014688Y-34772164D01*
X77945505Y-34652335D01*
X77847665Y-34554495D01*
X77847664Y-34554494D01*
X77847661Y-34554492D01*
X77727838Y-34485313D01*
X77727837Y-34485312D01*
X77727836Y-34485312D01*
X77594183Y-34449500D01*
X77455817Y-34449500D01*
X77322164Y-34485312D01*
X77322161Y-34485313D01*
X77202338Y-34554492D01*
X77202333Y-34554496D01*
X77104496Y-34652333D01*
X77104492Y-34652338D01*
X77035313Y-34772161D01*
X77035312Y-34772164D01*
X76999500Y-34905817D01*
X60150500Y-34905817D01*
X60114688Y-34772164D01*
X60045505Y-34652335D01*
X59947665Y-34554495D01*
X59947664Y-34554494D01*
X59947661Y-34554492D01*
X59827838Y-34485313D01*
X59827837Y-34485312D01*
X59827836Y-34485312D01*
X59694183Y-34449500D01*
X59555817Y-34449500D01*
X59422164Y-34485312D01*
X59422161Y-34485313D01*
X59302338Y-34554492D01*
X59302333Y-34554496D01*
X59204496Y-34652333D01*
X59204492Y-34652338D01*
X59135313Y-34772161D01*
X59135312Y-34772164D01*
X59099500Y-34905817D01*
X58550500Y-34905817D01*
X58514688Y-34772164D01*
X58445505Y-34652335D01*
X58347665Y-34554495D01*
X58347664Y-34554494D01*
X58347661Y-34554492D01*
X58227838Y-34485313D01*
X58227837Y-34485312D01*
X58227836Y-34485312D01*
X58094183Y-34449500D01*
X57955817Y-34449500D01*
X57822164Y-34485312D01*
X57822161Y-34485313D01*
X57702338Y-34554492D01*
X57702333Y-34554496D01*
X57604496Y-34652333D01*
X57604492Y-34652338D01*
X57535313Y-34772161D01*
X57535312Y-34772164D01*
X57499500Y-34905817D01*
X40650500Y-34905817D01*
X40614688Y-34772164D01*
X40545505Y-34652335D01*
X40447665Y-34554495D01*
X40447664Y-34554494D01*
X40447661Y-34554492D01*
X40327838Y-34485313D01*
X40327837Y-34485312D01*
X40327836Y-34485312D01*
X40194183Y-34449500D01*
X40055817Y-34449500D01*
X39922164Y-34485312D01*
X39922161Y-34485313D01*
X39802338Y-34554492D01*
X39802333Y-34554496D01*
X39704496Y-34652333D01*
X39704492Y-34652338D01*
X39635313Y-34772161D01*
X39635312Y-34772164D01*
X39599500Y-34905817D01*
X39050500Y-34905817D01*
X39014688Y-34772164D01*
X38945505Y-34652335D01*
X38847665Y-34554495D01*
X38847664Y-34554494D01*
X38847661Y-34554492D01*
X38727838Y-34485313D01*
X38727837Y-34485312D01*
X38727836Y-34485312D01*
X38594183Y-34449500D01*
X38455817Y-34449500D01*
X38322164Y-34485312D01*
X38322161Y-34485313D01*
X38202338Y-34554492D01*
X38202333Y-34554496D01*
X38104496Y-34652333D01*
X38104492Y-34652338D01*
X38035313Y-34772161D01*
X38035312Y-34772164D01*
X37999500Y-34905817D01*
X21150500Y-34905817D01*
X21114688Y-34772164D01*
X21045505Y-34652335D01*
X20947665Y-34554495D01*
X20947664Y-34554494D01*
X20947661Y-34554492D01*
X20827838Y-34485313D01*
X20827837Y-34485312D01*
X20827836Y-34485312D01*
X20694183Y-34449500D01*
X20555817Y-34449500D01*
X20422164Y-34485312D01*
X20422161Y-34485313D01*
X20302338Y-34554492D01*
X20302333Y-34554496D01*
X20204496Y-34652333D01*
X20204492Y-34652338D01*
X20135313Y-34772161D01*
X20135312Y-34772164D01*
X20099500Y-34905817D01*
X19550500Y-34905817D01*
X19514688Y-34772164D01*
X19445505Y-34652335D01*
X19347665Y-34554495D01*
X19347664Y-34554494D01*
X19347661Y-34554492D01*
X19227838Y-34485313D01*
X19227837Y-34485312D01*
X19227836Y-34485312D01*
X19094183Y-34449500D01*
X18955817Y-34449500D01*
X18822164Y-34485312D01*
X18822161Y-34485313D01*
X18702338Y-34554492D01*
X18702333Y-34554496D01*
X18604496Y-34652333D01*
X18604492Y-34652338D01*
X18535313Y-34772161D01*
X18535312Y-34772164D01*
X18499500Y-34905817D01*
X625000Y-34905817D01*
X625000Y-28515817D01*
X8249500Y-28515817D01*
X8249500Y-28654183D01*
X8274549Y-28747665D01*
X8285312Y-28787835D01*
X8285313Y-28787838D01*
X8354492Y-28907661D01*
X8354494Y-28907664D01*
X8354495Y-28907665D01*
X8452335Y-29005505D01*
X8452336Y-29005506D01*
X8452338Y-29005507D01*
X8468268Y-29014704D01*
X8572164Y-29074688D01*
X8705817Y-29110500D01*
X8705819Y-29110500D01*
X8844181Y-29110500D01*
X8844183Y-29110500D01*
X8977836Y-29074688D01*
X9097665Y-29005505D01*
X9195505Y-28907665D01*
X9264688Y-28787836D01*
X9300500Y-28654183D01*
X9300500Y-28515817D01*
X9264688Y-28382164D01*
X9249477Y-28355817D01*
X14604500Y-28355817D01*
X14604500Y-28494183D01*
X14639030Y-28623049D01*
X14640312Y-28627835D01*
X14640313Y-28627838D01*
X14709492Y-28747661D01*
X14709494Y-28747664D01*
X14709495Y-28747665D01*
X14807335Y-28845505D01*
X14927164Y-28914688D01*
X15060817Y-28950500D01*
X15060819Y-28950500D01*
X15199181Y-28950500D01*
X15199183Y-28950500D01*
X15332836Y-28914688D01*
X15452665Y-28845505D01*
X15550505Y-28747665D01*
X15619688Y-28627836D01*
X15655500Y-28494183D01*
X15655500Y-28355817D01*
X15619688Y-28222164D01*
X15550505Y-28102335D01*
X15452665Y-28004495D01*
X15452664Y-28004494D01*
X15452661Y-28004492D01*
X15332838Y-27935313D01*
X15332837Y-27935312D01*
X15332836Y-27935312D01*
X15199183Y-27899500D01*
X15060817Y-27899500D01*
X14927164Y-27935312D01*
X14927161Y-27935313D01*
X14807338Y-28004492D01*
X14807333Y-28004496D01*
X14709496Y-28102333D01*
X14709492Y-28102338D01*
X14640313Y-28222161D01*
X14640312Y-28222164D01*
X14604500Y-28355817D01*
X9249477Y-28355817D01*
X9195505Y-28262335D01*
X9097665Y-28164495D01*
X9097664Y-28164494D01*
X9097661Y-28164492D01*
X8977838Y-28095313D01*
X8977837Y-28095312D01*
X8977836Y-28095312D01*
X8844183Y-28059500D01*
X8705817Y-28059500D01*
X8572164Y-28095312D01*
X8572161Y-28095313D01*
X8452338Y-28164492D01*
X8452333Y-28164496D01*
X8354496Y-28262333D01*
X8354492Y-28262338D01*
X8285313Y-28382161D01*
X8285312Y-28382164D01*
X8249500Y-28515817D01*
X625000Y-28515817D01*
X625000Y-26406995D01*
X1724500Y-26406995D01*
X1724500Y-26643004D01*
X1724501Y-26643020D01*
X1748832Y-26827838D01*
X1755307Y-26877014D01*
X1795483Y-27026951D01*
X1816394Y-27104993D01*
X1906714Y-27323045D01*
X1906719Y-27323056D01*
X1967214Y-27427835D01*
X2024727Y-27527450D01*
X2024729Y-27527453D01*
X2024730Y-27527454D01*
X2168406Y-27714697D01*
X2168412Y-27714704D01*
X2335295Y-27881587D01*
X2335301Y-27881592D01*
X2522550Y-28025273D01*
X2643861Y-28095312D01*
X2726943Y-28143280D01*
X2726948Y-28143282D01*
X2726951Y-28143284D01*
X2945007Y-28233606D01*
X3172986Y-28294693D01*
X3406989Y-28325500D01*
X3406996Y-28325500D01*
X3643004Y-28325500D01*
X3643011Y-28325500D01*
X3877014Y-28294693D01*
X4104993Y-28233606D01*
X4323049Y-28143284D01*
X4527450Y-28025273D01*
X4714699Y-27881592D01*
X4881592Y-27714699D01*
X5025273Y-27527450D01*
X5143284Y-27323049D01*
X5212554Y-27155817D01*
X9894500Y-27155817D01*
X9894500Y-27294183D01*
X9902237Y-27323056D01*
X9930312Y-27427835D01*
X9930313Y-27427838D01*
X9999492Y-27547661D01*
X9999494Y-27547664D01*
X9999495Y-27547665D01*
X10097335Y-27645505D01*
X10217164Y-27714688D01*
X10350817Y-27750500D01*
X10350819Y-27750500D01*
X10489181Y-27750500D01*
X10489183Y-27750500D01*
X10622836Y-27714688D01*
X10636161Y-27706995D01*
X94824500Y-27706995D01*
X94824500Y-27943004D01*
X94824501Y-27943020D01*
X94855306Y-28177010D01*
X94916394Y-28404993D01*
X95006714Y-28623045D01*
X95006719Y-28623056D01*
X95077677Y-28745957D01*
X95124727Y-28827450D01*
X95124729Y-28827453D01*
X95124730Y-28827454D01*
X95268406Y-29014697D01*
X95268412Y-29014704D01*
X95435295Y-29181587D01*
X95435301Y-29181592D01*
X95622550Y-29325273D01*
X95753918Y-29401118D01*
X95826943Y-29443280D01*
X95826948Y-29443282D01*
X95826951Y-29443284D01*
X96045007Y-29533606D01*
X96272986Y-29594693D01*
X96506989Y-29625500D01*
X96506996Y-29625500D01*
X96743004Y-29625500D01*
X96743011Y-29625500D01*
X96977014Y-29594693D01*
X97204993Y-29533606D01*
X97423049Y-29443284D01*
X97627450Y-29325273D01*
X97814699Y-29181592D01*
X97981592Y-29014699D01*
X98125273Y-28827450D01*
X98243284Y-28623049D01*
X98333606Y-28404993D01*
X98394693Y-28177014D01*
X98425500Y-27943011D01*
X98425500Y-27706989D01*
X98394693Y-27472986D01*
X98333606Y-27245007D01*
X98243284Y-27026951D01*
X98243282Y-27026948D01*
X98243280Y-27026943D01*
X98197506Y-26947661D01*
X98125273Y-26822550D01*
X97981592Y-26635301D01*
X97981587Y-26635295D01*
X97814704Y-26468412D01*
X97814697Y-26468406D01*
X97627454Y-26324730D01*
X97627453Y-26324729D01*
X97627450Y-26324727D01*
X97545957Y-26277677D01*
X97423056Y-26206719D01*
X97423045Y-26206714D01*
X97204993Y-26116394D01*
X96977010Y-26055306D01*
X96743020Y-26024501D01*
X96743017Y-26024500D01*
X96743011Y-26024500D01*
X96506989Y-26024500D01*
X96506983Y-26024500D01*
X96506979Y-26024501D01*
X96272989Y-26055306D01*
X96045006Y-26116394D01*
X95826954Y-26206714D01*
X95826943Y-26206719D01*
X95622545Y-26324730D01*
X95435302Y-26468406D01*
X95435295Y-26468412D01*
X95268412Y-26635295D01*
X95268406Y-26635302D01*
X95124730Y-26822545D01*
X95006719Y-27026943D01*
X95006714Y-27026954D01*
X94916394Y-27245006D01*
X94855306Y-27472989D01*
X94824501Y-27706979D01*
X94824500Y-27706995D01*
X10636161Y-27706995D01*
X10742665Y-27645505D01*
X10840505Y-27547665D01*
X10909688Y-27427836D01*
X10945500Y-27294183D01*
X10945500Y-27155817D01*
X10909688Y-27022164D01*
X10840505Y-26902335D01*
X10742665Y-26804495D01*
X10742664Y-26804494D01*
X10742661Y-26804492D01*
X10622838Y-26735313D01*
X10622837Y-26735312D01*
X10622836Y-26735312D01*
X10489183Y-26699500D01*
X10350817Y-26699500D01*
X10217164Y-26735312D01*
X10217161Y-26735313D01*
X10097338Y-26804492D01*
X10097333Y-26804496D01*
X9999496Y-26902333D01*
X9999492Y-26902338D01*
X9930313Y-27022161D01*
X9930312Y-27022164D01*
X9894500Y-27155817D01*
X5212554Y-27155817D01*
X5233606Y-27104993D01*
X5294693Y-26877014D01*
X5325500Y-26643011D01*
X5325500Y-26555817D01*
X11164500Y-26555817D01*
X11164500Y-26694183D01*
X11198895Y-26822545D01*
X11200312Y-26827835D01*
X11200313Y-26827838D01*
X11269492Y-26947661D01*
X11269494Y-26947664D01*
X11269495Y-26947665D01*
X11367335Y-27045505D01*
X11487164Y-27114688D01*
X11620817Y-27150500D01*
X11620819Y-27150500D01*
X11759181Y-27150500D01*
X11759183Y-27150500D01*
X11892836Y-27114688D01*
X12012665Y-27045505D01*
X12110505Y-26947665D01*
X12179688Y-26827836D01*
X12215500Y-26694183D01*
X12215500Y-26555817D01*
X12179688Y-26422164D01*
X12110505Y-26302335D01*
X12012665Y-26204495D01*
X12012664Y-26204494D01*
X12012661Y-26204492D01*
X11892838Y-26135313D01*
X11892837Y-26135312D01*
X11892836Y-26135312D01*
X11759183Y-26099500D01*
X11620817Y-26099500D01*
X11487164Y-26135312D01*
X11487161Y-26135313D01*
X11367338Y-26204492D01*
X11367333Y-26204496D01*
X11269496Y-26302333D01*
X11269492Y-26302338D01*
X11200313Y-26422161D01*
X11200312Y-26422164D01*
X11164500Y-26555817D01*
X5325500Y-26555817D01*
X5325500Y-26406989D01*
X5294693Y-26172986D01*
X5236503Y-25955817D01*
X8862000Y-25955817D01*
X8862000Y-26094183D01*
X8892153Y-26206714D01*
X8897812Y-26227835D01*
X8897813Y-26227838D01*
X8966992Y-26347661D01*
X8966994Y-26347664D01*
X8966995Y-26347665D01*
X9064835Y-26445505D01*
X9184664Y-26514688D01*
X9318317Y-26550500D01*
X9318319Y-26550500D01*
X9456681Y-26550500D01*
X9456683Y-26550500D01*
X9590336Y-26514688D01*
X9710165Y-26445505D01*
X9808005Y-26347665D01*
X9877188Y-26227836D01*
X9913000Y-26094183D01*
X9913000Y-25955817D01*
X9877188Y-25822164D01*
X9822217Y-25726951D01*
X9808007Y-25702338D01*
X9808003Y-25702333D01*
X9710166Y-25604496D01*
X9710161Y-25604492D01*
X9590338Y-25535313D01*
X9590337Y-25535312D01*
X9590336Y-25535312D01*
X9456683Y-25499500D01*
X9318317Y-25499500D01*
X9184664Y-25535312D01*
X9184661Y-25535313D01*
X9064838Y-25604492D01*
X9064833Y-25604496D01*
X8966996Y-25702333D01*
X8966992Y-25702338D01*
X8897813Y-25822161D01*
X8897812Y-25822164D01*
X8862000Y-25955817D01*
X5236503Y-25955817D01*
X5233606Y-25945007D01*
X5143284Y-25726951D01*
X5143282Y-25726948D01*
X5143280Y-25726943D01*
X5101118Y-25653918D01*
X5025273Y-25522550D01*
X4881592Y-25335301D01*
X4881587Y-25335295D01*
X4714704Y-25168412D01*
X4714697Y-25168406D01*
X4527454Y-25024730D01*
X4527453Y-25024729D01*
X4527450Y-25024727D01*
X4445957Y-24977677D01*
X4323056Y-24906719D01*
X4323045Y-24906714D01*
X4104993Y-24816394D01*
X3912024Y-24764688D01*
X3877014Y-24755307D01*
X3877013Y-24755306D01*
X3877010Y-24755306D01*
X3643020Y-24724501D01*
X3643017Y-24724500D01*
X3643011Y-24724500D01*
X3406989Y-24724500D01*
X3406983Y-24724500D01*
X3406979Y-24724501D01*
X3172989Y-24755306D01*
X2945006Y-24816394D01*
X2726954Y-24906714D01*
X2726943Y-24906719D01*
X2522545Y-25024730D01*
X2335302Y-25168406D01*
X2335295Y-25168412D01*
X2168412Y-25335295D01*
X2168406Y-25335302D01*
X2024730Y-25522545D01*
X1906719Y-25726943D01*
X1906714Y-25726954D01*
X1816394Y-25945006D01*
X1755306Y-26172989D01*
X1724501Y-26406979D01*
X1724500Y-26406995D01*
X625000Y-26406995D01*
X625000Y-24205817D01*
X10587000Y-24205817D01*
X10587000Y-24344183D01*
X10590059Y-24355597D01*
X10622812Y-24477835D01*
X10622813Y-24477838D01*
X10691992Y-24597661D01*
X10691994Y-24597664D01*
X10691995Y-24597665D01*
X10789835Y-24695505D01*
X10909664Y-24764688D01*
X11043317Y-24800500D01*
X11043319Y-24800500D01*
X11181681Y-24800500D01*
X11181683Y-24800500D01*
X11315336Y-24764688D01*
X11435165Y-24695505D01*
X11533005Y-24597665D01*
X11602188Y-24477836D01*
X11624165Y-24395817D01*
X12699500Y-24395817D01*
X12699500Y-24534182D01*
X12735312Y-24667835D01*
X12735313Y-24667838D01*
X12804492Y-24787661D01*
X12804494Y-24787664D01*
X12804495Y-24787665D01*
X12902335Y-24885505D01*
X13022164Y-24954688D01*
X13155817Y-24990500D01*
X13155819Y-24990500D01*
X13294181Y-24990500D01*
X13294183Y-24990500D01*
X13427836Y-24954688D01*
X13547665Y-24885505D01*
X13645505Y-24787665D01*
X13714688Y-24667836D01*
X13750500Y-24534183D01*
X13750500Y-24395817D01*
X13714688Y-24262164D01*
X13645505Y-24142335D01*
X13547665Y-24044495D01*
X13547664Y-24044494D01*
X13547661Y-24044492D01*
X13427838Y-23975313D01*
X13427837Y-23975312D01*
X13427836Y-23975312D01*
X13294183Y-23939500D01*
X13155817Y-23939500D01*
X13022164Y-23975312D01*
X13022161Y-23975313D01*
X12902338Y-24044492D01*
X12902333Y-24044496D01*
X12804496Y-24142333D01*
X12804492Y-24142338D01*
X12735313Y-24262161D01*
X12735312Y-24262164D01*
X12699500Y-24395817D01*
X11624165Y-24395817D01*
X11638000Y-24344183D01*
X11638000Y-24205817D01*
X11602188Y-24072164D01*
X11533005Y-23952335D01*
X11435165Y-23854495D01*
X11435164Y-23854494D01*
X11435161Y-23854492D01*
X11315338Y-23785313D01*
X11315337Y-23785312D01*
X11315336Y-23785312D01*
X11181683Y-23749500D01*
X11043317Y-23749500D01*
X10909664Y-23785312D01*
X10909661Y-23785313D01*
X10789838Y-23854492D01*
X10789833Y-23854496D01*
X10691996Y-23952333D01*
X10691992Y-23952338D01*
X10622813Y-24072161D01*
X10622812Y-24072164D01*
X10587000Y-24205817D01*
X625000Y-24205817D01*
X625000Y-23255817D01*
X11687000Y-23255817D01*
X11687000Y-23394182D01*
X11722812Y-23527835D01*
X11722813Y-23527838D01*
X11791992Y-23647661D01*
X11791994Y-23647664D01*
X11791995Y-23647665D01*
X11889835Y-23745505D01*
X11889836Y-23745506D01*
X11889838Y-23745507D01*
X11949749Y-23780096D01*
X12009664Y-23814688D01*
X12143317Y-23850500D01*
X12143319Y-23850500D01*
X12281681Y-23850500D01*
X12281683Y-23850500D01*
X12415336Y-23814688D01*
X12535165Y-23745505D01*
X12633005Y-23647665D01*
X12702188Y-23527836D01*
X12738000Y-23394183D01*
X12738000Y-23255817D01*
X12702188Y-23122164D01*
X12647728Y-23027836D01*
X12633007Y-23002338D01*
X12633003Y-23002333D01*
X12535166Y-22904496D01*
X12535161Y-22904492D01*
X12415338Y-22835313D01*
X12415337Y-22835312D01*
X12415336Y-22835312D01*
X12281683Y-22799500D01*
X12143317Y-22799500D01*
X12009664Y-22835312D01*
X12009661Y-22835313D01*
X11889838Y-22904492D01*
X11889833Y-22904496D01*
X11791996Y-23002333D01*
X11791992Y-23002338D01*
X11722813Y-23122161D01*
X11722812Y-23122164D01*
X11687000Y-23255817D01*
X625000Y-23255817D01*
X625000Y-22455817D01*
X23299500Y-22455817D01*
X23299500Y-22594183D01*
X23324818Y-22688669D01*
X23335312Y-22727835D01*
X23335313Y-22727838D01*
X23404492Y-22847661D01*
X23404494Y-22847664D01*
X23404495Y-22847665D01*
X23502335Y-22945505D01*
X23502336Y-22945506D01*
X23502338Y-22945507D01*
X23562249Y-22980096D01*
X23622164Y-23014688D01*
X23755817Y-23050500D01*
X23755819Y-23050500D01*
X23894181Y-23050500D01*
X23894183Y-23050500D01*
X24027836Y-23014688D01*
X24147665Y-22945505D01*
X24245505Y-22847665D01*
X24298533Y-22755817D01*
X26899500Y-22755817D01*
X26899500Y-22894183D01*
X26931789Y-23014686D01*
X26935312Y-23027835D01*
X26935313Y-23027838D01*
X27004492Y-23147661D01*
X27004494Y-23147663D01*
X27004495Y-23147665D01*
X27102335Y-23245505D01*
X27222164Y-23314688D01*
X27355817Y-23350500D01*
X27355819Y-23350500D01*
X27494181Y-23350500D01*
X27494183Y-23350500D01*
X27627836Y-23314688D01*
X27747665Y-23245505D01*
X27845505Y-23147665D01*
X27914688Y-23027836D01*
X27950500Y-22894183D01*
X27950500Y-22755817D01*
X30899500Y-22755817D01*
X30899500Y-22894183D01*
X30931789Y-23014686D01*
X30935312Y-23027835D01*
X30935313Y-23027838D01*
X31004492Y-23147661D01*
X31004494Y-23147663D01*
X31004495Y-23147665D01*
X31102335Y-23245505D01*
X31222164Y-23314688D01*
X31355817Y-23350500D01*
X31355819Y-23350500D01*
X31494181Y-23350500D01*
X31494183Y-23350500D01*
X31627836Y-23314688D01*
X31747665Y-23245505D01*
X31845505Y-23147665D01*
X31914688Y-23027836D01*
X31914688Y-23027833D01*
X31917612Y-23022770D01*
X31968179Y-22974554D01*
X32036786Y-22961330D01*
X32101651Y-22987298D01*
X32132388Y-23022770D01*
X32135311Y-23027833D01*
X32135312Y-23027836D01*
X32204495Y-23147665D01*
X32302335Y-23245505D01*
X32422164Y-23314688D01*
X32555817Y-23350500D01*
X32555819Y-23350500D01*
X32694181Y-23350500D01*
X32694183Y-23350500D01*
X32827836Y-23314688D01*
X32947665Y-23245505D01*
X33045505Y-23147665D01*
X33114688Y-23027836D01*
X33150500Y-22894183D01*
X33150500Y-22755817D01*
X33114688Y-22622164D01*
X33045505Y-22502335D01*
X32998987Y-22455817D01*
X35699500Y-22455817D01*
X35699500Y-22594183D01*
X35724818Y-22688669D01*
X35735312Y-22727835D01*
X35735313Y-22727838D01*
X35804492Y-22847661D01*
X35804494Y-22847664D01*
X35804495Y-22847665D01*
X35902335Y-22945505D01*
X35902336Y-22945506D01*
X35902338Y-22945507D01*
X35962249Y-22980096D01*
X36022164Y-23014688D01*
X36155817Y-23050500D01*
X36155819Y-23050500D01*
X36294181Y-23050500D01*
X36294183Y-23050500D01*
X36427836Y-23014688D01*
X36547665Y-22945505D01*
X36645505Y-22847665D01*
X36714688Y-22727836D01*
X36750500Y-22594183D01*
X36750500Y-22455817D01*
X36714688Y-22322164D01*
X36645505Y-22202335D01*
X36547665Y-22104495D01*
X36547664Y-22104494D01*
X36547661Y-22104492D01*
X36427838Y-22035313D01*
X36427837Y-22035312D01*
X36427836Y-22035312D01*
X36294183Y-21999500D01*
X36155817Y-21999500D01*
X36022164Y-22035312D01*
X36022161Y-22035313D01*
X35902338Y-22104492D01*
X35902333Y-22104496D01*
X35804496Y-22202333D01*
X35804492Y-22202338D01*
X35735313Y-22322161D01*
X35735312Y-22322164D01*
X35699500Y-22455817D01*
X32998987Y-22455817D01*
X32947665Y-22404495D01*
X32947664Y-22404494D01*
X32947661Y-22404492D01*
X32827838Y-22335313D01*
X32827837Y-22335312D01*
X32827836Y-22335312D01*
X32694183Y-22299500D01*
X32555817Y-22299500D01*
X32422164Y-22335312D01*
X32422161Y-22335313D01*
X32302338Y-22404492D01*
X32302333Y-22404496D01*
X32204496Y-22502333D01*
X32204492Y-22502338D01*
X32132387Y-22627230D01*
X32081820Y-22675445D01*
X32013213Y-22688669D01*
X31948349Y-22662701D01*
X31917613Y-22627230D01*
X31845507Y-22502338D01*
X31845506Y-22502336D01*
X31845505Y-22502335D01*
X31747665Y-22404495D01*
X31747664Y-22404494D01*
X31747661Y-22404492D01*
X31627838Y-22335313D01*
X31627837Y-22335312D01*
X31627836Y-22335312D01*
X31494183Y-22299500D01*
X31355817Y-22299500D01*
X31222164Y-22335312D01*
X31222161Y-22335313D01*
X31102338Y-22404492D01*
X31102333Y-22404496D01*
X31004496Y-22502333D01*
X31004492Y-22502338D01*
X30935313Y-22622161D01*
X30935312Y-22622164D01*
X30899500Y-22755817D01*
X27950500Y-22755817D01*
X27914688Y-22622164D01*
X27845505Y-22502335D01*
X27747665Y-22404495D01*
X27747664Y-22404494D01*
X27747661Y-22404492D01*
X27627838Y-22335313D01*
X27627837Y-22335312D01*
X27627836Y-22335312D01*
X27494183Y-22299500D01*
X27355817Y-22299500D01*
X27222164Y-22335312D01*
X27222161Y-22335313D01*
X27102338Y-22404492D01*
X27102333Y-22404496D01*
X27004496Y-22502333D01*
X27004492Y-22502338D01*
X26935313Y-22622161D01*
X26935312Y-22622164D01*
X26899500Y-22755817D01*
X24298533Y-22755817D01*
X24314688Y-22727836D01*
X24350500Y-22594183D01*
X24350500Y-22455817D01*
X24314688Y-22322164D01*
X24245505Y-22202335D01*
X24147665Y-22104495D01*
X24147664Y-22104494D01*
X24147661Y-22104492D01*
X24027838Y-22035313D01*
X24027837Y-22035312D01*
X24027836Y-22035312D01*
X23894183Y-21999500D01*
X23755817Y-21999500D01*
X23622164Y-22035312D01*
X23622161Y-22035313D01*
X23502338Y-22104492D01*
X23502333Y-22104496D01*
X23404496Y-22202333D01*
X23404492Y-22202338D01*
X23335313Y-22322161D01*
X23335312Y-22322164D01*
X23299500Y-22455817D01*
X625000Y-22455817D01*
X625000Y-21255817D01*
X10009500Y-21255817D01*
X10009500Y-21394183D01*
X10041654Y-21514182D01*
X10045312Y-21527835D01*
X10045313Y-21527838D01*
X10114492Y-21647661D01*
X10114494Y-21647664D01*
X10114495Y-21647665D01*
X10212335Y-21745505D01*
X10332164Y-21814688D01*
X10465817Y-21850500D01*
X10465819Y-21850500D01*
X10604181Y-21850500D01*
X10604183Y-21850500D01*
X10737836Y-21814688D01*
X10857665Y-21745505D01*
X10955505Y-21647665D01*
X11008533Y-21555817D01*
X24899500Y-21555817D01*
X24899500Y-21694183D01*
X24931789Y-21814686D01*
X24935312Y-21827835D01*
X24935313Y-21827838D01*
X25004492Y-21947661D01*
X25004494Y-21947664D01*
X25004495Y-21947665D01*
X25102335Y-22045505D01*
X25222164Y-22114688D01*
X25355817Y-22150500D01*
X25355819Y-22150500D01*
X25494181Y-22150500D01*
X25494183Y-22150500D01*
X25627836Y-22114688D01*
X25747665Y-22045505D01*
X25845505Y-21947665D01*
X25914688Y-21827836D01*
X25950500Y-21694183D01*
X25950500Y-21555817D01*
X25914688Y-21422164D01*
X25887930Y-21375817D01*
X27749500Y-21375817D01*
X27749500Y-21514183D01*
X27785267Y-21647666D01*
X27785312Y-21647835D01*
X27785313Y-21647838D01*
X27854492Y-21767661D01*
X27854494Y-21767664D01*
X27854495Y-21767665D01*
X27952335Y-21865505D01*
X28072164Y-21934688D01*
X28205817Y-21970500D01*
X28205819Y-21970500D01*
X28344181Y-21970500D01*
X28344183Y-21970500D01*
X28477836Y-21934688D01*
X28597665Y-21865505D01*
X28695505Y-21767665D01*
X28698601Y-21762301D01*
X28749167Y-21714085D01*
X28817774Y-21700860D01*
X28882639Y-21726826D01*
X28923169Y-21783739D01*
X28925765Y-21792205D01*
X28935312Y-21827837D01*
X28935313Y-21827838D01*
X29004492Y-21947661D01*
X29004494Y-21947664D01*
X29004495Y-21947665D01*
X29102335Y-22045505D01*
X29222164Y-22114688D01*
X29355817Y-22150500D01*
X29355819Y-22150500D01*
X29494181Y-22150500D01*
X29494183Y-22150500D01*
X29627836Y-22114688D01*
X29747665Y-22045505D01*
X29845505Y-21947665D01*
X29914688Y-21827836D01*
X29950500Y-21694183D01*
X29950500Y-21555817D01*
X34099500Y-21555817D01*
X34099500Y-21694183D01*
X34131789Y-21814686D01*
X34135312Y-21827835D01*
X34135313Y-21827838D01*
X34204492Y-21947661D01*
X34204494Y-21947664D01*
X34204495Y-21947665D01*
X34302335Y-22045505D01*
X34422164Y-22114688D01*
X34555817Y-22150500D01*
X34555819Y-22150500D01*
X34694181Y-22150500D01*
X34694183Y-22150500D01*
X34827836Y-22114688D01*
X34947665Y-22045505D01*
X35045505Y-21947665D01*
X35114688Y-21827836D01*
X35150500Y-21694183D01*
X35150500Y-21555817D01*
X35127491Y-21469945D01*
X35129154Y-21400099D01*
X35168316Y-21342236D01*
X35215171Y-21318081D01*
X35227836Y-21314688D01*
X35347665Y-21245505D01*
X35445505Y-21147665D01*
X35514688Y-21027836D01*
X35550500Y-20894183D01*
X35550500Y-20755817D01*
X35514688Y-20622164D01*
X35452637Y-20514688D01*
X35445507Y-20502338D01*
X35445503Y-20502333D01*
X35347666Y-20404496D01*
X35347661Y-20404492D01*
X35227838Y-20335313D01*
X35227837Y-20335312D01*
X35227836Y-20335312D01*
X35094183Y-20299500D01*
X34955817Y-20299500D01*
X34822164Y-20335312D01*
X34822161Y-20335313D01*
X34702338Y-20404492D01*
X34702333Y-20404496D01*
X34604496Y-20502333D01*
X34604492Y-20502338D01*
X34535313Y-20622161D01*
X34535312Y-20622164D01*
X34499500Y-20755817D01*
X34499500Y-20894183D01*
X34506284Y-20919500D01*
X34522508Y-20980051D01*
X34520845Y-21049901D01*
X34481682Y-21107763D01*
X34434830Y-21131918D01*
X34422165Y-21135311D01*
X34422161Y-21135313D01*
X34302338Y-21204492D01*
X34302333Y-21204496D01*
X34204496Y-21302333D01*
X34204492Y-21302338D01*
X34135313Y-21422161D01*
X34135312Y-21422164D01*
X34099500Y-21555817D01*
X29950500Y-21555817D01*
X29914688Y-21422164D01*
X29848607Y-21307707D01*
X29845507Y-21302338D01*
X29845503Y-21302333D01*
X29747666Y-21204496D01*
X29747661Y-21204492D01*
X29627838Y-21135313D01*
X29627837Y-21135312D01*
X29627836Y-21135312D01*
X29494183Y-21099500D01*
X29355817Y-21099500D01*
X29222164Y-21135312D01*
X29222161Y-21135313D01*
X29102338Y-21204492D01*
X29102333Y-21204496D01*
X29004496Y-21302333D01*
X29004490Y-21302341D01*
X29001392Y-21307707D01*
X28950822Y-21355919D01*
X28882214Y-21369138D01*
X28817351Y-21343165D01*
X28776826Y-21286248D01*
X28774234Y-21277792D01*
X28768346Y-21255819D01*
X28764688Y-21242164D01*
X28701038Y-21131918D01*
X28695507Y-21122338D01*
X28695503Y-21122333D01*
X28597666Y-21024496D01*
X28597661Y-21024492D01*
X28477838Y-20955313D01*
X28477837Y-20955312D01*
X28477836Y-20955312D01*
X28344183Y-20919500D01*
X28205817Y-20919500D01*
X28072164Y-20955312D01*
X28072161Y-20955313D01*
X27952338Y-21024492D01*
X27952333Y-21024496D01*
X27854496Y-21122333D01*
X27854492Y-21122338D01*
X27785313Y-21242161D01*
X27785312Y-21242164D01*
X27749500Y-21375817D01*
X25887930Y-21375817D01*
X25848607Y-21307707D01*
X25845507Y-21302338D01*
X25845503Y-21302333D01*
X25747666Y-21204496D01*
X25747661Y-21204492D01*
X25627838Y-21135313D01*
X25627837Y-21135312D01*
X25627836Y-21135312D01*
X25494183Y-21099500D01*
X25355817Y-21099500D01*
X25222164Y-21135312D01*
X25222161Y-21135313D01*
X25102338Y-21204492D01*
X25102333Y-21204496D01*
X25004496Y-21302333D01*
X25004492Y-21302338D01*
X24935313Y-21422161D01*
X24935312Y-21422164D01*
X24899500Y-21555817D01*
X11008533Y-21555817D01*
X11024688Y-21527836D01*
X11060500Y-21394183D01*
X11060500Y-21255817D01*
X11024688Y-21122164D01*
X10970228Y-21027836D01*
X10955507Y-21002338D01*
X10955503Y-21002333D01*
X10857666Y-20904496D01*
X10857661Y-20904492D01*
X10737838Y-20835313D01*
X10737837Y-20835312D01*
X10737836Y-20835312D01*
X10604183Y-20799500D01*
X10465817Y-20799500D01*
X10332164Y-20835312D01*
X10332161Y-20835313D01*
X10212338Y-20904492D01*
X10212333Y-20904496D01*
X10114496Y-21002333D01*
X10114492Y-21002338D01*
X10045313Y-21122161D01*
X10045312Y-21122164D01*
X10009500Y-21255817D01*
X625000Y-21255817D01*
X625000Y-19395817D01*
X11249500Y-19395817D01*
X11249500Y-19534183D01*
X11268341Y-19604497D01*
X11285312Y-19667835D01*
X11285313Y-19667838D01*
X11354492Y-19787661D01*
X11354494Y-19787664D01*
X11354495Y-19787665D01*
X11452335Y-19885505D01*
X11572164Y-19954688D01*
X11705817Y-19990500D01*
X11705819Y-19990500D01*
X11844181Y-19990500D01*
X11844183Y-19990500D01*
X11977836Y-19954688D01*
X12097665Y-19885505D01*
X12195505Y-19787665D01*
X12264688Y-19667836D01*
X12294703Y-19555817D01*
X23299500Y-19555817D01*
X23299500Y-19694183D01*
X23333792Y-19822161D01*
X23335312Y-19827835D01*
X23335313Y-19827838D01*
X23404492Y-19947661D01*
X23404494Y-19947663D01*
X23404495Y-19947665D01*
X23502335Y-20045505D01*
X23622164Y-20114688D01*
X23755817Y-20150500D01*
X23755819Y-20150500D01*
X23894181Y-20150500D01*
X23894183Y-20150500D01*
X24027836Y-20114688D01*
X24147665Y-20045505D01*
X24237353Y-19955817D01*
X26099500Y-19955817D01*
X26099500Y-20094183D01*
X26129192Y-20204993D01*
X26135312Y-20227835D01*
X26135313Y-20227838D01*
X26204492Y-20347661D01*
X26204494Y-20347664D01*
X26204495Y-20347665D01*
X26302335Y-20445505D01*
X26422164Y-20514688D01*
X26555817Y-20550500D01*
X26555819Y-20550500D01*
X26694181Y-20550500D01*
X26694183Y-20550500D01*
X26827836Y-20514688D01*
X26947665Y-20445505D01*
X27045505Y-20347665D01*
X27114688Y-20227836D01*
X27150500Y-20094183D01*
X27150500Y-19955817D01*
X27114688Y-19822164D01*
X27045505Y-19702335D01*
X26947665Y-19604495D01*
X26947660Y-19604492D01*
X26947659Y-19604491D01*
X26827838Y-19535313D01*
X26827837Y-19535312D01*
X26827836Y-19535312D01*
X26722155Y-19506995D01*
X94824500Y-19506995D01*
X94824500Y-19743004D01*
X94824501Y-19743020D01*
X94852516Y-19955819D01*
X94855307Y-19977014D01*
X94892197Y-20114688D01*
X94916394Y-20204993D01*
X95006714Y-20423045D01*
X95006719Y-20423056D01*
X95059623Y-20514687D01*
X95124727Y-20627450D01*
X95124729Y-20627453D01*
X95124730Y-20627454D01*
X95268406Y-20814697D01*
X95268412Y-20814704D01*
X95435295Y-20981587D01*
X95435301Y-20981592D01*
X95622550Y-21125273D01*
X95753918Y-21201118D01*
X95826943Y-21243280D01*
X95826948Y-21243282D01*
X95826951Y-21243284D01*
X96045007Y-21333606D01*
X96272986Y-21394693D01*
X96506989Y-21425500D01*
X96506996Y-21425500D01*
X96743004Y-21425500D01*
X96743011Y-21425500D01*
X96977014Y-21394693D01*
X97204993Y-21333606D01*
X97423049Y-21243284D01*
X97627450Y-21125273D01*
X97814699Y-20981592D01*
X97981592Y-20814699D01*
X98125273Y-20627450D01*
X98243284Y-20423049D01*
X98333606Y-20204993D01*
X98394693Y-19977014D01*
X98425500Y-19743011D01*
X98425500Y-19506989D01*
X98394693Y-19272986D01*
X98333606Y-19045007D01*
X98243284Y-18826951D01*
X98243282Y-18826948D01*
X98243280Y-18826943D01*
X98186059Y-18727835D01*
X98125273Y-18622550D01*
X97997336Y-18455819D01*
X97981593Y-18435302D01*
X97981587Y-18435295D01*
X97814704Y-18268412D01*
X97814697Y-18268406D01*
X97627454Y-18124730D01*
X97627453Y-18124729D01*
X97627450Y-18124727D01*
X97545957Y-18077677D01*
X97423056Y-18006719D01*
X97423045Y-18006714D01*
X97204993Y-17916394D01*
X96977010Y-17855306D01*
X96743020Y-17824501D01*
X96743017Y-17824500D01*
X96743011Y-17824500D01*
X96506989Y-17824500D01*
X96506983Y-17824500D01*
X96506979Y-17824501D01*
X96272989Y-17855306D01*
X96045006Y-17916394D01*
X95826954Y-18006714D01*
X95826943Y-18006719D01*
X95622545Y-18124730D01*
X95435302Y-18268406D01*
X95435295Y-18268412D01*
X95268412Y-18435295D01*
X95268406Y-18435302D01*
X95124730Y-18622545D01*
X95006719Y-18826943D01*
X95006714Y-18826954D01*
X94916394Y-19045006D01*
X94855306Y-19272989D01*
X94824501Y-19506979D01*
X94824500Y-19506995D01*
X26722155Y-19506995D01*
X26694183Y-19499500D01*
X26555817Y-19499500D01*
X26422164Y-19535312D01*
X26422161Y-19535313D01*
X26302338Y-19604492D01*
X26302333Y-19604496D01*
X26204496Y-19702333D01*
X26204492Y-19702338D01*
X26135313Y-19822161D01*
X26135312Y-19822164D01*
X26099500Y-19955817D01*
X24237353Y-19955817D01*
X24245505Y-19947665D01*
X24314688Y-19827836D01*
X24350500Y-19694183D01*
X24350500Y-19555817D01*
X24314688Y-19422164D01*
X24252637Y-19314688D01*
X24245507Y-19302338D01*
X24245503Y-19302333D01*
X24147666Y-19204496D01*
X24147661Y-19204492D01*
X24027838Y-19135313D01*
X24027837Y-19135312D01*
X24027836Y-19135312D01*
X23894183Y-19099500D01*
X23755817Y-19099500D01*
X23622164Y-19135312D01*
X23622161Y-19135313D01*
X23502338Y-19204492D01*
X23502333Y-19204496D01*
X23404496Y-19302333D01*
X23404492Y-19302338D01*
X23335313Y-19422161D01*
X23335312Y-19422164D01*
X23299500Y-19555817D01*
X12294703Y-19555817D01*
X12300500Y-19534183D01*
X12300500Y-19395817D01*
X12264688Y-19262164D01*
X12198583Y-19147666D01*
X12195507Y-19142338D01*
X12195503Y-19142333D01*
X12097666Y-19044496D01*
X12097661Y-19044492D01*
X11977838Y-18975313D01*
X11977837Y-18975312D01*
X11977836Y-18975312D01*
X11844183Y-18939500D01*
X11705817Y-18939500D01*
X11572164Y-18975312D01*
X11572161Y-18975313D01*
X11452338Y-19044492D01*
X11452333Y-19044496D01*
X11354496Y-19142333D01*
X11354492Y-19142338D01*
X11285313Y-19262161D01*
X11285312Y-19262164D01*
X11249500Y-19395817D01*
X625000Y-19395817D01*
X625000Y-18455817D01*
X12469500Y-18455817D01*
X12469500Y-18594183D01*
X12476998Y-18622164D01*
X12505312Y-18727835D01*
X12505313Y-18727838D01*
X12574492Y-18847661D01*
X12574494Y-18847664D01*
X12574495Y-18847665D01*
X12672335Y-18945505D01*
X12792164Y-19014688D01*
X12925817Y-19050500D01*
X12925819Y-19050500D01*
X13064181Y-19050500D01*
X13064183Y-19050500D01*
X13197836Y-19014688D01*
X13317665Y-18945505D01*
X13415505Y-18847665D01*
X13484688Y-18727836D01*
X13520500Y-18594183D01*
X13520500Y-18455817D01*
X13484688Y-18322164D01*
X13415505Y-18202335D01*
X13317665Y-18104495D01*
X13317664Y-18104494D01*
X13317661Y-18104492D01*
X13197838Y-18035313D01*
X13197837Y-18035312D01*
X13197836Y-18035312D01*
X13064183Y-17999500D01*
X12925817Y-17999500D01*
X12792164Y-18035312D01*
X12792161Y-18035313D01*
X12672338Y-18104492D01*
X12672333Y-18104496D01*
X12574496Y-18202333D01*
X12574492Y-18202338D01*
X12505313Y-18322161D01*
X12505312Y-18322164D01*
X12469500Y-18455817D01*
X625000Y-18455817D01*
X625000Y-17055817D01*
X12469500Y-17055817D01*
X12469500Y-17194183D01*
X12476199Y-17219182D01*
X12505312Y-17327835D01*
X12505313Y-17327838D01*
X12574492Y-17447661D01*
X12574494Y-17447664D01*
X12574495Y-17447665D01*
X12672335Y-17545505D01*
X12792164Y-17614688D01*
X12925817Y-17650500D01*
X12925819Y-17650500D01*
X13064181Y-17650500D01*
X13064183Y-17650500D01*
X13197836Y-17614688D01*
X13317665Y-17545505D01*
X13415505Y-17447665D01*
X13484688Y-17327836D01*
X13520500Y-17194183D01*
X13520500Y-17055817D01*
X13484688Y-16922164D01*
X13435518Y-16836998D01*
X13415507Y-16802338D01*
X13415503Y-16802333D01*
X13317666Y-16704496D01*
X13317661Y-16704492D01*
X13197838Y-16635313D01*
X13197837Y-16635312D01*
X13197836Y-16635312D01*
X13064183Y-16599500D01*
X12925817Y-16599500D01*
X12792164Y-16635312D01*
X12792161Y-16635313D01*
X12672338Y-16704492D01*
X12672333Y-16704496D01*
X12574496Y-16802333D01*
X12574492Y-16802338D01*
X12505313Y-16922161D01*
X12505312Y-16922164D01*
X12469500Y-17055817D01*
X625000Y-17055817D01*
X625000Y-14555817D01*
X2424500Y-14555817D01*
X2424500Y-14694183D01*
X2458792Y-14822161D01*
X2460312Y-14827835D01*
X2460313Y-14827838D01*
X2529492Y-14947661D01*
X2529494Y-14947663D01*
X2529495Y-14947665D01*
X2627335Y-15045505D01*
X2747164Y-15114688D01*
X2880817Y-15150500D01*
X2880819Y-15150500D01*
X3019181Y-15150500D01*
X3019183Y-15150500D01*
X3152836Y-15114688D01*
X3272665Y-15045505D01*
X3362353Y-14955817D01*
X9469500Y-14955817D01*
X9469500Y-15094183D01*
X9483831Y-15147665D01*
X9505312Y-15227835D01*
X9505313Y-15227838D01*
X9574492Y-15347661D01*
X9574494Y-15347664D01*
X9574495Y-15347665D01*
X9672335Y-15445505D01*
X9792164Y-15514688D01*
X9925817Y-15550500D01*
X9925819Y-15550500D01*
X10064181Y-15550500D01*
X10064183Y-15550500D01*
X10197836Y-15514688D01*
X10317665Y-15445505D01*
X10415505Y-15347665D01*
X10484688Y-15227836D01*
X10520500Y-15094183D01*
X10520500Y-14955817D01*
X10484688Y-14822164D01*
X10415505Y-14702335D01*
X10317665Y-14604495D01*
X10317664Y-14604494D01*
X10317661Y-14604492D01*
X10197838Y-14535313D01*
X10197837Y-14535312D01*
X10197836Y-14535312D01*
X10064183Y-14499500D01*
X9925817Y-14499500D01*
X9792164Y-14535312D01*
X9792161Y-14535313D01*
X9672338Y-14604492D01*
X9672333Y-14604496D01*
X9574496Y-14702333D01*
X9574492Y-14702338D01*
X9505313Y-14822161D01*
X9505312Y-14822164D01*
X9469500Y-14955817D01*
X3362353Y-14955817D01*
X3370505Y-14947665D01*
X3439688Y-14827836D01*
X3475500Y-14694183D01*
X3475500Y-14555817D01*
X3439688Y-14422164D01*
X3370505Y-14302335D01*
X3272665Y-14204495D01*
X3272664Y-14204494D01*
X3272661Y-14204492D01*
X3152838Y-14135313D01*
X3152837Y-14135312D01*
X3152836Y-14135312D01*
X3019183Y-14099500D01*
X2880817Y-14099500D01*
X2747164Y-14135312D01*
X2747161Y-14135313D01*
X2627338Y-14204492D01*
X2627333Y-14204496D01*
X2529496Y-14302333D01*
X2529492Y-14302338D01*
X2460313Y-14422161D01*
X2460312Y-14422164D01*
X2424500Y-14555817D01*
X625000Y-14555817D01*
X625000Y-13555817D01*
X12469500Y-13555817D01*
X12469500Y-13694183D01*
X12503792Y-13822161D01*
X12505312Y-13827835D01*
X12505313Y-13827838D01*
X12574492Y-13947661D01*
X12574494Y-13947664D01*
X12574495Y-13947665D01*
X12672335Y-14045505D01*
X12792164Y-14114688D01*
X12925817Y-14150500D01*
X12925819Y-14150500D01*
X13064181Y-14150500D01*
X13064183Y-14150500D01*
X13197836Y-14114688D01*
X13317665Y-14045505D01*
X13415505Y-13947665D01*
X13484688Y-13827836D01*
X13520500Y-13694183D01*
X13520500Y-13555817D01*
X13484688Y-13422164D01*
X13435518Y-13336999D01*
X13415507Y-13302338D01*
X13415503Y-13302333D01*
X13317666Y-13204496D01*
X13317661Y-13204492D01*
X13197838Y-13135313D01*
X13197837Y-13135312D01*
X13197836Y-13135312D01*
X13064183Y-13099500D01*
X12925817Y-13099500D01*
X12792164Y-13135312D01*
X12792161Y-13135313D01*
X12672338Y-13204492D01*
X12672333Y-13204496D01*
X12574496Y-13302333D01*
X12574492Y-13302338D01*
X12505313Y-13422161D01*
X12505312Y-13422164D01*
X12469500Y-13555817D01*
X625000Y-13555817D01*
X625000Y-12855817D01*
X9469500Y-12855817D01*
X9469500Y-12994183D01*
X9498663Y-13103019D01*
X9505312Y-13127835D01*
X9505313Y-13127838D01*
X9574492Y-13247661D01*
X9574494Y-13247664D01*
X9574495Y-13247665D01*
X9672335Y-13345505D01*
X9792164Y-13414688D01*
X9925817Y-13450500D01*
X9925819Y-13450500D01*
X10064181Y-13450500D01*
X10064183Y-13450500D01*
X10197836Y-13414688D01*
X10317665Y-13345505D01*
X10415505Y-13247665D01*
X10484688Y-13127836D01*
X10520500Y-12994183D01*
X10520500Y-12855817D01*
X10484688Y-12722164D01*
X10445916Y-12655008D01*
X10415507Y-12602338D01*
X10415503Y-12602333D01*
X10317666Y-12504496D01*
X10317661Y-12504492D01*
X10197838Y-12435313D01*
X10197837Y-12435312D01*
X10197836Y-12435312D01*
X10064183Y-12399500D01*
X9925817Y-12399500D01*
X9792164Y-12435312D01*
X9792161Y-12435313D01*
X9672338Y-12504492D01*
X9672333Y-12504496D01*
X9574496Y-12602333D01*
X9574492Y-12602338D01*
X9505313Y-12722161D01*
X9505312Y-12722164D01*
X9469500Y-12855817D01*
X625000Y-12855817D01*
X625000Y-11455817D01*
X9469500Y-11455817D01*
X9469500Y-11594183D01*
X9496295Y-11694182D01*
X9505312Y-11727835D01*
X9505313Y-11727838D01*
X9574492Y-11847661D01*
X9574494Y-11847664D01*
X9574495Y-11847665D01*
X9672335Y-11945505D01*
X9792164Y-12014688D01*
X9925817Y-12050500D01*
X9925819Y-12050500D01*
X10064181Y-12050500D01*
X10064183Y-12050500D01*
X10197836Y-12014688D01*
X10317665Y-11945505D01*
X10415505Y-11847665D01*
X10484688Y-11727836D01*
X10520500Y-11594183D01*
X10520500Y-11455817D01*
X10484688Y-11322164D01*
X10416752Y-11204495D01*
X10415507Y-11202338D01*
X10415503Y-11202333D01*
X10317666Y-11104496D01*
X10317661Y-11104492D01*
X10197838Y-11035313D01*
X10197837Y-11035312D01*
X10197836Y-11035312D01*
X10064183Y-10999500D01*
X9925817Y-10999500D01*
X9792164Y-11035312D01*
X9792161Y-11035313D01*
X9672338Y-11104492D01*
X9672333Y-11104496D01*
X9574496Y-11202333D01*
X9574492Y-11202338D01*
X9505313Y-11322161D01*
X9505312Y-11322164D01*
X9469500Y-11455817D01*
X625000Y-11455817D01*
X625000Y-9355817D01*
X12469500Y-9355817D01*
X12469500Y-9494183D01*
X12496295Y-9594182D01*
X12505312Y-9627835D01*
X12505313Y-9627838D01*
X12574492Y-9747661D01*
X12574494Y-9747664D01*
X12574495Y-9747665D01*
X12672335Y-9845505D01*
X12792164Y-9914688D01*
X12925817Y-9950500D01*
X12925819Y-9950500D01*
X13064181Y-9950500D01*
X13064183Y-9950500D01*
X13197836Y-9914688D01*
X13317665Y-9845505D01*
X13415505Y-9747665D01*
X13484688Y-9627836D01*
X13520500Y-9494183D01*
X13520500Y-9355817D01*
X13484688Y-9222164D01*
X13435518Y-9136999D01*
X13415507Y-9102338D01*
X13415503Y-9102333D01*
X13317666Y-9004496D01*
X13317661Y-9004492D01*
X13197838Y-8935313D01*
X13197837Y-8935312D01*
X13197836Y-8935312D01*
X13064183Y-8899500D01*
X12925817Y-8899500D01*
X12792164Y-8935312D01*
X12792161Y-8935313D01*
X12672338Y-9004492D01*
X12672333Y-9004496D01*
X12574496Y-9102333D01*
X12574492Y-9102338D01*
X12505313Y-9222161D01*
X12505312Y-9222164D01*
X12469500Y-9355817D01*
X625000Y-9355817D01*
X625000Y-8655817D01*
X9469500Y-8655817D01*
X9469500Y-8794183D01*
X9497720Y-8899500D01*
X9505312Y-8927835D01*
X9505313Y-8927838D01*
X9574492Y-9047661D01*
X9574494Y-9047664D01*
X9574495Y-9047665D01*
X9672335Y-9145505D01*
X9792164Y-9214688D01*
X9925817Y-9250500D01*
X9925819Y-9250500D01*
X10064181Y-9250500D01*
X10064183Y-9250500D01*
X10197836Y-9214688D01*
X10317665Y-9145505D01*
X10415505Y-9047665D01*
X10484688Y-8927836D01*
X10520500Y-8794183D01*
X10520500Y-8655817D01*
X10484688Y-8522164D01*
X10430229Y-8427837D01*
X10415507Y-8402338D01*
X10415503Y-8402333D01*
X10317666Y-8304496D01*
X10317661Y-8304492D01*
X10197838Y-8235313D01*
X10197837Y-8235312D01*
X10197836Y-8235312D01*
X10064183Y-8199500D01*
X9925817Y-8199500D01*
X9792164Y-8235312D01*
X9792161Y-8235313D01*
X9672338Y-8304492D01*
X9672333Y-8304496D01*
X9574496Y-8402333D01*
X9574492Y-8402338D01*
X9505313Y-8522161D01*
X9505312Y-8522164D01*
X9469500Y-8655817D01*
X625000Y-8655817D01*
X625000Y-3406995D01*
X1724500Y-3406995D01*
X1724500Y-3643004D01*
X1724501Y-3643020D01*
X1748174Y-3822838D01*
X1755307Y-3877014D01*
X1799114Y-4040503D01*
X1816394Y-4104993D01*
X1906714Y-4323045D01*
X1906719Y-4323056D01*
X1951324Y-4400313D01*
X2024727Y-4527450D01*
X2024729Y-4527453D01*
X2024730Y-4527454D01*
X2168406Y-4714697D01*
X2168412Y-4714704D01*
X2335295Y-4881587D01*
X2335301Y-4881592D01*
X2522550Y-5025273D01*
X2639571Y-5092835D01*
X2726943Y-5143280D01*
X2726948Y-5143282D01*
X2726951Y-5143284D01*
X2945007Y-5233606D01*
X3172986Y-5294693D01*
X3406989Y-5325500D01*
X3406996Y-5325500D01*
X3643004Y-5325500D01*
X3643011Y-5325500D01*
X3877014Y-5294693D01*
X4104993Y-5233606D01*
X4323049Y-5143284D01*
X4527450Y-5025273D01*
X4617967Y-4955817D01*
X14699500Y-4955817D01*
X14699500Y-5094183D01*
X14731248Y-5212666D01*
X14735312Y-5227835D01*
X14735312Y-5227836D01*
X14784481Y-5313001D01*
X14800952Y-5380902D01*
X14784481Y-5436999D01*
X14735312Y-5522163D01*
X14735312Y-5522164D01*
X14699500Y-5655817D01*
X14699500Y-5794183D01*
X14715083Y-5852338D01*
X14735312Y-5927835D01*
X14735312Y-5927836D01*
X14784481Y-6013001D01*
X14800952Y-6080902D01*
X14784481Y-6136999D01*
X14735312Y-6222163D01*
X14735312Y-6222164D01*
X14699500Y-6355817D01*
X14699500Y-6494183D01*
X14726649Y-6595503D01*
X14735312Y-6627835D01*
X14735312Y-6627836D01*
X14784481Y-6713001D01*
X14800952Y-6780902D01*
X14784481Y-6836999D01*
X14735312Y-6922163D01*
X14735312Y-6922164D01*
X14699500Y-7055817D01*
X14699500Y-7194183D01*
X14706998Y-7222164D01*
X14735312Y-7327835D01*
X14735313Y-7327838D01*
X14804493Y-7447662D01*
X14805916Y-7449517D01*
X14806629Y-7451362D01*
X14808558Y-7454703D01*
X14808036Y-7455003D01*
X14831107Y-7514688D01*
X14817066Y-7583132D01*
X14805916Y-7600483D01*
X14804493Y-7602337D01*
X14735313Y-7722161D01*
X14735312Y-7722164D01*
X14699500Y-7855817D01*
X14699500Y-7994183D01*
X14733792Y-8122161D01*
X14735312Y-8127835D01*
X14735313Y-8127838D01*
X14804493Y-8247662D01*
X14805916Y-8249517D01*
X14806629Y-8251362D01*
X14808558Y-8254703D01*
X14808036Y-8255003D01*
X14831107Y-8314688D01*
X14817066Y-8383132D01*
X14805916Y-8400483D01*
X14804493Y-8402337D01*
X14735313Y-8522161D01*
X14735312Y-8522164D01*
X14699500Y-8655817D01*
X14699500Y-8794183D01*
X14727720Y-8899500D01*
X14735312Y-8927835D01*
X14735312Y-8927836D01*
X14784481Y-9013001D01*
X14800952Y-9080902D01*
X14784481Y-9136999D01*
X14735312Y-9222163D01*
X14735312Y-9222164D01*
X14699500Y-9355817D01*
X14699500Y-9494183D01*
X14726295Y-9594182D01*
X14735312Y-9627835D01*
X14735312Y-9627836D01*
X14784481Y-9713001D01*
X14800952Y-9780902D01*
X14784481Y-9836999D01*
X14735312Y-9922163D01*
X14735312Y-9922164D01*
X14699500Y-10055817D01*
X14699500Y-10194183D01*
X14734469Y-10324687D01*
X14735312Y-10327835D01*
X14735312Y-10327836D01*
X14784481Y-10413001D01*
X14800952Y-10480902D01*
X14784481Y-10536999D01*
X14735312Y-10622163D01*
X14735312Y-10622164D01*
X14699500Y-10755817D01*
X14699500Y-10894183D01*
X14727720Y-10999500D01*
X14735312Y-11027835D01*
X14735312Y-11027836D01*
X14784481Y-11113001D01*
X14800952Y-11180902D01*
X14784481Y-11236999D01*
X14735312Y-11322163D01*
X14735312Y-11322164D01*
X14699500Y-11455817D01*
X14699500Y-11594183D01*
X14726295Y-11694182D01*
X14735312Y-11727835D01*
X14735312Y-11727836D01*
X14784481Y-11813001D01*
X14800952Y-11880902D01*
X14784481Y-11936999D01*
X14735312Y-12022163D01*
X14735312Y-12022164D01*
X14699500Y-12155817D01*
X14699500Y-12294183D01*
X14734419Y-12424501D01*
X14735312Y-12427835D01*
X14735312Y-12427836D01*
X14784481Y-12513001D01*
X14800952Y-12580902D01*
X14784481Y-12636999D01*
X14735312Y-12722163D01*
X14735312Y-12722164D01*
X14699500Y-12855817D01*
X14699500Y-12994183D01*
X14728663Y-13103019D01*
X14735312Y-13127835D01*
X14735312Y-13127836D01*
X14784481Y-13213001D01*
X14800952Y-13280902D01*
X14784481Y-13336999D01*
X14735312Y-13422163D01*
X14735312Y-13422164D01*
X14699500Y-13555817D01*
X14699500Y-13694183D01*
X14733792Y-13822161D01*
X14735312Y-13827835D01*
X14735312Y-13827836D01*
X14784481Y-13913001D01*
X14800952Y-13980902D01*
X14784481Y-14036999D01*
X14735312Y-14122163D01*
X14735312Y-14122164D01*
X14699500Y-14255817D01*
X14699500Y-14394183D01*
X14731789Y-14514686D01*
X14735312Y-14527835D01*
X14735312Y-14527836D01*
X14784481Y-14613001D01*
X14800952Y-14680902D01*
X14784481Y-14736999D01*
X14735312Y-14822163D01*
X14735312Y-14822164D01*
X14699500Y-14955817D01*
X14699500Y-15094183D01*
X14713831Y-15147665D01*
X14735312Y-15227835D01*
X14735312Y-15227836D01*
X14784481Y-15313001D01*
X14800952Y-15380902D01*
X14784481Y-15436999D01*
X14735312Y-15522163D01*
X14735312Y-15522164D01*
X14699500Y-15655817D01*
X14699500Y-15794183D01*
X14708029Y-15826011D01*
X14735312Y-15927835D01*
X14735312Y-15927836D01*
X14784481Y-16013000D01*
X14800953Y-16080900D01*
X14784481Y-16136998D01*
X14735312Y-16222162D01*
X14735312Y-16222163D01*
X14699500Y-16355816D01*
X14699500Y-16494182D01*
X14734419Y-16624500D01*
X14735312Y-16627834D01*
X14735313Y-16627837D01*
X14784481Y-16712999D01*
X14800954Y-16780900D01*
X14784482Y-16836998D01*
X14735312Y-16922163D01*
X14735312Y-16922164D01*
X14699500Y-17055817D01*
X14699500Y-17194183D01*
X14706199Y-17219182D01*
X14735312Y-17327835D01*
X14735312Y-17327836D01*
X14784481Y-17413001D01*
X14800952Y-17480902D01*
X14784481Y-17536999D01*
X14735312Y-17622163D01*
X14735312Y-17622164D01*
X14699500Y-17755817D01*
X14699500Y-17894183D01*
X14729653Y-18006714D01*
X14735312Y-18027835D01*
X14735312Y-18027836D01*
X14784481Y-18113001D01*
X14800952Y-18180902D01*
X14784481Y-18236999D01*
X14735312Y-18322163D01*
X14735312Y-18322164D01*
X14699500Y-18455817D01*
X14699500Y-18594183D01*
X14706998Y-18622164D01*
X14735312Y-18727835D01*
X14735313Y-18727838D01*
X14804492Y-18847661D01*
X14804494Y-18847664D01*
X14804495Y-18847665D01*
X14902335Y-18945505D01*
X15022164Y-19014688D01*
X15155817Y-19050500D01*
X15155819Y-19050500D01*
X15294181Y-19050500D01*
X15294183Y-19050500D01*
X15427836Y-19014688D01*
X15547665Y-18945505D01*
X15645505Y-18847665D01*
X15698533Y-18755817D01*
X35699500Y-18755817D01*
X35699500Y-18894183D01*
X35731789Y-19014686D01*
X35735312Y-19027835D01*
X35735313Y-19027838D01*
X35804492Y-19147661D01*
X35804494Y-19147664D01*
X35804495Y-19147665D01*
X35902335Y-19245505D01*
X36022164Y-19314688D01*
X36155817Y-19350500D01*
X36155819Y-19350500D01*
X36294181Y-19350500D01*
X36294183Y-19350500D01*
X36427836Y-19314688D01*
X36547665Y-19245505D01*
X36645505Y-19147665D01*
X36714688Y-19027836D01*
X36750500Y-18894183D01*
X36750500Y-18755817D01*
X36714688Y-18622164D01*
X36645505Y-18502335D01*
X36547665Y-18404495D01*
X36547664Y-18404494D01*
X36547661Y-18404492D01*
X36427838Y-18335313D01*
X36427837Y-18335312D01*
X36427836Y-18335312D01*
X36294183Y-18299500D01*
X36155817Y-18299500D01*
X36022164Y-18335312D01*
X36022161Y-18335313D01*
X35902338Y-18404492D01*
X35902333Y-18404496D01*
X35804496Y-18502333D01*
X35804492Y-18502338D01*
X35735313Y-18622161D01*
X35735312Y-18622164D01*
X35699500Y-18755817D01*
X15698533Y-18755817D01*
X15714688Y-18727836D01*
X15750500Y-18594183D01*
X15750500Y-18455817D01*
X15714688Y-18322164D01*
X15665519Y-18237000D01*
X15649046Y-18169099D01*
X15665519Y-18113000D01*
X15676436Y-18094090D01*
X15714688Y-18027836D01*
X15750500Y-17894183D01*
X15750500Y-17755817D01*
X15714688Y-17622164D01*
X15665519Y-17537000D01*
X15649046Y-17469099D01*
X15665519Y-17413000D01*
X15676436Y-17394090D01*
X15714688Y-17327836D01*
X15750500Y-17194183D01*
X15750500Y-17080817D01*
X32749500Y-17080817D01*
X32749500Y-17219183D01*
X32778614Y-17327836D01*
X32785312Y-17352835D01*
X32785313Y-17352838D01*
X32854492Y-17472661D01*
X32854494Y-17472664D01*
X32854495Y-17472665D01*
X32952335Y-17570505D01*
X33072164Y-17639688D01*
X33205817Y-17675500D01*
X33205819Y-17675500D01*
X33344181Y-17675500D01*
X33344183Y-17675500D01*
X33477836Y-17639688D01*
X33597665Y-17570505D01*
X33612353Y-17555817D01*
X34499500Y-17555817D01*
X34499500Y-17694183D01*
X34534419Y-17824501D01*
X34535312Y-17827835D01*
X34535313Y-17827838D01*
X34604492Y-17947661D01*
X34604494Y-17947664D01*
X34604495Y-17947665D01*
X34702335Y-18045505D01*
X34822164Y-18114688D01*
X34955817Y-18150500D01*
X34955819Y-18150500D01*
X35094181Y-18150500D01*
X35094183Y-18150500D01*
X35227836Y-18114688D01*
X35347665Y-18045505D01*
X35445505Y-17947665D01*
X35514688Y-17827836D01*
X35547383Y-17705817D01*
X38699500Y-17705817D01*
X38699500Y-17844183D01*
X38712898Y-17894183D01*
X38735312Y-17977835D01*
X38735313Y-17977838D01*
X38804492Y-18097661D01*
X38804494Y-18097664D01*
X38804495Y-18097665D01*
X38902335Y-18195505D01*
X39022164Y-18264688D01*
X39155817Y-18300500D01*
X39155819Y-18300500D01*
X39294181Y-18300500D01*
X39294183Y-18300500D01*
X39427836Y-18264688D01*
X39547665Y-18195505D01*
X39645505Y-18097665D01*
X39714688Y-17977836D01*
X39750500Y-17844183D01*
X39750500Y-17705817D01*
X39714688Y-17572164D01*
X39657243Y-17472666D01*
X39645507Y-17452338D01*
X39645503Y-17452333D01*
X39547666Y-17354496D01*
X39547661Y-17354492D01*
X39427838Y-17285313D01*
X39427837Y-17285312D01*
X39427836Y-17285312D01*
X39294183Y-17249500D01*
X39155817Y-17249500D01*
X39022164Y-17285312D01*
X39022161Y-17285313D01*
X38902338Y-17354492D01*
X38902333Y-17354496D01*
X38804496Y-17452333D01*
X38804492Y-17452338D01*
X38735313Y-17572161D01*
X38735312Y-17572164D01*
X38699500Y-17705817D01*
X35547383Y-17705817D01*
X35550500Y-17694183D01*
X35550500Y-17555817D01*
X35514688Y-17422164D01*
X35460228Y-17327836D01*
X35445507Y-17302338D01*
X35445503Y-17302333D01*
X35347666Y-17204496D01*
X35347661Y-17204492D01*
X35227838Y-17135313D01*
X35227837Y-17135312D01*
X35227836Y-17135312D01*
X35094183Y-17099500D01*
X34955817Y-17099500D01*
X34822164Y-17135312D01*
X34822161Y-17135313D01*
X34702338Y-17204492D01*
X34702333Y-17204496D01*
X34604496Y-17302333D01*
X34604492Y-17302338D01*
X34535313Y-17422161D01*
X34535312Y-17422164D01*
X34499500Y-17555817D01*
X33612353Y-17555817D01*
X33695505Y-17472665D01*
X33764688Y-17352836D01*
X33800500Y-17219183D01*
X33800500Y-17080817D01*
X33764688Y-16947164D01*
X33705994Y-16845502D01*
X33695507Y-16827338D01*
X33695503Y-16827333D01*
X33597666Y-16729496D01*
X33597661Y-16729492D01*
X33477838Y-16660313D01*
X33477837Y-16660312D01*
X33477836Y-16660312D01*
X33344183Y-16624500D01*
X33205817Y-16624500D01*
X33072164Y-16660312D01*
X33072161Y-16660313D01*
X32952338Y-16729492D01*
X32952333Y-16729496D01*
X32854496Y-16827333D01*
X32854492Y-16827338D01*
X32785313Y-16947161D01*
X32785312Y-16947164D01*
X32749500Y-17080817D01*
X15750500Y-17080817D01*
X15750500Y-17055817D01*
X15714688Y-16922164D01*
X15665517Y-16836998D01*
X15649045Y-16769099D01*
X15665516Y-16713002D01*
X15714688Y-16627835D01*
X15750500Y-16494182D01*
X15750500Y-16355816D01*
X35699500Y-16355816D01*
X35699500Y-16494182D01*
X35734419Y-16624500D01*
X35735312Y-16627834D01*
X35735313Y-16627837D01*
X35804492Y-16747660D01*
X35804494Y-16747663D01*
X35804495Y-16747664D01*
X35902335Y-16845504D01*
X36022164Y-16914687D01*
X36155817Y-16950499D01*
X36155819Y-16950499D01*
X36294181Y-16950499D01*
X36294183Y-16950499D01*
X36427836Y-16914687D01*
X36547665Y-16845504D01*
X36645505Y-16747664D01*
X36714688Y-16627835D01*
X36750500Y-16494182D01*
X36750500Y-16355816D01*
X36714688Y-16222163D01*
X36645505Y-16102334D01*
X36547665Y-16004494D01*
X36547664Y-16004493D01*
X36547661Y-16004491D01*
X36427838Y-15935312D01*
X36427837Y-15935311D01*
X36427836Y-15935311D01*
X36294183Y-15899499D01*
X36155817Y-15899499D01*
X36022164Y-15935311D01*
X36022161Y-15935312D01*
X35902338Y-16004491D01*
X35902333Y-16004495D01*
X35804496Y-16102332D01*
X35804492Y-16102337D01*
X35735313Y-16222160D01*
X35735312Y-16222163D01*
X35699500Y-16355816D01*
X15750500Y-16355816D01*
X15714688Y-16222163D01*
X15665519Y-16136999D01*
X15649046Y-16069098D01*
X15665519Y-16012999D01*
X15670429Y-16004495D01*
X15714688Y-15927836D01*
X15750500Y-15794183D01*
X15750500Y-15655817D01*
X15714688Y-15522164D01*
X15665519Y-15437000D01*
X15649046Y-15369099D01*
X15665519Y-15313000D01*
X15676436Y-15294090D01*
X15714688Y-15227836D01*
X15750500Y-15094183D01*
X15750500Y-14955817D01*
X15714688Y-14822164D01*
X15676382Y-14755817D01*
X33199500Y-14755817D01*
X33199500Y-14894183D01*
X33233792Y-15022161D01*
X33235312Y-15027835D01*
X33235313Y-15027838D01*
X33304492Y-15147661D01*
X33304494Y-15147663D01*
X33304495Y-15147665D01*
X33402335Y-15245505D01*
X33522164Y-15314688D01*
X33655817Y-15350500D01*
X33655819Y-15350500D01*
X33794181Y-15350500D01*
X33794183Y-15350500D01*
X33927836Y-15314688D01*
X34047665Y-15245505D01*
X34137353Y-15155817D01*
X38362000Y-15155817D01*
X38362000Y-15294183D01*
X38389012Y-15394991D01*
X38397812Y-15427835D01*
X38397813Y-15427838D01*
X38466992Y-15547661D01*
X38466994Y-15547664D01*
X38466995Y-15547665D01*
X38564835Y-15645505D01*
X38564836Y-15645506D01*
X38564838Y-15645507D01*
X38671065Y-15706837D01*
X38719280Y-15757404D01*
X38732504Y-15826011D01*
X38728840Y-15846317D01*
X38704994Y-15935312D01*
X38699500Y-15955817D01*
X38699500Y-16094183D01*
X38710973Y-16136999D01*
X38735312Y-16227835D01*
X38735313Y-16227838D01*
X38804492Y-16347661D01*
X38804494Y-16347664D01*
X38804495Y-16347665D01*
X38902335Y-16445505D01*
X39022164Y-16514688D01*
X39155817Y-16550500D01*
X39155819Y-16550500D01*
X39294181Y-16550500D01*
X39294183Y-16550500D01*
X39427836Y-16514688D01*
X39547665Y-16445505D01*
X39645505Y-16347665D01*
X39714688Y-16227836D01*
X39750500Y-16094183D01*
X39750500Y-15955817D01*
X39714688Y-15822164D01*
X39645505Y-15702335D01*
X39547665Y-15604495D01*
X39547664Y-15604494D01*
X39547661Y-15604492D01*
X39441434Y-15543162D01*
X39393218Y-15492595D01*
X39379995Y-15423988D01*
X39383656Y-15403695D01*
X39413000Y-15294183D01*
X39413000Y-15155817D01*
X39377188Y-15022164D01*
X39308005Y-14902335D01*
X39210165Y-14804495D01*
X39210164Y-14804494D01*
X39210161Y-14804492D01*
X39090338Y-14735313D01*
X39090337Y-14735312D01*
X39090336Y-14735312D01*
X38956683Y-14699500D01*
X38818317Y-14699500D01*
X38684664Y-14735312D01*
X38684661Y-14735313D01*
X38564838Y-14804492D01*
X38564833Y-14804496D01*
X38466996Y-14902333D01*
X38466992Y-14902338D01*
X38397813Y-15022161D01*
X38397812Y-15022164D01*
X38362000Y-15155817D01*
X34137353Y-15155817D01*
X34145505Y-15147665D01*
X34214688Y-15027836D01*
X34250500Y-14894183D01*
X34250500Y-14755817D01*
X34214688Y-14622164D01*
X34160228Y-14527836D01*
X34145507Y-14502338D01*
X34145503Y-14502333D01*
X34047666Y-14404496D01*
X34047661Y-14404492D01*
X33927838Y-14335313D01*
X33927837Y-14335312D01*
X33927836Y-14335312D01*
X33794183Y-14299500D01*
X33655817Y-14299500D01*
X33522164Y-14335312D01*
X33522161Y-14335313D01*
X33402338Y-14404492D01*
X33402333Y-14404496D01*
X33304496Y-14502333D01*
X33304492Y-14502338D01*
X33235313Y-14622161D01*
X33235312Y-14622164D01*
X33199500Y-14755817D01*
X15676382Y-14755817D01*
X15665517Y-14736998D01*
X15649046Y-14669099D01*
X15665519Y-14613000D01*
X15698533Y-14555817D01*
X15714688Y-14527836D01*
X15750500Y-14394183D01*
X15750500Y-14255817D01*
X15714688Y-14122164D01*
X15665519Y-14037000D01*
X15662689Y-14025336D01*
X15655726Y-14015558D01*
X15654604Y-13992009D01*
X15649046Y-13969099D01*
X15652889Y-13956010D01*
X15652880Y-13955817D01*
X35699500Y-13955817D01*
X35699500Y-14094183D01*
X35710521Y-14135312D01*
X35735312Y-14227835D01*
X35735313Y-14227838D01*
X35804492Y-14347661D01*
X35804494Y-14347664D01*
X35804495Y-14347665D01*
X35902335Y-14445505D01*
X36022164Y-14514688D01*
X36155817Y-14550500D01*
X36155819Y-14550500D01*
X36294181Y-14550500D01*
X36294183Y-14550500D01*
X36427836Y-14514688D01*
X36547665Y-14445505D01*
X36645505Y-14347665D01*
X36714688Y-14227836D01*
X36750500Y-14094183D01*
X36750500Y-13955817D01*
X36714688Y-13822164D01*
X36652637Y-13714688D01*
X36645507Y-13702338D01*
X36645503Y-13702333D01*
X36547666Y-13604496D01*
X36547661Y-13604492D01*
X36427838Y-13535313D01*
X36427837Y-13535312D01*
X36427836Y-13535312D01*
X36294183Y-13499500D01*
X36155817Y-13499500D01*
X36022164Y-13535312D01*
X36022161Y-13535313D01*
X35902338Y-13604492D01*
X35902333Y-13604496D01*
X35804496Y-13702333D01*
X35804492Y-13702338D01*
X35735313Y-13822161D01*
X35735312Y-13822164D01*
X35699500Y-13955817D01*
X15652880Y-13955817D01*
X15652401Y-13945767D01*
X15665518Y-13913001D01*
X15714688Y-13827836D01*
X15750500Y-13694183D01*
X15750500Y-13555817D01*
X15714688Y-13422164D01*
X15665519Y-13337000D01*
X15663457Y-13328502D01*
X15658018Y-13321656D01*
X15655346Y-13295067D01*
X15649046Y-13269099D01*
X15651722Y-13259010D01*
X15651032Y-13252137D01*
X15659907Y-13228159D01*
X15662410Y-13218727D01*
X15663889Y-13215822D01*
X15698533Y-13155817D01*
X25799500Y-13155817D01*
X25799500Y-13294183D01*
X25833792Y-13422161D01*
X25835312Y-13427835D01*
X25835313Y-13427838D01*
X25904492Y-13547661D01*
X25904494Y-13547664D01*
X25904495Y-13547665D01*
X26002335Y-13645505D01*
X26122164Y-13714688D01*
X26255817Y-13750500D01*
X26255819Y-13750500D01*
X26394181Y-13750500D01*
X26394183Y-13750500D01*
X26527836Y-13714688D01*
X26647665Y-13645505D01*
X26745505Y-13547665D01*
X26814688Y-13427836D01*
X26850500Y-13294183D01*
X26850500Y-13155817D01*
X26814688Y-13022164D01*
X26745505Y-12902335D01*
X26698987Y-12855817D01*
X27699500Y-12855817D01*
X27699500Y-12994183D01*
X27728663Y-13103019D01*
X27735312Y-13127835D01*
X27735313Y-13127838D01*
X27804492Y-13247661D01*
X27804494Y-13247664D01*
X27804495Y-13247665D01*
X27902335Y-13345505D01*
X28022164Y-13414688D01*
X28155817Y-13450500D01*
X28155819Y-13450500D01*
X28294181Y-13450500D01*
X28294183Y-13450500D01*
X28427836Y-13414688D01*
X28547665Y-13345505D01*
X28645505Y-13247665D01*
X28698533Y-13155817D01*
X32899500Y-13155817D01*
X32899500Y-13294183D01*
X32933792Y-13422161D01*
X32935312Y-13427835D01*
X32935313Y-13427838D01*
X33004492Y-13547661D01*
X33004494Y-13547664D01*
X33004495Y-13547665D01*
X33102335Y-13645505D01*
X33222164Y-13714688D01*
X33355817Y-13750500D01*
X33355819Y-13750500D01*
X33494181Y-13750500D01*
X33494183Y-13750500D01*
X33627836Y-13714688D01*
X33747665Y-13645505D01*
X33845505Y-13547665D01*
X33914688Y-13427836D01*
X33950500Y-13294183D01*
X33950500Y-13155817D01*
X33914688Y-13022164D01*
X33845505Y-12902335D01*
X33747665Y-12804495D01*
X33747664Y-12804494D01*
X33747661Y-12804492D01*
X33627838Y-12735313D01*
X33627837Y-12735312D01*
X33627836Y-12735312D01*
X33494183Y-12699500D01*
X33355817Y-12699500D01*
X33222164Y-12735312D01*
X33222161Y-12735313D01*
X33102338Y-12804492D01*
X33102333Y-12804496D01*
X33004496Y-12902333D01*
X33004492Y-12902338D01*
X32935313Y-13022161D01*
X32935312Y-13022164D01*
X32899500Y-13155817D01*
X28698533Y-13155817D01*
X28714688Y-13127836D01*
X28750500Y-12994183D01*
X28750500Y-12855817D01*
X28714688Y-12722164D01*
X28675916Y-12655008D01*
X28645507Y-12602338D01*
X28645503Y-12602333D01*
X28547666Y-12504496D01*
X28547661Y-12504492D01*
X28427838Y-12435313D01*
X28427837Y-12435312D01*
X28427836Y-12435312D01*
X28294183Y-12399500D01*
X28155817Y-12399500D01*
X28022164Y-12435312D01*
X28022161Y-12435313D01*
X27902338Y-12504492D01*
X27902333Y-12504496D01*
X27804496Y-12602333D01*
X27804492Y-12602338D01*
X27735313Y-12722161D01*
X27735312Y-12722164D01*
X27699500Y-12855817D01*
X26698987Y-12855817D01*
X26647665Y-12804495D01*
X26647664Y-12804494D01*
X26647661Y-12804492D01*
X26527838Y-12735313D01*
X26527837Y-12735312D01*
X26527836Y-12735312D01*
X26394183Y-12699500D01*
X26255817Y-12699500D01*
X26122164Y-12735312D01*
X26122161Y-12735313D01*
X26002338Y-12804492D01*
X26002333Y-12804496D01*
X25904496Y-12902333D01*
X25904492Y-12902338D01*
X25835313Y-13022161D01*
X25835312Y-13022164D01*
X25799500Y-13155817D01*
X15698533Y-13155817D01*
X15714688Y-13127836D01*
X15750500Y-12994183D01*
X15750500Y-12855817D01*
X15714688Y-12722164D01*
X15675916Y-12655008D01*
X15665519Y-12637000D01*
X15649046Y-12569099D01*
X15665519Y-12513000D01*
X15685819Y-12477838D01*
X15714688Y-12427836D01*
X15750500Y-12294183D01*
X15750500Y-12155817D01*
X15714688Y-12022164D01*
X15676382Y-11955817D01*
X24599500Y-11955817D01*
X24599500Y-12094183D01*
X24604995Y-12114688D01*
X24635312Y-12227835D01*
X24635313Y-12227838D01*
X24704492Y-12347661D01*
X24704494Y-12347664D01*
X24704495Y-12347665D01*
X24802335Y-12445505D01*
X24922164Y-12514688D01*
X25055817Y-12550500D01*
X25055819Y-12550500D01*
X25194181Y-12550500D01*
X25194183Y-12550500D01*
X25327836Y-12514688D01*
X25447665Y-12445505D01*
X25545505Y-12347665D01*
X25614688Y-12227836D01*
X25650500Y-12094183D01*
X25650500Y-11955817D01*
X25614688Y-11822164D01*
X25560228Y-11727836D01*
X25545507Y-11702338D01*
X25545503Y-11702333D01*
X25447666Y-11604496D01*
X25447661Y-11604492D01*
X25363352Y-11555817D01*
X34199500Y-11555817D01*
X34199500Y-11694183D01*
X34233792Y-11822161D01*
X34235312Y-11827835D01*
X34235313Y-11827838D01*
X34304492Y-11947661D01*
X34304494Y-11947664D01*
X34304495Y-11947665D01*
X34402335Y-12045505D01*
X34441281Y-12067990D01*
X34489497Y-12118557D01*
X34502721Y-12187164D01*
X34499890Y-12202853D01*
X34499500Y-12205815D01*
X34499500Y-12205817D01*
X34499500Y-12344183D01*
X34526649Y-12445503D01*
X34535312Y-12477835D01*
X34535313Y-12477838D01*
X34604492Y-12597661D01*
X34604494Y-12597664D01*
X34604495Y-12597665D01*
X34702335Y-12695505D01*
X34702336Y-12695506D01*
X34702338Y-12695507D01*
X34748505Y-12722161D01*
X34822164Y-12764688D01*
X34955817Y-12800500D01*
X34955819Y-12800500D01*
X35094181Y-12800500D01*
X35094183Y-12800500D01*
X35227836Y-12764688D01*
X35347665Y-12695505D01*
X35363039Y-12680131D01*
X93324500Y-12680131D01*
X93324500Y-15369856D01*
X93324502Y-15369882D01*
X93327413Y-15394987D01*
X93327415Y-15394991D01*
X93372793Y-15497764D01*
X93372794Y-15497765D01*
X93452235Y-15577206D01*
X93555009Y-15622585D01*
X93580135Y-15625500D01*
X96269864Y-15625499D01*
X96269879Y-15625497D01*
X96269882Y-15625497D01*
X96294987Y-15622586D01*
X96294988Y-15622585D01*
X96294991Y-15622585D01*
X96397765Y-15577206D01*
X96477206Y-15497765D01*
X96522585Y-15394991D01*
X96525500Y-15369865D01*
X96525499Y-12680136D01*
X96525497Y-12680117D01*
X96522586Y-12655012D01*
X96522585Y-12655010D01*
X96522585Y-12655009D01*
X96477206Y-12552235D01*
X96397765Y-12472794D01*
X96335966Y-12445507D01*
X96294992Y-12427415D01*
X96269865Y-12424500D01*
X93580143Y-12424500D01*
X93580117Y-12424502D01*
X93555012Y-12427413D01*
X93555008Y-12427415D01*
X93452235Y-12472793D01*
X93372794Y-12552234D01*
X93327415Y-12655006D01*
X93327415Y-12655008D01*
X93324500Y-12680131D01*
X35363039Y-12680131D01*
X35445505Y-12597665D01*
X35514688Y-12477836D01*
X35550500Y-12344183D01*
X35550500Y-12205817D01*
X35514688Y-12072164D01*
X35478618Y-12009689D01*
X35445507Y-11952338D01*
X35445503Y-11952333D01*
X35347666Y-11854496D01*
X35347665Y-11854495D01*
X35335828Y-11847661D01*
X35308717Y-11832008D01*
X35260502Y-11781440D01*
X35247280Y-11712833D01*
X35250107Y-11697164D01*
X35250500Y-11694182D01*
X35250500Y-11555819D01*
X35250500Y-11555817D01*
X35214688Y-11422164D01*
X35156953Y-11322163D01*
X35145507Y-11302338D01*
X35145503Y-11302333D01*
X35047666Y-11204496D01*
X35047661Y-11204492D01*
X35008507Y-11181887D01*
X34960292Y-11131321D01*
X34947068Y-11062714D01*
X34973036Y-10997849D01*
X35029950Y-10957320D01*
X35070507Y-10950500D01*
X35094181Y-10950500D01*
X35094183Y-10950500D01*
X35227836Y-10914688D01*
X35347665Y-10845505D01*
X35445505Y-10747665D01*
X35514688Y-10627836D01*
X35550500Y-10494183D01*
X35550500Y-10355817D01*
X35799500Y-10355817D01*
X35799500Y-10494183D01*
X35833792Y-10622161D01*
X35835312Y-10627835D01*
X35835313Y-10627838D01*
X35904492Y-10747661D01*
X35904494Y-10747664D01*
X35904495Y-10747665D01*
X36002335Y-10845505D01*
X36122164Y-10914688D01*
X36255817Y-10950500D01*
X36255819Y-10950500D01*
X36394181Y-10950500D01*
X36394183Y-10950500D01*
X36527836Y-10914688D01*
X36554943Y-10899038D01*
X88624500Y-10899038D01*
X88624500Y-11150962D01*
X88651616Y-11322163D01*
X88663910Y-11399785D01*
X88741760Y-11639383D01*
X88786830Y-11727836D01*
X88851366Y-11854496D01*
X88856132Y-11863848D01*
X89004201Y-12067649D01*
X89004205Y-12067654D01*
X89182345Y-12245794D01*
X89182350Y-12245798D01*
X89322559Y-12347665D01*
X89386155Y-12393870D01*
X89529184Y-12466747D01*
X89610616Y-12508239D01*
X89610618Y-12508239D01*
X89610621Y-12508241D01*
X89850215Y-12586090D01*
X90099038Y-12625500D01*
X90099039Y-12625500D01*
X90350961Y-12625500D01*
X90350962Y-12625500D01*
X90599785Y-12586090D01*
X90839379Y-12508241D01*
X91063845Y-12393870D01*
X91267656Y-12245793D01*
X91445793Y-12067656D01*
X91593870Y-11863845D01*
X91708241Y-11639379D01*
X91786090Y-11399785D01*
X91825500Y-11150962D01*
X91825500Y-10899038D01*
X91786090Y-10650215D01*
X91708241Y-10410621D01*
X91708239Y-10410618D01*
X91708239Y-10410616D01*
X91664455Y-10324686D01*
X91593870Y-10186155D01*
X91532974Y-10102338D01*
X91445798Y-9982350D01*
X91445794Y-9982345D01*
X91267654Y-9804205D01*
X91267649Y-9804201D01*
X91063848Y-9656132D01*
X91063847Y-9656131D01*
X91063845Y-9656130D01*
X90993747Y-9620413D01*
X90839383Y-9541760D01*
X90599785Y-9463910D01*
X90548688Y-9455817D01*
X90350962Y-9424500D01*
X90099038Y-9424500D01*
X89974626Y-9444205D01*
X89850214Y-9463910D01*
X89610616Y-9541760D01*
X89386151Y-9656132D01*
X89182350Y-9804201D01*
X89182345Y-9804205D01*
X89004205Y-9982345D01*
X89004201Y-9982350D01*
X88856132Y-10186151D01*
X88741760Y-10410616D01*
X88663910Y-10650214D01*
X88663910Y-10650215D01*
X88624500Y-10899038D01*
X36554943Y-10899038D01*
X36647665Y-10845505D01*
X36745505Y-10747665D01*
X36814688Y-10627836D01*
X36850500Y-10494183D01*
X36850500Y-10355817D01*
X36814688Y-10222164D01*
X36745505Y-10102335D01*
X36647665Y-10004495D01*
X36647664Y-10004494D01*
X36647661Y-10004492D01*
X36527838Y-9935313D01*
X36527837Y-9935312D01*
X36527836Y-9935312D01*
X36394183Y-9899500D01*
X36255817Y-9899500D01*
X36122164Y-9935312D01*
X36122161Y-9935313D01*
X36002338Y-10004492D01*
X36002333Y-10004496D01*
X35904496Y-10102333D01*
X35904492Y-10102338D01*
X35835313Y-10222161D01*
X35835312Y-10222164D01*
X35799500Y-10355817D01*
X35550500Y-10355817D01*
X35514688Y-10222164D01*
X35445505Y-10102335D01*
X35347665Y-10004495D01*
X35347664Y-10004494D01*
X35347661Y-10004492D01*
X35227838Y-9935313D01*
X35227837Y-9935312D01*
X35227836Y-9935312D01*
X35094183Y-9899500D01*
X34955817Y-9899500D01*
X34822164Y-9935312D01*
X34822161Y-9935313D01*
X34702338Y-10004492D01*
X34702333Y-10004496D01*
X34604496Y-10102333D01*
X34604492Y-10102338D01*
X34535313Y-10222161D01*
X34535312Y-10222164D01*
X34499500Y-10355817D01*
X34499500Y-10494183D01*
X34533792Y-10622161D01*
X34535312Y-10627835D01*
X34535313Y-10627838D01*
X34604492Y-10747661D01*
X34604494Y-10747664D01*
X34604495Y-10747665D01*
X34702335Y-10845505D01*
X34702336Y-10845506D01*
X34702338Y-10845507D01*
X34741493Y-10868113D01*
X34789708Y-10918679D01*
X34802932Y-10987286D01*
X34776964Y-11052151D01*
X34720050Y-11092680D01*
X34679493Y-11099500D01*
X34655817Y-11099500D01*
X34522164Y-11135312D01*
X34522161Y-11135313D01*
X34402338Y-11204492D01*
X34402333Y-11204496D01*
X34304496Y-11302333D01*
X34304492Y-11302338D01*
X34235313Y-11422161D01*
X34235312Y-11422164D01*
X34199500Y-11555817D01*
X25363352Y-11555817D01*
X25327838Y-11535313D01*
X25327837Y-11535312D01*
X25327836Y-11535312D01*
X25194183Y-11499500D01*
X25055817Y-11499500D01*
X24922164Y-11535312D01*
X24922161Y-11535313D01*
X24802338Y-11604492D01*
X24802333Y-11604496D01*
X24704496Y-11702333D01*
X24704492Y-11702338D01*
X24635313Y-11822161D01*
X24635312Y-11822164D01*
X24599500Y-11955817D01*
X15676382Y-11955817D01*
X15665517Y-11936998D01*
X15649046Y-11869099D01*
X15665519Y-11813000D01*
X15683740Y-11781440D01*
X15714688Y-11727836D01*
X15750500Y-11594183D01*
X15750500Y-11455817D01*
X15714688Y-11322164D01*
X15665519Y-11237000D01*
X15649046Y-11169099D01*
X15665519Y-11113000D01*
X15694551Y-11062714D01*
X15714688Y-11027836D01*
X15750500Y-10894183D01*
X15750500Y-10755817D01*
X15714688Y-10622164D01*
X15665519Y-10537000D01*
X15649046Y-10469099D01*
X15665519Y-10413000D01*
X15676436Y-10394090D01*
X15714688Y-10327836D01*
X15750500Y-10194183D01*
X15750500Y-10055817D01*
X15714688Y-9922164D01*
X15665519Y-9837000D01*
X15649046Y-9769099D01*
X15665519Y-9713000D01*
X15698351Y-9656132D01*
X15714688Y-9627836D01*
X15750500Y-9494183D01*
X15750500Y-9455817D01*
X74799500Y-9455817D01*
X74799500Y-9594183D01*
X74834711Y-9725591D01*
X74835312Y-9727835D01*
X74835313Y-9727838D01*
X74904492Y-9847661D01*
X74904494Y-9847664D01*
X74904495Y-9847665D01*
X75002335Y-9945505D01*
X75002336Y-9945506D01*
X75002338Y-9945507D01*
X75062249Y-9980096D01*
X75122164Y-10014688D01*
X75255817Y-10050500D01*
X75255819Y-10050500D01*
X75394181Y-10050500D01*
X75394183Y-10050500D01*
X75527836Y-10014688D01*
X75647665Y-9945505D01*
X75737319Y-9855851D01*
X75798642Y-9822366D01*
X75868334Y-9827350D01*
X75912681Y-9855851D01*
X76002335Y-9945505D01*
X76002336Y-9945506D01*
X76002338Y-9945507D01*
X76062249Y-9980096D01*
X76122164Y-10014688D01*
X76255817Y-10050500D01*
X76255819Y-10050500D01*
X76394181Y-10050500D01*
X76394183Y-10050500D01*
X76527836Y-10014688D01*
X76647665Y-9945505D01*
X76745505Y-9847665D01*
X76792760Y-9765817D01*
X84749500Y-9765817D01*
X84749500Y-9904183D01*
X84779110Y-10014687D01*
X84785312Y-10037835D01*
X84785313Y-10037838D01*
X84854492Y-10157661D01*
X84854494Y-10157664D01*
X84854495Y-10157665D01*
X84952335Y-10255505D01*
X85072164Y-10324688D01*
X85205817Y-10360500D01*
X85205819Y-10360500D01*
X85344181Y-10360500D01*
X85344183Y-10360500D01*
X85477836Y-10324688D01*
X85597665Y-10255505D01*
X85695505Y-10157665D01*
X85764688Y-10037836D01*
X85800500Y-9904183D01*
X85800500Y-9765817D01*
X85764688Y-9632164D01*
X85730096Y-9572249D01*
X85695507Y-9512338D01*
X85695503Y-9512333D01*
X85597666Y-9414496D01*
X85597661Y-9414492D01*
X85477838Y-9345313D01*
X85477837Y-9345312D01*
X85477836Y-9345312D01*
X85344183Y-9309500D01*
X85205817Y-9309500D01*
X85072164Y-9345312D01*
X85072161Y-9345313D01*
X84952338Y-9414492D01*
X84952333Y-9414496D01*
X84854496Y-9512333D01*
X84854492Y-9512338D01*
X84785313Y-9632161D01*
X84785312Y-9632164D01*
X84749500Y-9765817D01*
X76792760Y-9765817D01*
X76814688Y-9727836D01*
X76850500Y-9594183D01*
X76850500Y-9455817D01*
X76814688Y-9322164D01*
X76770428Y-9245503D01*
X76745507Y-9202338D01*
X76745503Y-9202333D01*
X76647666Y-9104496D01*
X76647661Y-9104492D01*
X76527838Y-9035313D01*
X76527837Y-9035312D01*
X76527836Y-9035312D01*
X76394183Y-8999500D01*
X76255817Y-8999500D01*
X76122164Y-9035312D01*
X76122161Y-9035313D01*
X76002338Y-9104492D01*
X76002333Y-9104496D01*
X75912681Y-9194149D01*
X75851358Y-9227634D01*
X75781666Y-9222650D01*
X75737319Y-9194149D01*
X75647666Y-9104496D01*
X75647661Y-9104492D01*
X75527838Y-9035313D01*
X75527837Y-9035312D01*
X75527836Y-9035312D01*
X75394183Y-8999500D01*
X75255817Y-8999500D01*
X75122164Y-9035312D01*
X75122161Y-9035313D01*
X75002338Y-9104492D01*
X75002333Y-9104496D01*
X74904496Y-9202333D01*
X74904492Y-9202338D01*
X74835313Y-9322161D01*
X74835312Y-9322164D01*
X74799500Y-9455817D01*
X15750500Y-9455817D01*
X15750500Y-9355817D01*
X15714688Y-9222164D01*
X15665519Y-9137000D01*
X15649046Y-9069099D01*
X15665519Y-9013000D01*
X15679173Y-8989350D01*
X15714688Y-8927836D01*
X15750500Y-8794183D01*
X15750500Y-8655817D01*
X15714688Y-8522164D01*
X15645505Y-8402335D01*
X15645502Y-8402332D01*
X15644089Y-8400490D01*
X15643377Y-8398648D01*
X15641442Y-8395297D01*
X15641964Y-8394995D01*
X15636548Y-8380988D01*
X15624681Y-8363776D01*
X15624203Y-8349058D01*
X15618892Y-8335322D01*
X15623092Y-8314839D01*
X15622414Y-8293943D01*
X15630977Y-8276388D01*
X15632928Y-8266876D01*
X15636027Y-8261380D01*
X15639352Y-8255817D01*
X39099500Y-8255817D01*
X39099500Y-8394183D01*
X39133923Y-8522650D01*
X39135312Y-8527835D01*
X39135313Y-8527838D01*
X39204492Y-8647661D01*
X39204494Y-8647664D01*
X39204495Y-8647665D01*
X39302335Y-8745505D01*
X39422164Y-8814688D01*
X39555817Y-8850500D01*
X39555819Y-8850500D01*
X39694181Y-8850500D01*
X39694183Y-8850500D01*
X39827836Y-8814688D01*
X39929804Y-8755817D01*
X47999500Y-8755817D01*
X47999500Y-8894183D01*
X48027720Y-8999500D01*
X48035312Y-9027835D01*
X48035313Y-9027838D01*
X48104492Y-9147661D01*
X48104494Y-9147664D01*
X48104495Y-9147665D01*
X48202335Y-9245505D01*
X48202336Y-9245506D01*
X48202338Y-9245507D01*
X48262249Y-9280096D01*
X48322164Y-9314688D01*
X48455817Y-9350500D01*
X48455819Y-9350500D01*
X48594181Y-9350500D01*
X48594183Y-9350500D01*
X48727836Y-9314688D01*
X48847665Y-9245505D01*
X48937319Y-9155851D01*
X48998642Y-9122366D01*
X49068334Y-9127350D01*
X49112681Y-9155851D01*
X49202335Y-9245505D01*
X49202336Y-9245506D01*
X49202338Y-9245507D01*
X49262249Y-9280096D01*
X49322164Y-9314688D01*
X49455817Y-9350500D01*
X49455819Y-9350500D01*
X49594181Y-9350500D01*
X49594183Y-9350500D01*
X49727836Y-9314688D01*
X49847665Y-9245505D01*
X49945505Y-9147665D01*
X50014688Y-9027836D01*
X50050500Y-8894183D01*
X50050500Y-8755817D01*
X50014688Y-8622164D01*
X49960228Y-8527836D01*
X49945507Y-8502338D01*
X49945503Y-8502333D01*
X49847666Y-8404496D01*
X49847661Y-8404492D01*
X49727838Y-8335313D01*
X49727837Y-8335312D01*
X49727836Y-8335312D01*
X49594183Y-8299500D01*
X49455817Y-8299500D01*
X49322164Y-8335312D01*
X49322161Y-8335313D01*
X49202338Y-8404492D01*
X49202333Y-8404496D01*
X49112681Y-8494149D01*
X49051358Y-8527634D01*
X48981666Y-8522650D01*
X48937319Y-8494149D01*
X48847666Y-8404496D01*
X48847661Y-8404492D01*
X48727838Y-8335313D01*
X48727837Y-8335312D01*
X48727836Y-8335312D01*
X48594183Y-8299500D01*
X48455817Y-8299500D01*
X48322164Y-8335312D01*
X48322161Y-8335313D01*
X48202338Y-8404492D01*
X48202333Y-8404496D01*
X48104496Y-8502333D01*
X48104492Y-8502338D01*
X48035313Y-8622161D01*
X48035312Y-8622164D01*
X47999500Y-8755817D01*
X39929804Y-8755817D01*
X39947665Y-8745505D01*
X40045505Y-8647665D01*
X40114688Y-8527836D01*
X40150500Y-8394183D01*
X40150500Y-8255817D01*
X40123705Y-8155816D01*
X85799500Y-8155816D01*
X85799500Y-8294182D01*
X85829059Y-8404496D01*
X85835312Y-8427834D01*
X85835313Y-8427837D01*
X85904492Y-8547660D01*
X85904494Y-8547663D01*
X85904495Y-8547664D01*
X86002335Y-8645504D01*
X86002336Y-8645505D01*
X86002338Y-8645506D01*
X86028567Y-8660649D01*
X86122164Y-8714687D01*
X86255817Y-8750499D01*
X86255819Y-8750499D01*
X86394181Y-8750499D01*
X86394183Y-8750499D01*
X86527836Y-8714687D01*
X86647665Y-8645504D01*
X86745505Y-8547664D01*
X86814688Y-8427835D01*
X86850500Y-8294182D01*
X86850500Y-8155816D01*
X86814688Y-8022163D01*
X86752637Y-7914687D01*
X86745507Y-7902337D01*
X86745503Y-7902332D01*
X86647666Y-7804495D01*
X86647661Y-7804491D01*
X86527838Y-7735312D01*
X86527837Y-7735311D01*
X86527836Y-7735311D01*
X86394183Y-7699499D01*
X86255817Y-7699499D01*
X86122164Y-7735311D01*
X86122161Y-7735312D01*
X86002338Y-7804491D01*
X86002333Y-7804495D01*
X85904496Y-7902332D01*
X85904492Y-7902337D01*
X85835313Y-8022160D01*
X85835312Y-8022163D01*
X85799500Y-8155816D01*
X40123705Y-8155816D01*
X40114688Y-8122164D01*
X40045505Y-8002335D01*
X39947665Y-7904495D01*
X39947664Y-7904494D01*
X39947661Y-7904492D01*
X39827838Y-7835313D01*
X39827837Y-7835312D01*
X39827836Y-7835312D01*
X39694183Y-7799500D01*
X39555817Y-7799500D01*
X39422164Y-7835312D01*
X39422161Y-7835313D01*
X39302338Y-7904492D01*
X39302333Y-7904496D01*
X39204496Y-8002333D01*
X39204492Y-8002338D01*
X39135313Y-8122161D01*
X39135312Y-8122164D01*
X39099500Y-8255817D01*
X15639352Y-8255817D01*
X15642322Y-8250847D01*
X15645505Y-8247665D01*
X15714688Y-8127836D01*
X15750500Y-7994183D01*
X15750500Y-7855817D01*
X15714688Y-7722164D01*
X15645505Y-7602335D01*
X15645502Y-7602332D01*
X15644089Y-7600490D01*
X15643377Y-7598648D01*
X15641442Y-7595297D01*
X15641964Y-7594995D01*
X15618892Y-7535322D01*
X15632928Y-7466876D01*
X15633234Y-7466305D01*
X15640631Y-7452538D01*
X15645505Y-7447665D01*
X15698533Y-7355817D01*
X26899500Y-7355817D01*
X26899500Y-7494183D01*
X26926594Y-7595297D01*
X26935312Y-7627835D01*
X26935313Y-7627838D01*
X27004492Y-7747661D01*
X27004494Y-7747664D01*
X27004495Y-7747665D01*
X27102335Y-7845505D01*
X27222164Y-7914688D01*
X27355817Y-7950500D01*
X27355819Y-7950500D01*
X27494181Y-7950500D01*
X27494183Y-7950500D01*
X27627836Y-7914688D01*
X27747665Y-7845505D01*
X27845505Y-7747665D01*
X27914688Y-7627836D01*
X27950500Y-7494183D01*
X27950500Y-7355817D01*
X33299500Y-7355817D01*
X33299500Y-7494183D01*
X33326594Y-7595297D01*
X33335312Y-7627835D01*
X33335313Y-7627838D01*
X33404492Y-7747661D01*
X33404494Y-7747664D01*
X33404495Y-7747665D01*
X33502335Y-7845505D01*
X33622164Y-7914688D01*
X33755817Y-7950500D01*
X33755819Y-7950500D01*
X33894181Y-7950500D01*
X33894183Y-7950500D01*
X34027836Y-7914688D01*
X34147665Y-7845505D01*
X34245505Y-7747665D01*
X34314688Y-7627836D01*
X34350500Y-7494183D01*
X34350500Y-7355817D01*
X34314688Y-7222164D01*
X34245505Y-7102335D01*
X34147665Y-7004495D01*
X34147664Y-7004494D01*
X34147661Y-7004492D01*
X34027838Y-6935313D01*
X34027837Y-6935312D01*
X34027836Y-6935312D01*
X33894183Y-6899500D01*
X33755817Y-6899500D01*
X33622164Y-6935312D01*
X33622161Y-6935313D01*
X33502338Y-7004492D01*
X33502333Y-7004496D01*
X33404496Y-7102333D01*
X33404492Y-7102338D01*
X33335313Y-7222161D01*
X33335312Y-7222164D01*
X33299500Y-7355817D01*
X27950500Y-7355817D01*
X27914688Y-7222164D01*
X27845505Y-7102335D01*
X27747665Y-7004495D01*
X27747664Y-7004494D01*
X27747661Y-7004492D01*
X27627838Y-6935313D01*
X27627837Y-6935312D01*
X27627836Y-6935312D01*
X27494183Y-6899500D01*
X27355817Y-6899500D01*
X27222164Y-6935312D01*
X27222161Y-6935313D01*
X27102338Y-7004492D01*
X27102333Y-7004496D01*
X27004496Y-7102333D01*
X27004492Y-7102338D01*
X26935313Y-7222161D01*
X26935312Y-7222164D01*
X26899500Y-7355817D01*
X15698533Y-7355817D01*
X15714688Y-7327836D01*
X15750500Y-7194183D01*
X15750500Y-7055817D01*
X15714688Y-6922164D01*
X15665519Y-6837000D01*
X15649046Y-6769099D01*
X15665519Y-6713000D01*
X15676436Y-6694090D01*
X15714688Y-6627836D01*
X15750500Y-6494183D01*
X15750500Y-6355817D01*
X15714688Y-6222164D01*
X15665519Y-6137000D01*
X15649046Y-6069099D01*
X15665519Y-6013000D01*
X15685819Y-5977838D01*
X15714688Y-5927836D01*
X15750500Y-5794183D01*
X15750500Y-5705817D01*
X35549500Y-5705817D01*
X35549500Y-5844183D01*
X35583792Y-5972161D01*
X35585312Y-5977835D01*
X35585313Y-5977838D01*
X35654492Y-6097661D01*
X35654494Y-6097663D01*
X35654495Y-6097665D01*
X35752335Y-6195505D01*
X35872164Y-6264688D01*
X36005817Y-6300500D01*
X36005819Y-6300500D01*
X36144181Y-6300500D01*
X36144183Y-6300500D01*
X36277836Y-6264688D01*
X36397665Y-6195505D01*
X36487353Y-6105817D01*
X67349500Y-6105817D01*
X67349500Y-6244183D01*
X67354995Y-6264688D01*
X67385312Y-6377835D01*
X67385313Y-6377838D01*
X67454492Y-6497661D01*
X67454494Y-6497664D01*
X67454495Y-6497665D01*
X67552335Y-6595505D01*
X67672164Y-6664688D01*
X67805817Y-6700500D01*
X67805819Y-6700500D01*
X67944181Y-6700500D01*
X67944183Y-6700500D01*
X68077836Y-6664688D01*
X68197665Y-6595505D01*
X68295505Y-6497665D01*
X68364688Y-6377836D01*
X68400500Y-6244183D01*
X68400500Y-6105817D01*
X68364688Y-5972164D01*
X68295505Y-5852335D01*
X68197665Y-5754495D01*
X68197664Y-5754494D01*
X68197661Y-5754492D01*
X68077838Y-5685313D01*
X68077837Y-5685312D01*
X67989614Y-5661673D01*
X67989613Y-5661672D01*
X67944183Y-5649500D01*
X67805817Y-5649500D01*
X67672164Y-5685312D01*
X67672161Y-5685313D01*
X67552338Y-5754492D01*
X67552333Y-5754496D01*
X67454496Y-5852333D01*
X67454492Y-5852338D01*
X67385313Y-5972161D01*
X67385312Y-5972164D01*
X67349500Y-6105817D01*
X36487353Y-6105817D01*
X36495505Y-6097665D01*
X36564688Y-5977836D01*
X36600500Y-5844183D01*
X36600500Y-5705817D01*
X36564688Y-5572164D01*
X36495505Y-5452335D01*
X36397665Y-5354495D01*
X36397664Y-5354494D01*
X36397661Y-5354492D01*
X36277838Y-5285313D01*
X36277837Y-5285312D01*
X36277836Y-5285312D01*
X36144183Y-5249500D01*
X36005817Y-5249500D01*
X35872164Y-5285312D01*
X35872161Y-5285313D01*
X35752338Y-5354492D01*
X35752333Y-5354496D01*
X35654496Y-5452333D01*
X35654492Y-5452338D01*
X35585313Y-5572161D01*
X35585312Y-5572164D01*
X35549500Y-5705817D01*
X15750500Y-5705817D01*
X15750500Y-5655817D01*
X15714688Y-5522164D01*
X15674374Y-5452338D01*
X15665519Y-5437000D01*
X15649046Y-5369099D01*
X15665519Y-5313000D01*
X15681504Y-5285312D01*
X15714688Y-5227836D01*
X15750500Y-5094183D01*
X15750500Y-4955817D01*
X15714688Y-4822164D01*
X15656953Y-4722164D01*
X15647516Y-4705817D01*
X37349500Y-4705817D01*
X37349500Y-4844183D01*
X37380314Y-4959181D01*
X37385312Y-4977835D01*
X37385313Y-4977838D01*
X37454492Y-5097661D01*
X37454494Y-5097664D01*
X37454495Y-5097665D01*
X37552335Y-5195505D01*
X37672164Y-5264688D01*
X37805817Y-5300500D01*
X37805819Y-5300500D01*
X37944181Y-5300500D01*
X37944183Y-5300500D01*
X38077836Y-5264688D01*
X38197665Y-5195505D01*
X38295505Y-5097665D01*
X38364688Y-4977836D01*
X38397383Y-4855817D01*
X47699500Y-4855817D01*
X47699500Y-4994183D01*
X47726295Y-5094182D01*
X47735312Y-5127835D01*
X47735313Y-5127838D01*
X47804492Y-5247661D01*
X47804494Y-5247664D01*
X47804495Y-5247665D01*
X47902335Y-5345505D01*
X48022164Y-5414688D01*
X48155817Y-5450500D01*
X48155819Y-5450500D01*
X48294181Y-5450500D01*
X48294183Y-5450500D01*
X48427836Y-5414688D01*
X48513000Y-5365519D01*
X48580901Y-5349046D01*
X48637000Y-5365519D01*
X48722164Y-5414688D01*
X48855817Y-5450500D01*
X48855819Y-5450500D01*
X48994181Y-5450500D01*
X48994183Y-5450500D01*
X49127836Y-5414688D01*
X49213000Y-5365519D01*
X49280901Y-5349046D01*
X49337000Y-5365519D01*
X49422164Y-5414688D01*
X49555817Y-5450500D01*
X49555819Y-5450500D01*
X49694181Y-5450500D01*
X49694183Y-5450500D01*
X49827836Y-5414688D01*
X49947665Y-5345505D01*
X50045505Y-5247665D01*
X50114688Y-5127836D01*
X50150500Y-4994183D01*
X50150500Y-4855817D01*
X50114688Y-4722164D01*
X50046752Y-4604495D01*
X50045507Y-4602338D01*
X50045503Y-4602333D01*
X49947666Y-4504496D01*
X49947661Y-4504492D01*
X49827838Y-4435313D01*
X49827837Y-4435312D01*
X49827836Y-4435312D01*
X49694183Y-4399500D01*
X49555817Y-4399500D01*
X49422164Y-4435312D01*
X49422163Y-4435312D01*
X49336999Y-4484481D01*
X49269098Y-4500952D01*
X49213001Y-4484481D01*
X49127836Y-4435312D01*
X48994183Y-4399500D01*
X48855817Y-4399500D01*
X48722164Y-4435312D01*
X48722163Y-4435312D01*
X48636999Y-4484481D01*
X48569098Y-4500952D01*
X48513001Y-4484481D01*
X48427836Y-4435312D01*
X48294183Y-4399500D01*
X48155817Y-4399500D01*
X48022164Y-4435312D01*
X48022161Y-4435313D01*
X47902338Y-4504492D01*
X47902333Y-4504496D01*
X47804496Y-4602333D01*
X47804492Y-4602338D01*
X47735313Y-4722161D01*
X47735312Y-4722164D01*
X47699500Y-4855817D01*
X38397383Y-4855817D01*
X38400500Y-4844183D01*
X38400500Y-4705817D01*
X38364688Y-4572164D01*
X38322736Y-4499500D01*
X38295507Y-4452338D01*
X38295503Y-4452333D01*
X38266779Y-4423609D01*
X38233294Y-4362286D01*
X38238278Y-4292594D01*
X38280150Y-4236661D01*
X38322365Y-4216153D01*
X38327836Y-4214688D01*
X38447665Y-4145505D01*
X38447671Y-4145498D01*
X38452583Y-4141730D01*
X38517750Y-4116531D01*
X38586196Y-4130564D01*
X38635464Y-4178100D01*
X38704492Y-4297661D01*
X38704494Y-4297664D01*
X38704495Y-4297665D01*
X38802335Y-4395505D01*
X38802336Y-4395506D01*
X38802338Y-4395507D01*
X38851013Y-4423609D01*
X38922164Y-4464688D01*
X39055817Y-4500500D01*
X39055819Y-4500500D01*
X39194181Y-4500500D01*
X39194183Y-4500500D01*
X39327836Y-4464688D01*
X39447665Y-4395505D01*
X39545505Y-4297665D01*
X39614688Y-4177836D01*
X39650500Y-4044183D01*
X39650500Y-3905817D01*
X39614688Y-3772164D01*
X39566778Y-3689181D01*
X39545507Y-3652338D01*
X39545503Y-3652333D01*
X39447666Y-3554496D01*
X39447661Y-3554492D01*
X39441296Y-3550817D01*
X59499500Y-3550817D01*
X59499500Y-3689183D01*
X59533129Y-3814687D01*
X59535312Y-3822835D01*
X59535313Y-3822838D01*
X59604492Y-3942661D01*
X59604494Y-3942664D01*
X59604495Y-3942665D01*
X59702335Y-4040505D01*
X59702336Y-4040506D01*
X59702338Y-4040507D01*
X59714738Y-4047666D01*
X59822164Y-4109688D01*
X59917471Y-4135225D01*
X59977132Y-4171590D01*
X60007661Y-4234437D01*
X59999366Y-4303813D01*
X59954881Y-4357690D01*
X59917472Y-4374774D01*
X59840112Y-4395503D01*
X59822164Y-4400312D01*
X59822161Y-4400313D01*
X59702338Y-4469492D01*
X59702333Y-4469496D01*
X59604496Y-4567333D01*
X59604492Y-4567338D01*
X59535313Y-4687161D01*
X59535312Y-4687164D01*
X59499500Y-4820817D01*
X59499500Y-4959182D01*
X59535312Y-5092835D01*
X59535313Y-5092838D01*
X59604492Y-5212661D01*
X59604494Y-5212664D01*
X59604495Y-5212665D01*
X59702335Y-5310505D01*
X59702336Y-5310506D01*
X59702338Y-5310507D01*
X59728307Y-5325500D01*
X59822164Y-5379688D01*
X59955817Y-5415500D01*
X59955819Y-5415500D01*
X60094181Y-5415500D01*
X60094183Y-5415500D01*
X60227836Y-5379688D01*
X60347665Y-5310505D01*
X60445505Y-5212665D01*
X60514688Y-5092836D01*
X60550500Y-4959183D01*
X60550500Y-4820817D01*
X67399500Y-4820817D01*
X67399500Y-4959182D01*
X67435312Y-5092835D01*
X67435313Y-5092838D01*
X67504492Y-5212661D01*
X67504494Y-5212664D01*
X67504495Y-5212665D01*
X67602335Y-5310505D01*
X67602336Y-5310506D01*
X67602338Y-5310507D01*
X67628307Y-5325500D01*
X67722164Y-5379688D01*
X67855817Y-5415500D01*
X67994183Y-5415500D01*
X68127836Y-5379688D01*
X68247665Y-5310505D01*
X68345505Y-5212665D01*
X68414688Y-5092836D01*
X68450500Y-4959183D01*
X68450500Y-4820817D01*
X68414688Y-4687164D01*
X68348293Y-4572164D01*
X68345507Y-4567338D01*
X68345503Y-4567333D01*
X68247666Y-4469496D01*
X68247661Y-4469492D01*
X68127838Y-4400313D01*
X68127837Y-4400312D01*
X68127836Y-4400312D01*
X67994183Y-4364500D01*
X67855817Y-4364500D01*
X67722164Y-4400312D01*
X67722161Y-4400313D01*
X67602338Y-4469492D01*
X67602333Y-4469496D01*
X67504496Y-4567333D01*
X67504492Y-4567338D01*
X67435313Y-4687161D01*
X67435312Y-4687164D01*
X67399500Y-4820817D01*
X60550500Y-4820817D01*
X60514688Y-4687164D01*
X60448293Y-4572164D01*
X60445507Y-4567338D01*
X60445503Y-4567333D01*
X60347666Y-4469496D01*
X60347661Y-4469492D01*
X60227838Y-4400313D01*
X60227837Y-4400312D01*
X60227836Y-4400312D01*
X60132526Y-4374774D01*
X60072867Y-4338410D01*
X60042338Y-4275563D01*
X60050633Y-4206188D01*
X60095118Y-4152310D01*
X60132525Y-4135226D01*
X60227836Y-4109688D01*
X60347665Y-4040505D01*
X60445505Y-3942665D01*
X60514688Y-3822836D01*
X60550500Y-3689183D01*
X60550500Y-3550817D01*
X60514688Y-3417164D01*
X60474620Y-3347764D01*
X60445507Y-3297338D01*
X60445503Y-3297333D01*
X60347666Y-3199496D01*
X60347661Y-3199492D01*
X60227838Y-3130313D01*
X60227837Y-3130312D01*
X60227836Y-3130312D01*
X60094183Y-3094500D01*
X59955817Y-3094500D01*
X59822164Y-3130312D01*
X59822161Y-3130313D01*
X59702338Y-3199492D01*
X59702333Y-3199496D01*
X59604496Y-3297333D01*
X59604492Y-3297338D01*
X59535313Y-3417161D01*
X59535312Y-3417164D01*
X59499500Y-3550817D01*
X39441296Y-3550817D01*
X39327838Y-3485313D01*
X39327837Y-3485312D01*
X39327836Y-3485312D01*
X39194183Y-3449500D01*
X39055817Y-3449500D01*
X38922164Y-3485312D01*
X38922161Y-3485313D01*
X38802335Y-3554494D01*
X38797407Y-3558276D01*
X38732237Y-3583469D01*
X38663792Y-3569430D01*
X38614535Y-3521899D01*
X38545507Y-3402338D01*
X38545503Y-3402333D01*
X38447666Y-3304496D01*
X38447661Y-3304492D01*
X38327838Y-3235313D01*
X38327837Y-3235312D01*
X38327836Y-3235312D01*
X38194183Y-3199500D01*
X38055817Y-3199500D01*
X37922164Y-3235312D01*
X37922161Y-3235313D01*
X37802338Y-3304492D01*
X37802333Y-3304496D01*
X37704496Y-3402333D01*
X37704492Y-3402338D01*
X37635313Y-3522161D01*
X37635312Y-3522164D01*
X37599500Y-3655817D01*
X37599500Y-3794183D01*
X37621695Y-3877014D01*
X37635312Y-3927835D01*
X37635313Y-3927838D01*
X37704492Y-4047661D01*
X37704496Y-4047666D01*
X37733220Y-4076390D01*
X37766705Y-4137713D01*
X37761721Y-4207405D01*
X37719849Y-4263338D01*
X37677643Y-4283843D01*
X37672169Y-4285310D01*
X37672161Y-4285313D01*
X37552338Y-4354492D01*
X37552333Y-4354496D01*
X37454496Y-4452333D01*
X37454492Y-4452338D01*
X37385313Y-4572161D01*
X37385312Y-4572164D01*
X37349500Y-4705817D01*
X15647516Y-4705817D01*
X15645507Y-4702338D01*
X15645503Y-4702333D01*
X15547666Y-4604496D01*
X15547661Y-4604492D01*
X15427838Y-4535313D01*
X15427837Y-4535312D01*
X15427836Y-4535312D01*
X15294183Y-4499500D01*
X15155817Y-4499500D01*
X15022164Y-4535312D01*
X15022161Y-4535313D01*
X14902338Y-4604492D01*
X14902333Y-4604496D01*
X14804496Y-4702333D01*
X14804492Y-4702338D01*
X14735313Y-4822161D01*
X14735312Y-4822164D01*
X14699500Y-4955817D01*
X4617967Y-4955817D01*
X4714699Y-4881592D01*
X4714704Y-4881587D01*
X4736283Y-4860009D01*
X4881587Y-4714704D01*
X4881592Y-4714699D01*
X5025273Y-4527450D01*
X5143284Y-4323049D01*
X5233606Y-4104993D01*
X5294693Y-3877014D01*
X5325500Y-3643011D01*
X5325500Y-3406989D01*
X5294693Y-3172986D01*
X5233606Y-2945007D01*
X5143284Y-2726951D01*
X5143282Y-2726948D01*
X5143280Y-2726943D01*
X5096260Y-2645503D01*
X5025273Y-2522550D01*
X4952598Y-2427838D01*
X4881593Y-2335302D01*
X4881587Y-2335295D01*
X4780740Y-2234448D01*
X7774500Y-2234448D01*
X7774500Y-2415551D01*
X7802829Y-2594410D01*
X7858787Y-2766636D01*
X7858788Y-2766639D01*
X7941006Y-2927997D01*
X8047441Y-3074494D01*
X8047445Y-3074499D01*
X8175500Y-3202554D01*
X8175505Y-3202558D01*
X8303287Y-3295396D01*
X8322006Y-3308996D01*
X8398094Y-3347765D01*
X8483360Y-3391211D01*
X8483363Y-3391212D01*
X8563228Y-3417161D01*
X8655591Y-3447171D01*
X8738429Y-3460291D01*
X8834449Y-3475500D01*
X8834454Y-3475500D01*
X9015551Y-3475500D01*
X9102259Y-3461765D01*
X9194409Y-3447171D01*
X9366639Y-3391211D01*
X9527994Y-3308996D01*
X9674501Y-3202553D01*
X9802553Y-3074501D01*
X9908996Y-2927994D01*
X9991211Y-2766639D01*
X10047171Y-2594409D01*
X10062203Y-2499500D01*
X10072527Y-2434321D01*
X10102456Y-2371186D01*
X10161768Y-2334255D01*
X10231630Y-2335253D01*
X10289863Y-2373863D01*
X10317473Y-2434321D01*
X10342829Y-2594410D01*
X10398787Y-2766636D01*
X10398788Y-2766639D01*
X10481006Y-2927997D01*
X10587441Y-3074494D01*
X10587445Y-3074499D01*
X10715500Y-3202554D01*
X10715505Y-3202558D01*
X10843287Y-3295396D01*
X10862006Y-3308996D01*
X10938094Y-3347765D01*
X11023360Y-3391211D01*
X11023363Y-3391212D01*
X11103228Y-3417161D01*
X11195591Y-3447171D01*
X11278429Y-3460291D01*
X11374449Y-3475500D01*
X11374454Y-3475500D01*
X11555551Y-3475500D01*
X11642259Y-3461765D01*
X11734409Y-3447171D01*
X11906639Y-3391211D01*
X12067994Y-3308996D01*
X12214501Y-3202553D01*
X12342553Y-3074501D01*
X12448996Y-2927994D01*
X12531211Y-2766639D01*
X12587171Y-2594409D01*
X12602203Y-2499500D01*
X12615500Y-2415551D01*
X12615500Y-2234448D01*
X12593834Y-2097661D01*
X12587171Y-2055591D01*
X12548639Y-1936999D01*
X12531212Y-1883363D01*
X12531211Y-1883360D01*
X12497089Y-1816394D01*
X12448996Y-1722006D01*
X12367626Y-1610009D01*
X12342558Y-1575505D01*
X12342554Y-1575500D01*
X12214499Y-1447445D01*
X12214494Y-1447441D01*
X12190669Y-1430131D01*
X15394500Y-1430131D01*
X15394500Y-3219856D01*
X15394502Y-3219882D01*
X15397413Y-3244987D01*
X15397415Y-3244991D01*
X15442793Y-3347764D01*
X15442794Y-3347765D01*
X15522235Y-3427206D01*
X15625009Y-3472585D01*
X15650135Y-3475500D01*
X17439864Y-3475499D01*
X17439879Y-3475497D01*
X17439882Y-3475497D01*
X17464987Y-3472586D01*
X17464988Y-3472585D01*
X17464991Y-3472585D01*
X17567765Y-3427206D01*
X17647206Y-3347765D01*
X17692585Y-3244991D01*
X17695500Y-3219865D01*
X17695499Y-1455817D01*
X30149500Y-1455817D01*
X30149500Y-1594183D01*
X30184419Y-1724501D01*
X30185312Y-1727835D01*
X30185312Y-1727836D01*
X30234481Y-1813001D01*
X30250952Y-1880902D01*
X30234481Y-1936999D01*
X30185312Y-2022163D01*
X30185312Y-2022164D01*
X30149500Y-2155817D01*
X30149500Y-2294183D01*
X30182021Y-2415551D01*
X30185312Y-2427835D01*
X30185313Y-2427838D01*
X30254492Y-2547661D01*
X30254496Y-2547666D01*
X30352335Y-2645505D01*
X30390627Y-2667613D01*
X30438842Y-2718180D01*
X30452064Y-2786788D01*
X30426096Y-2851652D01*
X30390627Y-2882387D01*
X30352335Y-2904494D01*
X30254496Y-3002333D01*
X30254492Y-3002338D01*
X30185313Y-3122161D01*
X30185312Y-3122164D01*
X30149500Y-3255817D01*
X30149500Y-3394183D01*
X30183792Y-3522161D01*
X30185312Y-3527835D01*
X30185313Y-3527838D01*
X30254492Y-3647661D01*
X30254494Y-3647664D01*
X30254495Y-3647665D01*
X30352335Y-3745505D01*
X30352336Y-3745506D01*
X30352338Y-3745507D01*
X30398505Y-3772161D01*
X30472164Y-3814688D01*
X30605817Y-3850500D01*
X30605819Y-3850500D01*
X30744181Y-3850500D01*
X30744183Y-3850500D01*
X30877836Y-3814688D01*
X30997665Y-3745505D01*
X31095505Y-3647665D01*
X31164688Y-3527836D01*
X31200500Y-3394183D01*
X31200500Y-3255817D01*
X31164688Y-3122164D01*
X31095505Y-3002335D01*
X31048987Y-2955817D01*
X46049500Y-2955817D01*
X46049500Y-3094183D01*
X46078538Y-3202553D01*
X46085312Y-3227835D01*
X46085313Y-3227838D01*
X46154492Y-3347661D01*
X46154494Y-3347664D01*
X46154495Y-3347665D01*
X46252335Y-3445505D01*
X46252336Y-3445506D01*
X46252338Y-3445507D01*
X46299237Y-3472584D01*
X46372164Y-3514688D01*
X46505817Y-3550500D01*
X46505819Y-3550500D01*
X46644181Y-3550500D01*
X46644183Y-3550500D01*
X46777836Y-3514688D01*
X46897665Y-3445505D01*
X46995505Y-3347665D01*
X47064688Y-3227836D01*
X47100500Y-3094183D01*
X47100500Y-2955817D01*
X47064688Y-2822164D01*
X47009717Y-2726951D01*
X46995507Y-2702338D01*
X46995503Y-2702333D01*
X46897666Y-2604496D01*
X46897661Y-2604492D01*
X46777838Y-2535313D01*
X46777837Y-2535312D01*
X46777836Y-2535312D01*
X46644183Y-2499500D01*
X46505817Y-2499500D01*
X46372164Y-2535312D01*
X46372161Y-2535313D01*
X46252338Y-2604492D01*
X46252333Y-2604496D01*
X46154496Y-2702333D01*
X46154492Y-2702338D01*
X46085313Y-2822161D01*
X46085312Y-2822164D01*
X46049500Y-2955817D01*
X31048987Y-2955817D01*
X30997665Y-2904495D01*
X30997663Y-2904494D01*
X30997658Y-2904490D01*
X30959374Y-2882387D01*
X30911158Y-2831821D01*
X30897934Y-2763214D01*
X30923902Y-2698349D01*
X30959374Y-2667613D01*
X30997658Y-2645509D01*
X30997657Y-2645509D01*
X30997665Y-2645505D01*
X31095505Y-2547665D01*
X31164688Y-2427836D01*
X31200500Y-2294183D01*
X31200500Y-2155817D01*
X31164688Y-2022164D01*
X31115519Y-1937000D01*
X31099046Y-1869099D01*
X31115519Y-1813000D01*
X31132761Y-1783136D01*
X31164688Y-1727836D01*
X31200500Y-1594183D01*
X31200500Y-1455817D01*
X31164688Y-1322164D01*
X31107317Y-1222794D01*
X31095507Y-1202338D01*
X31095503Y-1202333D01*
X30997666Y-1104496D01*
X30997661Y-1104492D01*
X30877838Y-1035313D01*
X30877837Y-1035312D01*
X30877836Y-1035312D01*
X30744183Y-999500D01*
X30605817Y-999500D01*
X30472164Y-1035312D01*
X30472161Y-1035313D01*
X30352338Y-1104492D01*
X30352333Y-1104496D01*
X30254496Y-1202333D01*
X30254492Y-1202338D01*
X30185313Y-1322161D01*
X30185312Y-1322164D01*
X30149500Y-1455817D01*
X17695499Y-1455817D01*
X17695499Y-1430136D01*
X17695497Y-1430117D01*
X17692586Y-1405012D01*
X17692585Y-1405010D01*
X17692585Y-1405009D01*
X17647206Y-1302235D01*
X17567765Y-1222794D01*
X17567763Y-1222793D01*
X17464992Y-1177415D01*
X17439865Y-1174500D01*
X15650143Y-1174500D01*
X15650117Y-1174502D01*
X15625012Y-1177413D01*
X15625008Y-1177415D01*
X15522235Y-1222793D01*
X15442794Y-1302234D01*
X15397415Y-1405006D01*
X15397415Y-1405008D01*
X15394500Y-1430131D01*
X12190669Y-1430131D01*
X12067997Y-1341006D01*
X12067996Y-1341005D01*
X12067994Y-1341004D01*
X11991906Y-1302235D01*
X11906639Y-1258788D01*
X11906636Y-1258787D01*
X11734410Y-1202829D01*
X11555551Y-1174500D01*
X11555546Y-1174500D01*
X11374454Y-1174500D01*
X11374449Y-1174500D01*
X11195589Y-1202829D01*
X11023363Y-1258787D01*
X11023360Y-1258788D01*
X10862002Y-1341006D01*
X10715505Y-1447441D01*
X10715500Y-1447445D01*
X10587445Y-1575500D01*
X10587441Y-1575505D01*
X10481006Y-1722002D01*
X10398788Y-1883360D01*
X10398787Y-1883363D01*
X10342829Y-2055589D01*
X10317473Y-2215678D01*
X10287544Y-2278813D01*
X10228232Y-2315744D01*
X10158369Y-2314746D01*
X10100137Y-2276136D01*
X10072527Y-2215678D01*
X10053834Y-2097661D01*
X10047171Y-2055591D01*
X10008639Y-1936999D01*
X9991212Y-1883363D01*
X9991211Y-1883360D01*
X9957089Y-1816394D01*
X9908996Y-1722006D01*
X9827626Y-1610009D01*
X9802558Y-1575505D01*
X9802554Y-1575500D01*
X9674499Y-1447445D01*
X9674494Y-1447441D01*
X9527997Y-1341006D01*
X9527996Y-1341005D01*
X9527994Y-1341004D01*
X9451906Y-1302235D01*
X9366639Y-1258788D01*
X9366636Y-1258787D01*
X9194410Y-1202829D01*
X9015551Y-1174500D01*
X9015546Y-1174500D01*
X8834454Y-1174500D01*
X8834449Y-1174500D01*
X8655589Y-1202829D01*
X8483363Y-1258787D01*
X8483360Y-1258788D01*
X8322002Y-1341006D01*
X8175505Y-1447441D01*
X8175500Y-1447445D01*
X8047445Y-1575500D01*
X8047441Y-1575505D01*
X7941006Y-1722002D01*
X7858788Y-1883360D01*
X7858787Y-1883363D01*
X7802829Y-2055589D01*
X7774500Y-2234448D01*
X4780740Y-2234448D01*
X4714704Y-2168412D01*
X4714697Y-2168406D01*
X4527454Y-2024730D01*
X4527453Y-2024729D01*
X4527450Y-2024727D01*
X4445957Y-1977677D01*
X4323056Y-1906719D01*
X4323045Y-1906714D01*
X4104993Y-1816394D01*
X3912024Y-1764688D01*
X3877014Y-1755307D01*
X3877013Y-1755306D01*
X3877010Y-1755306D01*
X3643020Y-1724501D01*
X3643017Y-1724500D01*
X3643011Y-1724500D01*
X3406989Y-1724500D01*
X3406983Y-1724500D01*
X3406979Y-1724501D01*
X3172989Y-1755306D01*
X2945006Y-1816394D01*
X2726954Y-1906714D01*
X2726943Y-1906719D01*
X2535909Y-2017014D01*
X2526995Y-2022161D01*
X2522545Y-2024730D01*
X2335302Y-2168406D01*
X2335295Y-2168412D01*
X2168412Y-2335295D01*
X2168406Y-2335302D01*
X2024730Y-2522545D01*
X1906719Y-2726943D01*
X1906714Y-2726954D01*
X1816394Y-2945006D01*
X1755306Y-3172989D01*
X1724501Y-3406979D01*
X1724500Y-3406995D01*
X625000Y-3406995D01*
X625000Y-1107762D01*
X644685Y-1040723D01*
X649733Y-1033452D01*
X710454Y-952338D01*
X735291Y-919158D01*
X746869Y-905797D01*
X905799Y-746867D01*
X919156Y-735293D01*
X1033452Y-649732D01*
X1098916Y-625316D01*
X1107762Y-625000D01*
X34087057Y-625000D01*
X34154096Y-644685D01*
G37*
%TD.AperFunction*%
%TD*%
M02*
