M48
; DRILL file KiCad 10.0.6 date 2026-09-27T02:08:19
; FORMAT={-:-/ absolute / metric / decimal}
; #@! TF.CreationDate,2026-09-27T02:08:19-04:00
; #@! TF.GenerationSoftware,Kicad,Pcbnew,10.0.6
; #@! TF.FileFunction,Plated,1,4,PTH
FMAT,2
METRIC
; #@! TA.AperFunction,Plated,PTH,ComponentDrill
T1C0.200
; #@! TA.AperFunction,Plated,PTH,ViaDrill
T2C0.300
; #@! TA.AperFunction,Plated,PTH,ComponentDrill
T3C0.300
; #@! TA.AperFunction,Plated,PTH,ComponentDrill
T4C0.900
; #@! TA.AperFunction,Plated,PTH,ComponentDrill
T5C1.000
; #@! TA.AperFunction,Plated,PTH,ComponentDrill
T6C1.600
; #@! TA.AperFunction,Plated,PTH,ComponentDrill
T7C1.800
%
G90
G05
T1
X35.235Y-2.835
X35.235Y-4.015
X36.415Y-2.835
X36.415Y-4.015
T2
X1.255Y-16.255
X1.255Y-18.755
X1.255Y-21.255
X1.255Y-31.255
X1.255Y-33.755
X1.255Y-36.255
X1.925Y-44.55
X2.95Y-14.625
X3.755Y-31.255
X4.025Y-45.2
X4.98Y-43.405
X5.575Y-37.225
X5.58Y-38.125
X5.58Y-52.877
X5.8Y-8.075
X5.8Y-15.175
X6.18Y-43.405
X6.245Y-18.755
X6.245Y-21.255
X6.85Y-55.975
X8.12Y-55.975
X8.745Y-36.255
X8.775Y-28.585
X8.79Y-43.405
X8.838Y-23.325
X9.025Y-34.375
X9.387Y-26.025
X9.39Y-38.125
X9.39Y-52.877
X9.99Y-43.405
X9.995Y-5.725
X9.995Y-7.125
X9.995Y-8.725
X9.995Y-11.525
X9.995Y-12.925
X9.995Y-15.025
X10.42Y-27.225
X10.535Y-21.325
X10.66Y-55.975
X11.112Y-24.275
X11.245Y-16.255
X11.245Y-36.255
X11.69Y-26.625
X11.775Y-19.465
X11.93Y-55.975
X12.212Y-23.325
X12.6Y-43.405
X12.925Y-7.925
X12.995Y-5.025
X12.995Y-6.425
X12.995Y-9.425
X12.995Y-12.225
X12.995Y-13.625
X12.995Y-15.725
X12.995Y-17.125
X12.995Y-18.525
X13.195Y-37.225
X13.2Y-38.125
X13.2Y-52.877
X13.225Y-24.465
X13.325Y-19.325
X13.745Y-21.255
X13.8Y-43.405
X14.275Y-24.995
X14.47Y-55.975
X15.025Y-23.775
X15.13Y-28.425
X15.225Y-5.025
X15.225Y-5.725
X15.225Y-6.425
X15.225Y-7.125
X15.225Y-7.925
X15.225Y-8.725
X15.225Y-9.425
X15.225Y-10.125
X15.225Y-10.825
X15.225Y-11.525
X15.225Y-12.225
X15.225Y-12.925
X15.225Y-13.625
X15.225Y-14.325
X15.225Y-15.025
X15.225Y-15.725
X15.225Y-16.425
X15.225Y-17.125
X15.225Y-17.825
X15.225Y-18.525
X15.74Y-55.975
X16.41Y-43.405
X17.01Y-38.125
X17.01Y-52.877
X17.61Y-43.405
X18.225Y-37.413
X18.755Y-1.255
X18.755Y-6.245
X19.025Y-34.975
X19.775Y-40.135
X20.025Y-25.485
X20.625Y-34.975
X21.255Y-6.245
X21.375Y-40.135
X21.425Y-37.413
X21.825Y-2.025
X21.925Y-3.965
X23.825Y-19.625
X23.825Y-22.525
X24.48Y-43.405
X25.025Y-2.025
X25.075Y-37.225
X25.08Y-38.125
X25.08Y-52.877
X25.125Y-12.025
X25.425Y-21.625
X25.646Y-7.656
X25.68Y-43.405
X26.175Y-3.425
X26.325Y-13.225
X26.35Y-55.975
X26.625Y-20.025
X27.425Y-7.425
X27.425Y-22.825
X27.62Y-55.975
X28.225Y-12.925
X28.275Y-21.445
X28.29Y-43.405
X28.89Y-38.125
X28.89Y-52.877
X29.425Y-21.625
X29.49Y-43.405
X30.16Y-55.975
X30.675Y-1.525
X30.675Y-2.225
X30.675Y-3.325
X31.425Y-22.825
X31.43Y-55.975
X31.665Y-25.475
X32.1Y-43.405
X32.175Y-29.05
X32.225Y-25.825
X32.625Y-22.825
X32.695Y-37.225
X32.7Y-38.125
X32.7Y-52.877
X33.275Y-17.15
X33.3Y-43.405
X33.425Y-13.225
X33.725Y-14.825
X33.825Y-7.425
X33.97Y-55.975
X34.475Y-1.275
X34.625Y-21.625
X34.725Y-11.625
X34.785Y-7.495
X35.025Y-10.425
X35.025Y-12.275
X35.025Y-17.625
X35.025Y-20.825
X35.24Y-55.975
X35.91Y-43.405
X36.075Y-5.775
X36.225Y-14.025
X36.225Y-16.425
X36.225Y-18.825
X36.225Y-22.525
X36.255Y-36.255
X36.325Y-10.425
X36.51Y-38.125
X36.51Y-52.877
X37.11Y-43.405
X37.175Y-9.125
X37.225Y-1.275
X37.425Y-39.125
X37.875Y-4.775
X38.125Y-3.725
X38.525Y-34.975
X38.887Y-15.225
X39.125Y-3.975
X39.225Y-16.025
X39.225Y-17.775
X39.225Y-18.425
X39.225Y-38.225
X39.625Y-8.325
X39.925Y-5.625
X40.125Y-34.975
X40.735Y-16.645
X40.875Y-40.135
X41.255Y-6.245
X41.255Y-8.745
X41.415Y-17.775
X41.925Y-2.925
X43.755Y-1.255
X43.755Y-8.745
X43.98Y-43.405
X44.325Y-3.025
X44.325Y-6.825
X44.575Y-37.225
X44.58Y-38.125
X44.58Y-52.877
X45.18Y-43.405
X45.545Y-4.925
X45.85Y-55.975
X46.255Y-11.245
X46.575Y-3.025
X47.12Y-55.975
X47.79Y-43.405
X48.225Y-4.925
X48.39Y-38.125
X48.39Y-52.877
X48.525Y-8.825
X48.755Y-11.245
X48.925Y-4.925
X48.99Y-43.405
X49.525Y-8.825
X49.625Y-4.925
X49.66Y-55.975
X50.93Y-55.975
X51.255Y-11.245
X51.6Y-43.405
X52.195Y-37.225
X52.2Y-38.125
X52.2Y-52.877
X52.8Y-43.405
X53.47Y-55.975
X53.755Y-1.255
X53.755Y-8.745
X53.755Y-11.245
X54.74Y-55.975
X55.41Y-43.405
X56.01Y-38.125
X56.01Y-52.877
X56.255Y-11.245
X56.61Y-43.405
X56.775Y-3.025
X56.775Y-4.125
X56.925Y-39.125
X56.975Y-8.47
X57.0Y-1.775
X57.15Y-3.525
X57.425Y-38.575
X58.025Y-34.975
X58.755Y-11.245
X58.755Y-43.755
X58.775Y-40.135
X59.625Y-34.975
X59.825Y-8.55
X60.025Y-3.62
X60.025Y-4.89
X60.375Y-40.135
X61.255Y-11.245
X63.48Y-43.405
X63.755Y-11.245
X64.075Y-37.225
X64.08Y-38.125
X64.08Y-52.877
X64.225Y-1.525
X64.68Y-43.405
X65.35Y-55.975
X66.245Y-11.245
X66.62Y-55.975
X67.29Y-43.405
X67.875Y-6.175
X67.89Y-38.125
X67.89Y-52.877
X67.925Y-4.89
X68.425Y-10.725
X68.425Y-11.925
X68.49Y-43.405
X68.625Y-2.425
X69.16Y-55.975
X69.625Y-2.425
X70.43Y-55.975
X70.625Y-2.425
X70.9Y-3.525
X71.025Y-9.225
X71.1Y-43.405
X71.245Y-1.255
X71.625Y-2.425
X71.695Y-37.225
X71.7Y-38.125
X71.7Y-52.877
X72.3Y-43.405
X72.97Y-55.975
X73.745Y-21.255
X73.745Y-23.755
X73.745Y-26.255
X73.745Y-28.755
X73.745Y-33.755
X73.745Y-36.255
X74.24Y-55.975
X74.91Y-43.405
X75.325Y-9.525
X75.51Y-38.125
X75.51Y-52.877
X76.11Y-43.405
X76.245Y-21.255
X76.245Y-23.755
X76.245Y-26.255
X76.245Y-28.755
X76.325Y-9.525
X77.525Y-34.975
X78.225Y-38.225
X78.745Y-21.255
X78.745Y-23.755
X78.745Y-26.255
X78.745Y-28.755
X78.745Y-33.755
X79.125Y-34.975
X79.275Y-3.425
X79.875Y-40.135
X79.925Y-37.413
X80.275Y-3.425
X81.245Y-21.255
X81.245Y-23.755
X81.245Y-26.255
X81.245Y-28.755
X81.245Y-33.755
X81.245Y-36.255
X81.275Y-3.425
X82.98Y-43.405
X83.188Y-8.225
X83.575Y-37.225
X83.58Y-38.125
X83.58Y-52.877
X83.745Y-1.255
X83.745Y-3.755
X83.745Y-6.245
X84.18Y-43.405
X84.85Y-55.975
X85.275Y-9.835
X86.12Y-55.975
X86.245Y-1.255
X86.245Y-3.755
X86.245Y-6.245
X86.325Y-8.225
X86.79Y-43.405
X87.39Y-38.125
X87.39Y-52.877
X87.99Y-43.405
X88.66Y-55.975
X89.93Y-55.975
X90.6Y-43.405
X91.195Y-37.225
X91.2Y-38.125
X91.2Y-52.877
X91.8Y-43.405
X92.47Y-55.975
X93.74Y-55.975
X93.745Y-23.755
X93.745Y-33.755
X93.745Y-36.255
X94.41Y-43.405
X95.01Y-38.125
X95.01Y-52.877
X95.61Y-43.405
X95.925Y-39.125
X96.245Y-23.755
X96.425Y-38.575
X97.025Y-34.975
X97.775Y-40.135
X98.625Y-34.975
X98.745Y-23.755
X98.745Y-33.755
X98.745Y-41.255
X98.745Y-43.755
X99.375Y-40.135
T3
X28.225Y-14.825
X28.225Y-16.025
X28.225Y-17.225
X28.225Y-18.425
X29.425Y-14.825
X29.425Y-16.025
X29.425Y-17.225
X29.425Y-18.425
X30.625Y-14.825
X30.625Y-16.025
X30.625Y-17.225
X30.625Y-18.425
X31.825Y-14.825
X31.825Y-16.025
X31.825Y-17.225
X31.825Y-18.425
X63.375Y-3.575
X63.375Y-4.875
X63.375Y-6.175
X63.375Y-7.475
X64.675Y-3.575
X64.675Y-4.875
X64.675Y-6.175
X64.675Y-7.475
T4
X6.455Y-62.305
X7.475Y-64.085
X8.495Y-62.305
X9.515Y-64.085
X10.535Y-62.305
X11.555Y-64.085
X12.575Y-62.305
X13.595Y-64.085
X25.955Y-62.305
X26.975Y-64.085
X27.995Y-62.305
X29.015Y-64.085
X30.035Y-62.305
X31.055Y-64.085
X32.075Y-62.305
X33.095Y-64.085
X45.455Y-62.305
X46.475Y-64.085
X47.495Y-62.305
X48.515Y-64.085
X49.535Y-62.305
X50.555Y-64.085
X51.575Y-62.305
X52.595Y-64.085
X64.955Y-62.305
X65.975Y-64.085
X66.995Y-62.305
X68.015Y-64.085
X69.035Y-62.305
X70.055Y-64.085
X71.075Y-62.305
X72.095Y-64.085
X84.455Y-62.305
X85.475Y-64.085
X86.495Y-62.305
X87.515Y-64.085
X88.535Y-62.305
X89.555Y-64.085
X90.575Y-62.305
X91.595Y-64.085
T5
X8.925Y-2.325
X11.465Y-2.325
X14.005Y-2.325
X16.545Y-2.325
T6
X90.225Y-11.025
X94.925Y-8.025
X94.925Y-14.025
T7
X1.895Y-63.065
X18.155Y-63.065
X21.395Y-63.065
X37.655Y-63.065
X40.895Y-63.065
X57.155Y-63.065
X60.395Y-63.065
X76.655Y-63.065
X79.895Y-63.065
X96.155Y-63.065
M30
